<svg width="445" height="129" viewBox="0 0 445 129" fill="none" xmlns="http://www.w3.org/2000/svg">
<g clip-path="url(#clip0_100_448)">
<path d="M384.72 17.2873C390.515 11.2831 396.772 5.69735 402.907 0.00118256C402.924 12.0375 402.955 24.0794 402.907 36.1172C396.604 36.0452 390.298 35.9994 383.996 36.0114C383.951 30.1972 383.933 24.3878 383.911 18.5775C383.824 18.0167 384.412 17.6873 384.72 17.2873Z" fill="#F46C27"/>
<path d="M407.04 39.6375C419.694 39.7722 432.346 39.726 445 39.7762C439.66 44.8068 434.325 49.8405 428.973 54.8622C427.838 55.853 426.623 57.1011 424.925 57.0211C418.871 57.1424 412.817 57.0669 406.769 57.0246C406.715 51.2278 406.57 45.4219 407.04 39.6375Z" fill="#F46C27"/>
<path d="M360.799 39.7427C373.887 39.7552 386.968 39.7134 400.056 39.7511C394.11 45.5064 387.884 51.0041 382.081 56.8903C368.776 57.1814 355.468 57.0752 342.164 57.029C348.136 51.0503 354.366 45.2912 360.799 39.7427Z" fill="#EF2E34"/>
<path d="M383.834 60.0607C390.058 53.9807 396.468 48.07 402.847 42.1335C402.951 54.4194 402.929 66.7047 402.996 78.9916C396.705 84.9618 390.416 90.9401 383.991 96.7871C383.924 84.544 384.018 72.3043 383.834 60.0607Z" fill="#EF2E34"/>
<path d="M0.0542916 74.24C21.2951 74.252 42.5316 74.2853 63.7687 74.3231C63.8359 78.1568 63.8821 81.9895 63.764 85.8174C48.7576 85.8218 33.7498 85.8565 18.7424 85.8476C18.7334 89.2079 18.7068 92.5713 18.6929 95.9329C33.7545 95.9418 48.8156 95.9373 63.8777 95.9373C63.9002 99.5452 63.8135 103.159 63.8316 106.771C48.8024 106.801 33.7727 106.776 18.7473 106.785C18.7334 110.25 18.6844 113.716 18.6844 117.182C33.7498 117.229 48.8156 117.229 63.8821 117.271C63.8821 121.157 63.8869 125.044 63.8821 128.931C42.586 128.931 21.2909 128.936 0 128.931C0.045243 110.701 0.0361943 92.4704 0.0542916 74.24Z" fill="#322F30"/>
<path d="M83.709 75.3657C87.7113 74.3069 91.9127 74.3367 96.038 74.2478C109.481 74.2568 122.925 74.29 136.37 74.29C136.383 78.1405 136.37 81.9853 136.378 85.8354C124.583 85.8598 112.793 85.8309 100.997 85.8479C98.8424 85.919 96.4127 85.8945 94.6725 87.2724C92.0213 89.7046 93.5295 94.8517 97.3652 95.2784C107.737 96.3585 118.313 94.4351 128.585 96.5776C131.549 97.1221 134.251 98.6688 136.185 100.822C139.509 104.55 140.548 109.677 140.052 114.413C139.514 118.426 137.928 122.671 134.305 125.146C130.095 128.08 124.656 128.819 119.537 128.927C104.457 128.937 89.3834 128.962 74.3037 128.986C74.3084 125.007 74.2499 121.027 74.2765 117.047C88.0094 116.996 101.747 117.255 115.472 116.832C118.394 116.551 119.822 113.354 119.203 110.924C118.865 109.032 117.156 107.413 115.06 107.292C105.551 106.296 95.9198 107.788 86.4422 106.35C83.7856 105.941 81.0254 105.394 78.8661 103.787C75.1209 101.245 73.084 97.0163 72.6193 92.795C72.0406 88.0525 73.2602 82.9552 76.6621 79.2993C78.4727 77.3094 81.0439 76.0524 83.709 75.3657Z" fill="#322F30"/>
<path d="M149.66 77.4649C153.812 74.91 158.93 74.2854 163.8 74.3201C178.346 74.3201 192.897 74.2099 207.443 74.2854C207.361 78.136 207.43 81.9896 207.403 85.8433C194.36 85.8686 181.314 85.6864 168.276 86.0376C163.473 86.2388 162.698 93.8693 167.324 94.9715C178.405 96.8886 189.956 93.8617 200.866 97.0206C204.534 97.922 207.475 100.574 209.041 103.745C211.053 107.586 211.125 112.025 210.452 116.179C209.896 119.295 208.545 122.465 205.866 124.518C201.874 127.714 196.457 128.781 191.32 128.894C175.902 128.958 160.479 129.071 145.06 128.815C145.174 124.956 145.137 121.099 144.988 117.246C158.18 116.713 171.394 117.359 184.59 116.894C185.75 116.84 187.019 116.891 188.013 116.225C191.04 114.224 190.715 108.955 187.16 107.619C184.404 106.957 181.521 107.021 178.699 106.915C169.944 106.785 160.89 107.881 152.439 105.175C147.361 103.589 144.347 98.7309 143.642 93.9938C143.2 90.4725 143.489 86.822 144.696 83.452C145.563 81.003 147.296 78.8236 149.66 77.4649Z" fill="#322F30"/>
<path d="M251.533 84.9708C248.236 92.0447 245.178 99.2133 241.853 106.275C248.273 106.326 254.688 106.329 261.108 106.275C257.94 99.1621 254.756 92.058 251.533 84.9708ZM237.629 74.3322C246.763 74.2402 255.895 74.3367 265.027 74.2691C266.726 74.118 267.28 75.8759 267.888 77.0058C276.085 94.3306 284.29 111.654 292.549 128.953C285.414 128.907 278.281 128.958 271.149 128.885C269.754 125.451 268.217 122.064 266.627 118.704C256.638 118.704 246.656 118.704 236.667 118.675C234.855 122.009 233.351 125.479 231.802 128.925C225.092 128.97 218.384 128.945 211.676 128.903C220.394 110.744 229.046 92.5505 237.629 74.3322Z" fill="#322F30"/>
<path d="M317.368 85.7531C317.046 89.9956 317.064 94.2537 317.322 98.4998C325.585 98.0362 333.943 99.1998 342.142 97.7828C347.679 96.4463 347.54 87.6257 342.047 86.3277C333.861 85.3033 325.59 86.1131 317.368 85.7531ZM298.155 74.2944C314.802 74.2477 331.452 74.2188 348.101 74.4122C353.363 74.5344 359.086 75.8256 362.704 79.6481C365.533 82.6461 365.778 86.8509 365.992 90.649C366.219 95.9662 364.059 101.851 358.933 104.672C358.134 104.908 358.937 105.356 359.272 105.503C362.069 106.986 364.173 109.567 364.927 112.494C366.454 117.89 365.516 123.503 365.686 129C359.214 128.978 352.735 128.996 346.261 128.986C345.756 124.438 347.101 119.824 345.999 115.319C345.438 113.519 344.354 111.435 342.227 110.963C333.966 109.567 325.549 110.373 317.214 110.373C317.073 116.575 317.196 122.785 317.151 128.991C310.816 128.958 304.489 128.962 298.155 128.958C298.155 110.74 298.16 92.5171 298.155 74.2944Z" fill="#322F30"/>
</g>
<defs>
<clipPath id="clip0_100_448">
<rect width="445" height="129" fill="white"/>
</clipPath>
</defs>
</svg>
