<svg width="342" height="113" viewBox="0 0 342 113" fill="none" xmlns="http://www.w3.org/2000/svg">
<g clip-path="url(#clip0_102_1594)">
<path d="M295.673 15.1431C300.126 9.88358 304.935 4.99061 309.65 0.00094986C309.663 10.5444 309.687 21.0927 309.65 31.6375C304.805 31.5744 299.959 31.5343 295.116 31.5448C295.081 26.4517 295.067 21.3629 295.05 16.2733C294.984 15.782 295.436 15.4934 295.673 15.1431Z" fill="#F46C27"/>
<path d="M312.826 34.7212C322.551 34.8392 332.275 34.7987 342 34.8427C337.896 39.2493 333.796 43.6587 329.682 48.0576C328.81 48.9255 327.877 50.0188 326.572 49.9487C321.919 50.055 317.266 49.9888 312.618 49.9518C312.577 44.8739 312.465 39.7882 312.826 34.7212Z" fill="#F46C27"/>
<path d="M277.288 34.8133C287.347 34.8243 297.4 34.7876 307.459 34.8207C302.889 39.8621 298.104 44.6779 293.644 49.834C283.419 50.0891 273.191 49.996 262.966 49.9555C267.556 44.7184 272.344 39.6736 277.288 34.8133Z" fill="#EF2E34"/>
<path d="M294.991 52.6116C299.775 47.2856 304.701 42.1081 309.604 36.9079C309.683 47.6699 309.666 58.4315 309.718 69.1944C304.883 74.4241 300.05 79.6609 295.112 84.7827C295.061 74.0581 295.133 63.3365 294.991 52.6116Z" fill="#EF2E34"/>
<path d="M0.0417252 65.032C16.3661 65.0425 32.6872 65.0717 49.0088 65.1048C49.0604 68.463 49.0959 71.8203 49.0051 75.1734C37.4721 75.1773 25.938 75.2077 14.4043 75.1999C14.3974 78.1434 14.3769 81.0896 14.3662 84.0343C25.9417 84.0421 37.5167 84.0382 49.0925 84.0382C49.1098 87.1985 49.0432 90.3639 49.0571 93.5285C37.5065 93.5546 25.9556 93.5324 14.408 93.5403C14.3974 96.576 14.3597 99.6122 14.3597 102.648C25.938 102.689 37.5167 102.689 49.0959 102.725C49.0959 106.129 49.0996 109.535 49.0959 112.94C32.729 112.94 16.3629 112.944 0 112.94C0.034771 96.9711 0.0278168 81.0012 0.0417252 65.032Z" fill="#322F30"/>
<path d="M64.3337 66.018C67.4096 65.0906 70.6385 65.1167 73.8089 65.0388C84.1406 65.0466 94.4726 65.0757 104.806 65.0757C104.816 68.4487 104.806 71.8166 104.812 75.1891C95.7469 75.2105 86.6858 75.1852 77.6205 75.2001C75.9643 75.2624 74.097 75.2409 72.7595 76.4479C70.7219 78.5784 71.8811 83.0872 74.8289 83.4609C82.8003 84.407 90.9283 82.7222 98.823 84.599C101.101 85.0759 103.177 86.4308 104.663 88.3172C107.218 91.5827 108.017 96.0739 107.635 100.222C107.222 103.737 106.003 107.456 103.218 109.624C99.983 112.195 95.8031 112.842 91.869 112.936C80.2796 112.944 68.6947 112.967 57.1053 112.988C57.1089 109.503 57.064 106.016 57.0844 102.529C67.6387 102.485 78.1967 102.712 88.7447 102.341C90.9906 102.095 92.0882 99.295 91.6123 97.1661C91.3521 95.5086 90.0392 94.0901 88.4285 93.9843C81.12 93.1121 73.7181 94.4191 66.4342 93.1596C64.3925 92.8014 62.2712 92.3217 60.6117 90.9142C57.7333 88.6871 56.1679 84.9832 55.8107 81.2856C55.366 77.1313 56.3033 72.6662 58.9178 69.4638C60.3093 67.7207 62.2854 66.6196 64.3337 66.018Z" fill="#322F30"/>
<path d="M115.02 67.8566C118.21 65.6186 122.144 65.0715 125.887 65.1019C137.066 65.1019 148.249 65.0053 159.428 65.0715C159.365 68.4445 159.418 71.8201 159.397 75.1959C149.373 75.218 139.347 75.0584 129.327 75.366C125.636 75.5423 125.04 82.2264 128.595 83.1919C137.111 84.8712 145.989 82.2197 154.373 84.9868C157.193 85.7764 159.453 88.0997 160.657 90.8769C162.203 94.2417 162.258 98.1305 161.741 101.769C161.313 104.499 160.275 107.276 158.216 109.074C155.148 111.873 150.985 112.808 147.037 112.907C135.187 112.963 123.335 113.062 111.484 112.837C111.572 109.457 111.544 106.078 111.429 102.703C121.567 102.237 131.723 102.802 141.864 102.395C142.756 102.348 143.732 102.392 144.495 101.809C146.822 100.056 146.572 95.4409 143.84 94.2709C141.722 93.6907 139.506 93.7464 137.337 93.6537C130.608 93.5401 123.65 94.4999 117.155 92.1294C113.253 90.7407 110.936 86.485 110.395 82.3354C110.055 79.2509 110.277 76.0532 111.204 73.1011C111.871 70.9559 113.203 69.0468 115.02 67.8566Z" fill="#322F30"/>
<path d="M193.313 74.4319C190.779 80.6284 188.429 86.9079 185.874 93.0934C190.808 93.1381 195.737 93.1413 200.672 93.0934C198.237 86.863 195.79 80.6401 193.313 74.4319ZM182.627 65.1128C189.647 65.0322 196.665 65.1167 203.684 65.0575C204.989 64.9251 205.416 66.465 205.882 67.4547C212.182 82.6308 218.488 97.8058 224.835 112.959C219.352 112.918 213.87 112.963 208.389 112.899C207.317 109.891 206.135 106.924 204.913 103.981C197.237 103.981 189.564 103.981 181.888 103.956C180.495 106.876 179.339 109.916 178.149 112.934C172.992 112.974 167.837 112.952 162.681 112.915C169.382 97.0084 176.031 81.0715 182.627 65.1128Z" fill="#322F30"/>
<path d="M243.91 75.117C243.662 78.8334 243.676 82.5634 243.874 86.2828C250.225 85.8767 256.648 86.896 262.949 85.6547C267.205 84.484 267.098 76.7574 262.876 75.6204C256.585 74.723 250.229 75.4324 243.91 75.117ZM229.144 65.0796C241.937 65.0386 254.734 65.0133 267.529 65.1828C271.573 65.2898 275.972 66.4209 278.752 69.7693C280.926 72.3955 281.115 76.0787 281.28 79.4057C281.454 84.0634 279.793 89.2185 275.854 91.6897C275.24 91.8961 275.857 92.2885 276.115 92.417C278.264 93.7162 279.882 95.9776 280.461 98.5414C281.635 103.268 280.913 108.185 281.044 113C276.07 112.981 271.091 112.996 266.115 112.988C265.727 109.004 266.761 104.962 265.914 101.015C265.483 99.4389 264.65 97.6137 263.015 97.2001C256.666 95.9776 250.197 96.6831 243.792 96.6831C243.683 102.116 243.778 107.556 243.743 112.992C238.874 112.963 234.011 112.967 229.144 112.963C229.144 97.0044 229.148 81.0421 229.144 65.0796Z" fill="#322F30"/>
</g>
<defs>
<clipPath id="clip0_102_1594">
<rect width="342" height="113" fill="white"/>
</clipPath>
</defs>
</svg>
