<svg width="350" height="300" viewBox="0 0 350 300" fill="none" xmlns="http://www.w3.org/2000/svg">
<path d="M303.405 142.362C303.405 141.626 303.083 141.074 302.439 140.705C301.794 140.337 300.828 140.153 299.54 140.153H290.146C288.857 140.153 287.891 140.337 287.247 140.705C286.603 141.074 286.281 141.626 286.281 142.362C286.281 143.098 286.603 143.604 287.247 143.972C287.891 144.34 288.857 144.524 290.146 144.524H292.132V157.546C292.132 158.65 292.347 159.478 292.776 160.031C293.206 160.583 293.903 160.859 294.816 160.859C295.729 160.859 296.426 160.583 296.856 160.031C297.285 159.478 297.5 158.65 297.5 157.546V144.478H299.486C300.775 144.478 301.741 144.294 302.385 143.926C303.083 143.604 303.405 143.052 303.405 142.362Z" fill="#231815"/>
<path d="M139.946 141.58C139.034 141.074 138.014 140.751 136.887 140.521C135.706 140.291 134.364 140.153 132.86 140.153H128.512C127.117 140.153 126.15 140.383 125.614 140.844C125.023 141.304 124.755 142.178 124.755 143.42V157.638C124.755 158.742 125.023 159.524 125.56 159.939C126.097 160.353 127.063 160.583 128.459 160.583H133.397C136.994 160.583 139.839 159.663 141.879 157.776C143.972 155.89 144.992 153.359 144.992 150.184C144.992 148.39 144.563 146.733 143.65 145.215C142.791 143.65 141.557 142.454 139.946 141.58ZM137.531 154.739C136.457 155.751 134.847 156.258 132.646 156.258H130.176V144.478H132.538C134.739 144.478 136.35 144.939 137.477 145.859C138.551 146.779 139.141 148.205 139.141 150.092C139.141 152.163 138.604 153.727 137.531 154.739Z" fill="#231815"/>
<path d="M319.992 141.58C319.08 141.074 318.06 140.751 316.933 140.521C315.752 140.291 314.41 140.153 312.906 140.153H308.558C307.163 140.153 306.196 140.383 305.66 140.844C305.123 141.304 304.854 142.178 304.854 143.42V157.638C304.854 158.742 305.123 159.524 305.606 159.939C306.143 160.353 307.109 160.583 308.505 160.583H313.443C317.04 160.583 319.885 159.663 321.925 157.776C324.018 155.89 325.038 153.359 325.038 150.184C325.038 148.39 324.555 146.733 323.696 145.215C322.784 143.65 321.549 142.454 319.992 141.58ZM317.577 154.739C316.503 155.751 314.893 156.258 312.745 156.258H310.276V144.478H312.638C314.839 144.478 316.449 144.939 317.577 145.859C318.65 146.779 319.187 148.205 319.187 150.092C319.187 152.163 318.65 153.727 317.577 154.739Z" fill="#231815"/>
<path d="M166.626 157.224L160.614 142.592C160.238 141.718 159.701 141.074 159.057 140.567C158.359 140.107 157.554 139.877 156.641 139.877C155.675 139.877 154.816 140.107 154.172 140.613C153.528 141.12 152.937 141.856 152.508 142.914L146.334 157.316C146.227 157.5 146.173 157.684 146.12 157.914C146.066 158.144 146.066 158.374 146.066 158.65C146.066 159.294 146.281 159.847 146.764 160.261C147.247 160.675 147.837 160.905 148.643 160.905C149.233 160.905 149.77 160.721 150.199 160.353C150.629 159.985 151.005 159.478 151.273 158.788L152.078 156.718H160.882L161.58 158.604C161.848 159.386 162.224 159.939 162.707 160.307C163.19 160.675 163.727 160.859 164.479 160.859C165.284 160.859 165.874 160.675 166.411 160.261C166.894 159.847 167.163 159.34 167.163 158.696C167.163 158.512 167.163 158.282 167.055 158.052C166.787 157.822 166.733 157.546 166.626 157.224ZM153.528 152.439L156.48 144.893L159.218 152.439H153.528Z" fill="#231815"/>
<path d="M92.7071 160.813C93.6196 160.813 94.3175 160.537 94.7469 159.985C95.2301 159.432 95.4448 158.604 95.4448 157.5V143.19C95.4448 142.086 95.2301 141.258 94.7469 140.705C94.3175 140.153 93.6196 139.877 92.7071 139.877C91.7945 139.877 91.0966 140.153 90.6672 140.705C90.2377 141.258 89.9693 142.086 89.9693 143.19V157.5C89.9693 158.604 90.184 159.432 90.6672 159.985C91.0966 160.537 91.7945 160.813 92.7071 160.813Z" fill="#231815"/>
<path d="M82.9908 139.923C82.0782 139.923 81.3804 140.199 80.9509 140.752C80.5215 141.304 80.3068 142.132 80.3068 143.236V152.899C80.3068 154.325 80.1457 155.337 79.8773 155.844C79.6089 156.396 79.1258 156.672 78.5353 156.672C78.1595 156.672 77.6227 156.488 76.9249 156.166C76.1733 155.844 75.5828 155.66 75.0997 155.66C74.3482 155.66 73.7577 155.844 73.2745 156.258C72.8451 156.672 72.5767 157.178 72.5767 157.776C72.5767 158.742 73.1672 159.525 74.3482 160.169C75.5291 160.813 77.0322 161.135 78.8037 161.135C81.0583 161.135 82.8298 160.537 84.0107 159.433C85.1917 158.282 85.7822 156.626 85.7822 154.371V143.236C85.7822 142.132 85.5675 141.304 85.0844 140.752C84.5476 140.153 83.9034 139.923 82.9908 139.923Z" fill="#231815"/>
<path d="M178.972 156.258H174.41V143.19C174.41 142.086 174.195 141.258 173.712 140.705C173.282 140.153 172.584 139.877 171.672 139.877C170.759 139.877 170.061 140.153 169.632 140.705C169.202 141.258 168.934 142.086 168.934 143.19V157.638C168.934 158.742 169.202 159.524 169.739 159.939C170.276 160.353 171.242 160.583 172.638 160.583H178.972C180.261 160.583 181.227 160.399 181.871 160.031C182.515 159.662 182.837 159.11 182.837 158.42C182.837 157.684 182.515 157.178 181.871 156.81C181.281 156.442 180.314 156.258 178.972 156.258Z" fill="#231815"/>
<path d="M332.017 156.304C331.426 155.798 330.729 155.521 329.87 155.521C329.011 155.521 328.313 155.752 327.722 156.304C327.132 156.81 326.81 157.408 326.81 158.144C326.81 158.88 327.132 159.479 327.669 159.985C328.259 160.491 329.011 160.767 329.87 160.767C330.729 160.767 331.426 160.491 332.017 159.985C332.607 159.479 332.876 158.834 332.876 158.144C332.876 157.454 332.607 156.81 332.017 156.304Z" fill="#231815"/>
<path d="M288.321 160.031C288.965 159.663 289.287 159.11 289.287 158.42C289.287 157.684 288.965 157.178 288.321 156.81C287.676 156.442 286.71 156.304 285.422 156.304H280.859V143.236C280.859 142.132 280.644 141.304 280.161 140.752C279.732 140.199 279.034 139.923 278.121 139.923C277.209 139.923 276.511 140.199 276.081 140.752C275.652 141.304 275.383 142.132 275.383 143.236V157.684C275.383 158.788 275.652 159.571 276.189 159.985C276.725 160.399 277.692 160.583 279.087 160.583H285.422C286.71 160.537 287.676 160.399 288.321 160.031Z" fill="#231815"/>
<path d="M116.488 160.537C116.971 160.813 117.508 160.951 118.098 160.951C118.957 160.951 119.601 160.721 119.977 160.261C120.406 159.801 120.567 159.064 120.567 158.052V143.236C120.567 142.132 120.353 141.304 119.87 140.752C119.44 140.199 118.742 139.923 117.83 139.923C116.917 139.923 116.219 140.199 115.79 140.752C115.307 141.304 115.092 142.132 115.092 143.236V152.761L105.107 141.442C104.624 140.89 104.141 140.521 103.712 140.291C103.282 140.061 102.799 139.923 102.209 139.923C101.35 139.923 100.706 140.153 100.33 140.706C99.9003 141.212 99.6856 141.994 99.6856 143.052V157.546C99.6856 158.65 99.9003 159.479 100.383 160.031C100.813 160.583 101.511 160.859 102.423 160.859C103.336 160.859 104.034 160.583 104.463 160.031C104.893 159.479 105.107 158.65 105.107 157.546V148.16L114.931 159.248C115.521 159.847 116.005 160.261 116.488 160.537Z" fill="#231815"/>
<path d="M262.339 142.73C262.393 142.5 262.393 142.27 262.393 142.086C262.393 141.442 262.124 140.935 261.641 140.521C261.158 140.107 260.514 139.923 259.709 139.923C258.903 139.923 258.313 140.107 257.883 140.475C257.454 140.843 257.132 141.442 256.971 142.27L254.126 154.923L250.207 141.948C249.992 141.258 249.67 140.751 249.187 140.429C248.704 140.107 248.06 139.923 247.308 139.923C246.503 139.923 245.859 140.107 245.376 140.383C244.839 140.705 244.517 141.212 244.302 141.856L240.33 154.877L237.485 141.902C237.377 141.258 237.055 140.751 236.626 140.383C236.196 140.015 235.606 139.877 234.908 139.877C234.103 139.877 233.405 140.061 232.922 140.429C232.439 140.843 232.17 141.35 232.17 141.994C232.17 142.27 232.17 142.5 232.17 142.638C232.17 142.776 232.17 142.914 232.224 143.006L236.196 157.73C236.465 158.834 236.948 159.616 237.485 160.123C238.075 160.583 238.88 160.813 239.9 160.813C240.92 160.813 241.779 160.583 242.423 160.077C243.068 159.57 243.551 158.88 243.819 157.96L247.201 146.595L250.744 158.236C251.012 159.156 251.442 159.801 252.032 160.215C252.623 160.629 253.374 160.859 254.394 160.859C255.468 160.859 256.273 160.675 256.81 160.261C257.347 159.847 257.776 159.018 258.152 157.822L262.285 143.512C262.232 143.19 262.285 142.96 262.339 142.73Z" fill="#231815"/>
<path d="M232.224 157.224L226.212 142.592C225.836 141.718 225.299 141.074 224.655 140.567C223.957 140.107 223.206 139.877 222.239 139.877C221.273 139.877 220.414 140.107 219.77 140.613C219.126 141.12 218.535 141.856 218.106 142.914L211.933 157.316C211.825 157.5 211.771 157.684 211.718 157.914C211.664 158.144 211.664 158.374 211.664 158.65C211.664 159.294 211.933 159.847 212.416 160.261C212.899 160.675 213.489 160.905 214.241 160.905C214.831 160.905 215.368 160.721 215.798 160.353C216.227 159.985 216.603 159.478 216.871 158.788L217.676 156.718H226.48L227.124 158.604C227.393 159.386 227.768 159.939 228.198 160.307C228.681 160.675 229.218 160.859 229.969 160.859C230.721 160.859 231.419 160.675 231.902 160.261C232.385 159.847 232.653 159.34 232.653 158.696C232.653 158.512 232.653 158.282 232.546 158.052C232.385 157.822 232.331 157.546 232.224 157.224ZM219.126 152.439L222.078 144.893L224.816 152.439H219.126Z" fill="#231815"/>
<path d="M204.364 148.067C204.095 147.975 203.719 147.883 203.236 147.745C201.143 147.193 200.069 146.503 200.069 145.629C200.069 145.123 200.284 144.663 200.767 144.34C201.25 144.018 201.894 143.88 202.699 143.88C203.183 143.88 203.934 143.972 204.9 144.248C205.867 144.479 206.564 144.617 206.994 144.617C207.745 144.617 208.39 144.432 208.765 144.11C209.195 143.788 209.41 143.282 209.41 142.684C209.41 141.81 208.819 141.12 207.584 140.521C206.35 139.969 204.793 139.647 202.914 139.647C200.337 139.647 198.298 140.245 196.687 141.442C195.077 142.638 194.271 144.202 194.271 146.089C194.271 147.561 194.755 148.758 195.775 149.586C196.794 150.46 198.512 151.196 200.982 151.84C202.699 152.301 203.827 152.715 204.364 153.083C204.9 153.497 205.169 154.003 205.169 154.647C205.169 155.245 204.9 155.752 204.417 156.166C203.934 156.58 203.29 156.764 202.538 156.764C201.626 156.764 200.552 156.58 199.264 156.258C197.975 155.89 197.117 155.752 196.741 155.752C195.936 155.752 195.291 155.936 194.808 156.304C194.325 156.672 194.11 157.178 194.11 157.822C194.11 158.696 194.862 159.479 196.365 160.123C197.868 160.767 199.693 161.089 201.787 161.089C204.578 161.089 206.779 160.445 208.443 159.202C210.161 157.914 211.02 156.258 211.02 154.233C211.02 152.761 210.483 151.518 209.463 150.506C208.282 149.54 206.618 148.712 204.364 148.067Z" fill="#231815"/>
<path d="M101.887 170.015H105.268V179.586H107.147V170.015H110.475V168.589H101.887V170.015Z" fill="#231815"/>
<path d="M187.722 174.57H192.071V173.19H187.722V169.969H192.339V168.589H185.844V179.586H192.661V178.205H187.722V174.57Z" fill="#231815"/>
<path d="M234.586 168.589H232.707V179.586H239.417V178.205H234.586V168.589Z" fill="#231815"/>
<path d="M119.118 168.589L115.307 179.586H117.239L118.313 176.365H122.124L123.252 179.586H125.238L121.426 168.589H119.118ZM118.635 175.077L119.655 172.178C119.87 171.488 120.031 170.705 120.245 170.015H120.299C120.46 170.705 120.675 171.488 120.89 172.178L121.856 175.077H118.635Z" fill="#231815"/>
<path d="M252.569 175.261C252.569 177.469 251.603 178.389 250.046 178.389C248.597 178.389 247.577 177.469 247.577 175.261V168.589H245.698V175.169C245.698 178.436 247.416 179.77 249.992 179.77C252.623 179.77 254.502 178.389 254.502 175.123V168.589H252.623V175.261H252.569Z" fill="#231815"/>
<path d="M71.9862 170.015H75.3144V179.586H77.2469V170.015H80.6288V168.589H71.9862V170.015Z" fill="#231815"/>
<path d="M133.505 168.589H131.626V179.586H138.282V178.205H133.505V168.589Z" fill="#231815"/>
<path d="M260.46 170.015H263.842V179.586H265.721V170.015H269.049V168.589H260.46V170.015Z" fill="#231815"/>
<path d="M91.365 168.451C88.1978 168.451 85.9969 170.706 85.9969 174.156C85.9969 177.469 88.0368 179.724 91.204 179.724C94.2101 179.724 96.5721 177.791 96.5721 173.972C96.5184 170.844 94.6396 168.451 91.365 168.451ZM91.2577 178.39C89.1104 178.39 87.9831 176.365 87.9831 174.11C87.9831 171.948 89.0031 169.831 91.3113 169.831C93.5123 169.831 94.5859 171.994 94.5859 174.064C94.5322 176.411 93.4049 178.39 91.2577 178.39Z" fill="#231815"/>
<path d="M174.732 168.543C173.443 168.543 172.477 168.635 171.725 168.773V179.632H173.604V175.307C173.926 175.353 174.248 175.399 174.678 175.399C176.933 175.399 179.348 174.479 179.348 171.81C179.348 170.798 178.919 169.969 178.221 169.463C177.416 168.819 176.235 168.543 174.732 168.543ZM174.624 174.018C174.195 174.018 173.819 174.018 173.551 173.926V169.923C173.819 169.877 174.248 169.831 174.839 169.831C176.342 169.831 177.362 170.522 177.362 171.856C177.362 173.236 176.342 174.018 174.624 174.018Z" fill="#231815"/>
<path d="M307.86 172.638C307.86 174.387 307.914 175.813 308.075 177.285H308.021C307.485 176.135 306.787 174.847 305.982 173.65L302.707 168.543H300.667V179.54H302.385V175.445C302.385 173.512 302.331 172.086 302.278 170.706H302.331C302.922 171.948 303.673 173.236 304.425 174.433L307.699 179.586H309.578V168.589H307.86V172.638Z" fill="#231815"/>
<path d="M276.994 168.589H275.115V179.586H276.994V168.589Z" fill="#231815"/>
<path d="M164.479 168.589H162.6V179.586H164.479V168.589Z" fill="#231815"/>
<path d="M288.911 168.451C285.744 168.451 283.543 170.706 283.543 174.156C283.543 177.469 285.583 179.724 288.75 179.724C291.756 179.724 294.118 177.791 294.118 173.972C294.118 170.844 292.239 168.451 288.911 168.451ZM288.857 178.39C286.71 178.39 285.583 176.365 285.583 174.11C285.583 171.948 286.603 169.831 288.911 169.831C291.112 169.831 292.186 171.994 292.186 174.064C292.132 176.411 291.005 178.39 288.857 178.39Z" fill="#231815"/>
<path d="M320.636 173.282C319.026 172.684 318.382 172.224 318.382 171.304C318.382 170.613 318.972 169.831 320.475 169.831C321.495 169.831 322.301 170.107 322.676 170.337L323.16 168.957C322.623 168.681 321.71 168.451 320.529 168.451C318.06 168.451 316.503 169.739 316.503 171.488C316.503 172.96 317.738 173.972 319.617 174.617C321.12 175.169 321.764 175.721 321.764 176.687C321.764 177.699 320.905 178.344 319.456 178.344C318.436 178.344 317.416 178.067 316.771 177.699L316.342 179.08C316.933 179.448 318.167 179.724 319.348 179.724C322.14 179.724 323.696 178.344 323.696 176.503C323.589 175.031 322.623 174.064 320.636 173.282Z" fill="#231815"/>
<path d="M206.618 173.282C205.061 172.684 204.363 172.224 204.363 171.304C204.363 170.613 205.008 169.831 206.457 169.831C207.477 169.831 208.282 170.107 208.658 170.337L209.141 168.957C208.604 168.681 207.692 168.451 206.511 168.451C204.041 168.451 202.485 169.739 202.485 171.488C202.485 172.96 203.719 173.972 205.598 174.617C207.101 175.169 207.692 175.721 207.692 176.687C207.692 177.699 206.887 178.344 205.383 178.344C204.363 178.344 203.344 178.067 202.699 177.699L202.27 179.08C202.86 179.448 204.095 179.724 205.276 179.724C208.067 179.724 209.624 178.344 209.624 176.503C209.571 175.031 208.604 174.064 206.618 173.282Z" fill="#231815"/>
<path d="M151.273 168.543C149.985 168.543 149.018 168.635 148.267 168.773V179.632H150.146V175.307C150.468 175.353 150.844 175.399 151.219 175.399C153.474 175.399 155.89 174.479 155.89 171.81C155.89 170.798 155.46 169.969 154.762 169.463C153.957 168.819 152.83 168.543 151.273 168.543ZM151.166 174.018C150.736 174.018 150.36 174.018 150.092 173.926V169.923C150.36 169.877 150.79 169.831 151.38 169.831C152.883 169.831 153.957 170.522 153.957 171.856C153.957 173.236 152.883 174.018 151.166 174.018Z" fill="#231815"/>
<path d="M220.951 168.451C217.784 168.451 215.583 170.706 215.583 174.156C215.583 177.469 217.623 179.724 220.79 179.724C223.796 179.724 226.158 177.791 226.158 173.972C226.104 170.844 224.225 168.451 220.951 168.451ZM220.844 178.39C218.696 178.39 217.569 176.365 217.569 174.11C217.569 171.948 218.589 169.831 220.897 169.831C223.152 169.831 224.172 171.994 224.172 174.064C224.118 176.411 223.044 178.39 220.844 178.39Z" fill="#231815"/>
<path d="M47.1319 132.055C45.5752 133.021 43.6963 133.62 41.6565 133.62C38.2745 133.62 35.1611 131.917 33.5506 129.386H10.7899V168.221H55.5598V129.386H52.5C51.158 130.721 49.3328 131.687 47.1319 132.055ZM52.5537 149.954C52.339 155.705 48.2055 160.583 42.3543 162.653C39.3482 165.23 35.2684 166.794 30.7055 166.794C21.4187 166.794 14.3328 160.307 14.0644 152.577V152.531L19.5399 149.954H29.9003V150.184C29.9003 152.347 31.8328 154.049 34.2485 154.325C34.3558 153.957 34.5169 153.635 34.5169 153.267L34.2485 152.807V138.083L39.7239 135.276H52.5537V149.954Z" fill="#E6E6E6"/>
<path d="M24.7469 153.221C24.7469 155.338 26.9479 157.224 29.6319 157.224C31.8865 157.224 33.658 155.936 34.3022 154.325C31.8328 154.095 29.954 152.393 29.954 150.184V149.954H19.5399L14.0644 152.531V152.577H24.6933V153.221H24.7469Z" fill="#1D2088"/>
<path d="M34.3022 138.037H41.7638L44.7163 135.506L45.5215 136.15L43.3206 138.037H46.0046L46.9172 137.255L47.8834 138.083L47.454 138.451V140.751L48.3666 141.534L47.454 142.316V152.761C47.293 156.626 45.4141 160.123 42.408 162.653C48.2592 160.583 52.3926 155.705 52.6074 149.954V135.23H39.7239L34.3022 138.037Z" fill="#1D2088"/>
<path d="M13.0445 176.825C13.0445 177.837 13.0445 177.93 12.293 177.93H10.8972V179.77H13.3129C15.3528 179.77 15.3528 178.482 15.3528 177.515V171.488H12.9908V176.825H13.0445Z" fill="#1D2088"/>
<path d="M26.7868 171.488H21.7945V179.77H24.4785V173.466H25.7669C26.5184 173.466 26.5184 173.834 26.5184 174.571V179.77H29.3635V173.466C29.3098 173.466 29.4172 171.488 26.7868 171.488Z" fill="#1D2088"/>
<path d="M35.3758 171.488H31.2423V173.512H34.7316C34.7316 173.512 36.6641 173.696 36.6641 175.583C36.6641 177.515 34.9463 177.883 34.6242 177.883H33.7653V174.617H31.2423V179.816H35.6979C35.6979 179.816 39.0798 179.448 39.0798 175.721C39.0798 172.73 36.9862 171.488 35.3758 171.488Z" fill="#1D2088"/>
<path d="M52.1242 171.488H49.8159V179.77H55.3451V177.837H52.1242V171.488Z" fill="#1D2088"/>
<path d="M19.8083 174.571H17.1242V179.77H19.8083V174.571Z" fill="#1D2088"/>
<path d="M19.8083 171.488H17.1242V173.512H19.8083V171.488Z" fill="#1D2088"/>
<path d="M42.569 171.488L45.1457 177.837H42.7838L43.4279 174.571H41.3344L39.8313 179.77H47.9908L45.1457 171.488H42.569Z" fill="#1D2088"/>
<path d="M45.8436 118.344L47.3466 117.055L48.0982 117.699L46.7561 118.85C47.2929 119.172 47.7761 119.54 48.2055 119.908L48.3129 119.816L49.2791 120.644L49.0644 120.828C49.4402 121.288 49.816 121.794 50.0844 122.347L50.9433 123.083L50.5138 123.451C50.7285 124.141 50.8896 124.831 50.8896 125.613C50.8896 126.994 50.4601 128.236 49.7623 129.34H52.5C53.8957 127.96 54.7009 126.166 54.7009 124.187C54.7009 119.954 50.6212 116.457 45.4141 116.457C43.8574 116.457 42.4617 116.825 41.1733 117.423C41.3344 117.423 41.4417 117.377 41.6028 117.377C43.1595 117.423 44.5552 117.791 45.8436 118.344Z" fill="#1D2088"/>
<path d="M45.8436 118.344L47.3466 117.055L48.0982 117.699L46.7561 118.85C47.2929 119.172 47.7761 119.54 48.2055 119.908L48.3129 119.816L49.2791 120.644L49.0644 120.828C49.4402 121.288 49.816 121.794 50.0844 122.347L50.9433 123.083L50.5138 123.451C50.7285 124.141 50.8896 124.831 50.8896 125.613C50.8896 126.994 50.4601 128.236 49.7623 129.34H52.5C53.8957 127.96 54.7009 126.166 54.7009 124.187C54.7009 119.954 50.6212 116.457 45.4141 116.457C43.8574 116.457 42.4617 116.825 41.1733 117.423C41.3344 117.423 41.4417 117.377 41.6028 117.377C43.1595 117.423 44.5552 117.791 45.8436 118.344Z" stroke="#1D2088" stroke-width="0.2295" stroke-miterlimit="2.613"/>
<path d="M50.3528 125.521C50.2991 126.948 49.8696 128.282 49.0644 129.387H49.1181C49.9233 128.282 50.4064 126.994 50.4064 125.66C50.4064 125.568 50.3528 125.567 50.3528 125.521Z" fill="#1D2088"/>
<path d="M50.3528 125.521C50.2991 126.948 49.8696 128.282 49.0644 129.387H49.1181C49.9233 128.282 50.4064 126.994 50.4064 125.66C50.4064 125.568 50.3528 125.567 50.3528 125.521Z" stroke="#1D2088" stroke-width="0.2295" stroke-miterlimit="2.613"/>
<path d="M49.1181 129.386C48.2055 130.629 46.9172 131.595 45.3604 132.193C46.9172 131.549 48.2055 130.583 49.1181 129.386Z" fill="#1D2088"/>
<path d="M49.1181 129.386C48.2055 130.629 46.9172 131.595 45.3604 132.193C46.9172 131.549 48.2055 130.583 49.1181 129.386Z" stroke="#1D2088" stroke-width="0.2295" stroke-miterlimit="2.613"/>
<path d="M47.1319 132.055C49.2791 131.733 51.158 130.767 52.5 129.386H49.7623C49.1718 130.445 48.2592 131.319 47.1319 132.055Z" fill="#1D2088"/>
<path d="M47.1319 132.055C49.2791 131.733 51.158 130.767 52.5 129.386H49.7623C49.1718 130.445 48.2592 131.319 47.1319 132.055Z" stroke="#1D2088" stroke-width="0.2295" stroke-miterlimit="2.613"/>
<path d="M48.0982 117.699L47.3466 117.055L45.8436 118.344C46.1657 118.482 46.4877 118.62 46.8098 118.804L48.0982 117.699Z" fill="#1D2088"/>
<path d="M49.2791 120.644L48.3129 119.816L48.2055 119.908C48.5276 120.184 48.796 120.506 49.0644 120.828L49.2791 120.644Z" fill="#1D2088"/>
<path d="M50.9969 123.083L50.138 122.347C50.2991 122.715 50.4601 123.083 50.5675 123.497L50.9969 123.083Z" fill="#1D2088"/>
<path d="M39.7239 118.344C36.0199 119.126 33.1748 122.024 33.1748 125.613C33.1748 126.994 33.658 128.236 34.4632 129.34H38.6503C37.3083 127.96 36.4494 126.166 36.4494 124.187C36.4494 121.886 37.7377 119.77 39.7239 118.344Z" fill="white"/>
<path d="M38.6503 129.386H34.4632C35.9663 131.457 38.5966 132.883 41.6564 132.883C42.9985 132.883 44.2331 132.607 45.3604 132.193C42.6764 132.147 40.3144 131.043 38.6503 129.386Z" fill="white"/>
<path d="M50.1381 123.911L46.0046 127.5L45.9509 127.454L44.8773 126.534L49.6012 122.485C49.3328 122.024 49.0644 121.564 48.6887 121.15L46.4341 123.083L40.7976 127.96L39.7239 127.27L39.9387 127.086L39.885 127.04L45.4141 122.301L47.8298 120.23C47.4003 119.862 46.8635 119.54 46.3267 119.264L41.3881 123.497L41.3344 123.451L40.5828 122.807L40.5292 122.761L45.1994 118.712C44.1258 118.297 42.8911 118.067 41.6565 118.067C41.0123 118.067 40.3681 118.159 39.7239 118.297C37.7377 119.724 36.4494 121.84 36.4494 124.187C36.4494 126.166 37.3083 127.96 38.6503 129.34H49.0644C49.8696 128.236 50.3528 126.902 50.3528 125.475C50.3528 124.969 50.2991 124.417 50.1381 123.911Z" fill="white"/>
<path d="M45.3604 132.193C46.9172 131.595 48.2055 130.629 49.0644 129.386H38.6503C40.3144 131.043 42.6764 132.147 45.3604 132.193Z" fill="white"/>
<path d="M45.9509 127.454L46.0046 127.5L50.138 123.911V123.865L45.9509 127.454Z" fill="white"/>
<path d="M39.9387 127.086L39.7239 127.27L40.8512 127.96L46.4341 123.083L40.8512 127.914L39.9387 127.086Z" fill="white"/>
<path d="M41.3344 123.497L41.388 123.543L46.3267 119.31L46.273 119.264L41.3344 123.497Z" fill="white"/>
<path d="M40.5828 122.853L45.3068 118.804C45.2531 118.804 45.2531 118.758 45.1994 118.758L40.5828 122.853Z" fill="white"/>
<path d="M40.5828 122.853L41.3344 123.497L40.5828 122.853Z" fill="#1D2088"/>
<path d="M41.3344 123.497L46.273 119.264C45.9509 119.08 45.6288 118.942 45.2531 118.804L40.5291 122.853L41.3344 123.497Z" fill="#1D2088"/>
<path d="M39.885 127.086H39.9387L45.4141 122.347L39.885 127.086Z" fill="#1D2088"/>
<path d="M47.8298 120.276L45.4141 122.347L39.9387 127.086L40.8512 127.868L46.4341 123.083L48.6887 121.15C48.4203 120.874 48.1518 120.552 47.8298 120.276Z" fill="#1D2088"/>
<path d="M49.6012 122.531L44.8236 126.534L45.8972 127.454L44.8773 126.58L49.6012 122.531Z" fill="#1D2088"/>
<path d="M49.6012 122.531L44.931 126.58L45.9509 127.454L50.138 123.865C49.977 123.405 49.8159 122.945 49.6012 122.531Z" fill="#1D2088"/>
<path d="M32.9064 125.383C32.9064 121.84 36.181 118.666 40.1534 118.021C40.4755 117.791 40.8512 117.607 41.227 117.469C36.5031 117.699 32.3696 121.288 32.3696 125.613C32.3696 126.994 32.7991 128.236 33.5506 129.34H34.3021C33.4432 128.236 32.9064 126.856 32.9064 125.383Z" fill="#1D2088"/>
<path d="M41.6564 133.574C43.75 133.574 45.6288 132.976 47.1319 132.009C46.5951 132.101 46.0583 132.147 45.4678 132.147C45.4141 132.147 45.4141 132.147 45.3604 132.147C44.2331 132.607 42.9985 132.838 41.6564 132.838C38.6503 132.838 35.9126 131.457 34.3021 129.341H33.5506C35.161 131.871 38.2745 133.574 41.6564 133.574Z" fill="#1D2088"/>
<path d="M49.6549 122.439L49.977 122.163L50.138 122.301C49.8696 121.748 49.5476 121.242 49.1181 120.782L48.796 121.058C49.1181 121.518 49.3865 121.979 49.6549 122.439Z" fill="#1D2088"/>
<path d="M46.4341 119.172C46.9709 119.494 47.454 119.816 47.8834 120.184L48.2055 119.862C47.7761 119.448 47.2929 119.08 46.7561 118.804L46.4341 119.172Z" fill="#1D2088"/>
<path d="M50.1917 123.865C50.2991 124.371 50.3528 124.877 50.3528 125.383C50.3528 125.429 50.3528 125.475 50.3528 125.475C50.3528 125.521 50.3528 125.567 50.3528 125.614C50.3528 126.994 49.8696 128.236 49.0644 129.341H49.7623C50.4601 128.236 50.8896 126.948 50.8896 125.614C50.8896 124.877 50.7285 124.141 50.5138 123.451L50.138 123.773C50.1917 123.819 50.1917 123.819 50.1917 123.865Z" fill="#1D2088"/>
<path d="M41.6564 117.929C42.9985 117.929 44.2331 118.205 45.3604 118.666C45.4141 118.666 45.4141 118.712 45.4141 118.712L45.7899 118.389C44.5552 117.837 43.1058 117.469 41.6028 117.469C41.4417 117.469 41.3344 117.515 41.1733 117.515C40.7975 117.699 40.4755 117.883 40.1534 118.067C40.6365 117.975 41.1196 117.929 41.6564 117.929Z" fill="#1D2088"/>
<path d="M49.816 129.386H49.1181C48.2592 130.583 46.9709 131.595 45.3604 132.193C45.4141 132.193 45.4141 132.193 45.4678 132.193C46.0583 132.193 46.5951 132.147 47.1319 132.055C48.2592 131.319 49.1718 130.445 49.816 129.386Z" fill="#1D2088"/>
<path d="M45.4678 118.666C45.4678 118.666 45.4141 118.62 45.3604 118.62C45.3604 118.666 45.4141 118.666 45.4678 118.666Z" fill="#1D2088"/>
<path d="M46.8098 118.85C46.4877 118.666 46.1656 118.528 45.8435 118.39L45.4678 118.712C45.7899 118.85 46.1656 119.034 46.434 119.172L46.8098 118.85Z" fill="#1D2088"/>
<path d="M46.434 119.172C46.1656 118.988 45.7899 118.85 45.4678 118.666C45.7899 118.85 46.1119 118.988 46.434 119.172Z" fill="#1D2088"/>
<path d="M48.7423 121.104L49.0644 120.828C48.796 120.506 48.5276 120.184 48.2055 119.908L47.8834 120.184C48.2055 120.46 48.4739 120.782 48.7423 121.104Z" fill="#1D2088"/>
<path d="M48.7423 121.104C48.5276 120.782 48.2055 120.46 47.9371 120.23C48.2055 120.506 48.4739 120.782 48.7423 121.104Z" fill="#1D2088"/>
<path d="M49.6549 122.439C49.6549 122.439 49.6549 122.485 49.7086 122.485L49.6549 122.439C49.7086 122.485 49.7086 122.531 49.7086 122.531C49.7623 122.669 49.816 122.807 49.8696 122.945C49.977 123.221 50.0844 123.497 50.1917 123.819L50.5675 123.497C50.4601 123.129 50.2991 122.715 50.138 122.347L49.977 122.208L49.6549 122.439Z" fill="#1D2088"/>
<path d="M50.1917 123.819C50.0844 123.543 49.977 123.221 49.8696 122.945C49.977 123.221 50.0844 123.497 50.1917 123.819Z" fill="#1D2088"/>
<path d="M49.6549 122.485C49.6549 122.531 49.7086 122.531 49.6549 122.485C49.7086 122.485 49.7086 122.531 49.6549 122.485Z" fill="#1D2088"/>
<path d="M33.1748 125.614C33.1748 121.979 35.9662 119.08 39.7239 118.344C39.885 118.252 39.9923 118.114 40.1534 118.021C36.181 118.666 32.9064 121.841 32.9064 125.383C32.9064 126.856 33.4432 128.19 34.3021 129.341H34.4632C33.658 128.282 33.1748 126.994 33.1748 125.614Z" fill="#1D2088"/>
<path d="M34.4632 129.386H34.3022C35.8589 131.503 38.6503 132.883 41.6564 132.883C38.5966 132.883 35.9663 131.457 34.4632 129.386Z" fill="#1D2088"/>
<path d="M47.8298 120.276L47.9371 120.184C47.5077 119.816 47.0245 119.448 46.4877 119.172L46.3267 119.31C46.8635 119.586 47.3466 119.908 47.8298 120.276Z" fill="#1D2088"/>
<path d="M49.6012 122.485L49.6549 122.439C49.3865 121.978 49.1181 121.518 48.7423 121.104L48.6887 121.15C49.0107 121.564 49.3328 122.024 49.6012 122.485Z" fill="#1D2088"/>
<path d="M50.3528 125.522C50.3528 125.476 50.3528 125.43 50.3528 125.43C50.3528 124.923 50.2991 124.417 50.138 123.911L50.0844 123.957C50.2991 124.417 50.3528 124.969 50.3528 125.522Z" fill="#1D2088"/>
<path d="M41.6565 118.16C42.9448 118.16 44.1258 118.39 45.1994 118.804L45.3604 118.666C44.2331 118.206 42.9985 117.929 41.6565 117.929C41.1733 117.929 40.6365 117.975 40.1534 118.067C39.9923 118.16 39.885 118.252 39.7239 118.39C40.3681 118.206 40.9586 118.16 41.6565 118.16Z" fill="#1D2088"/>
<path d="M50.138 123.865C50.138 123.865 50.138 123.911 50.138 123.957L50.1917 123.911C50.1917 123.865 50.1917 123.819 50.138 123.865Z" fill="#1D2088"/>
<path d="M46.3267 119.31L46.4341 119.172L46.273 119.264L46.3267 119.31Z" fill="#1D2088"/>
<path d="M45.3068 118.804L45.4678 118.666C45.4141 118.666 45.4141 118.62 45.3604 118.62L45.1994 118.758C45.2531 118.804 45.2531 118.804 45.3068 118.804Z" fill="#1D2088"/>
<path d="M46.4341 119.172C46.112 118.988 45.7899 118.85 45.4678 118.712L45.3068 118.85C45.6825 118.988 46.0046 119.126 46.3267 119.31L46.4341 119.172Z" fill="#1D2088"/>
<path d="M47.8297 120.276C48.1518 120.552 48.4202 120.828 48.6886 121.15L48.7423 121.104C48.4739 120.782 48.2055 120.506 47.8834 120.23L47.8297 120.276Z" fill="#1D2088"/>
<path d="M49.6012 122.531L49.6549 122.485C49.6549 122.485 49.6549 122.439 49.6012 122.439V122.531Z" fill="#1D2088"/>
<path d="M50.138 123.865C50.0844 123.543 49.977 123.221 49.8696 122.945C49.816 122.807 49.7623 122.669 49.7086 122.531C49.7086 122.531 49.7086 122.531 49.7086 122.485L49.6549 122.531C49.816 122.945 49.977 123.405 50.138 123.865Z" fill="#1D2088"/>
<path d="M45.4678 136.15L44.6626 135.506L41.7101 138.037H43.2669L45.4678 136.15Z" fill="#1D2088"/>
<path d="M47.4003 138.451L47.8298 138.083L46.8635 137.255L45.9509 138.037H47.4003V138.451Z" fill="#1D2088"/>
<path d="M48.3129 141.534L47.4003 140.751V142.316L48.3129 141.534Z" fill="#1D2088"/>
<path d="M39.7239 150.184V149.954L38.0061 146.181L37.2009 145.491L37.523 145.215L34.7853 139.233V152.761V153.221C34.7853 153.635 34.6779 154.003 34.5706 154.371C34.6242 154.371 34.6779 154.417 34.7853 154.417C37.5767 154.417 39.7239 152.531 39.7239 150.184Z" fill="white"/>
<path d="M14.7623 153.727C15.4601 160.859 22.3313 166.334 30.7592 166.334C34.7853 166.334 38.4356 165.046 41.2807 162.976C39.6166 163.482 37.8451 163.758 35.9663 163.758C28.3972 163.758 18.5736 160.951 14.7623 153.727Z" fill="white"/>
<path d="M45.6825 138.267H42.9985L38.6503 141.948L37.8988 141.304L41.4417 138.267H34.839V139.233L37.5767 145.215L45.6825 138.267Z" fill="white"/>
<path d="M38.1672 146.319L38.0061 146.181L39.7239 149.954V150.184C39.7239 152.531 37.523 154.417 34.7853 154.417C34.7316 154.417 34.6779 154.371 34.5706 154.371C33.9801 156.212 32.1012 157.684 29.5782 157.684C26.5721 157.684 24.3712 155.798 24.3712 152.991H14.6549C14.6549 153.221 14.7623 153.451 14.7623 153.727C18.5736 160.951 28.4509 163.758 35.9126 163.758C37.7914 163.758 39.5629 163.436 41.227 162.929C44.5015 160.491 46.6488 156.994 46.8098 152.991V142.776L43.2132 145.859L42.1396 144.939L46.8098 140.936V138.865L38.1672 146.319Z" fill="white"/>
<path d="M38.6503 141.948L42.9985 138.267H41.4417L37.8988 141.304L38.6503 141.948Z" fill="#1D2088"/>
<path d="M37.2009 145.491L38.0061 146.181L37.5767 145.215L37.2009 145.491Z" fill="#1D2088"/>
<path d="M38.0061 146.181L38.1672 146.319L46.8098 138.911V138.267H45.6825L37.5767 145.215L38.0061 146.181Z" fill="#1D2088"/>
<path d="M43.2132 145.905L46.8098 142.822V140.982L42.1932 144.985L43.2132 145.905Z" fill="#1D2088"/>
<path d="M30.7055 166.564C21.8482 166.564 14.977 160.767 14.4402 153.221C14.3328 152.991 14.1718 152.807 14.0644 152.577C14.3328 160.307 21.4187 166.794 30.7055 166.794C35.2147 166.794 39.3482 165.184 42.3543 162.653C42.1933 162.699 41.9785 162.745 41.8175 162.791C38.9187 165.138 35.0537 166.564 30.7055 166.564Z" fill="#1D2088"/>
<path d="M34.6779 153.037L34.6242 152.761V138.773L34.3022 138.037V152.761L34.5706 153.221C34.5706 153.589 34.4095 153.957 34.3022 154.279C34.3558 154.279 34.4095 154.279 34.4095 154.325C34.5706 153.911 34.6779 153.497 34.6779 153.037Z" fill="#1D2088"/>
<path d="M14.4402 152.853H24.6933C24.5859 153.451 24.908 157.5 29.6319 157.5C31.8328 157.5 33.7653 156.074 34.4095 154.325C34.3558 154.325 34.3022 154.325 34.3022 154.279C33.7117 155.89 31.8865 157.178 29.6319 157.178C26.8942 157.178 24.7469 155.291 24.7469 153.175V152.531H14.1181C14.2255 152.761 14.3865 152.945 14.4939 153.175C14.4939 153.129 14.4402 152.991 14.4402 152.853Z" fill="#1D2088"/>
<path d="M45.8436 138.083L45.9509 138.037H43.2669L43.1595 138.083H45.8436Z" fill="#1D2088"/>
<path d="M47.4003 142.316L47.0245 142.638V152.761C46.8635 156.764 44.8773 160.307 41.8175 162.791C41.9785 162.745 42.1932 162.699 42.3543 162.653C45.3604 160.123 47.2393 156.626 47.4003 152.761V142.316Z" fill="#1D2088"/>
<path d="M34.6242 138.083H41.6564L41.7101 138.037H34.3022L34.6242 138.773V138.083Z" fill="#1D2088"/>
<path d="M47.0245 140.844L47.2393 140.66L47.4003 140.752V138.451L47.0245 138.727V140.844Z" fill="#1D2088"/>
<path d="M43.1595 138.083L43.2669 138.037H41.7101L41.6564 138.083H43.1595Z" fill="#1D2088"/>
<path d="M47.0245 138.083V138.727L47.4003 138.451V138.037H45.9509L45.8972 138.083H47.0245Z" fill="#1D2088"/>
<path d="M47.0245 140.843V142.638L47.4003 142.362V140.751L47.2393 140.659L47.0245 140.843Z" fill="#1D2088"/>
<path d="M30.7055 166.334C22.2776 166.334 15.4064 160.859 14.7086 153.727C14.6012 153.543 14.4939 153.405 14.4402 153.221C14.9233 160.721 21.8482 166.565 30.7055 166.565C35.0537 166.565 38.865 165.138 41.7638 162.791C41.6028 162.838 41.388 162.884 41.227 162.93C38.4356 165.046 34.7853 166.334 30.7055 166.334Z" fill="#1D2088"/>
<path d="M34.839 153.221V152.761V139.233L34.6242 138.819V152.761L34.6779 153.037C34.6779 153.497 34.5706 153.911 34.4095 154.325C34.5169 154.325 34.5706 154.371 34.6242 154.371C34.7316 154.003 34.839 153.635 34.839 153.221Z" fill="#1D2088"/>
<path d="M46.8098 140.982L47.0245 140.844V138.727L46.8098 138.911V140.982Z" fill="#1D2088"/>
<path d="M14.6549 152.991H24.4785C24.4785 155.798 26.6794 157.684 29.6856 157.684C32.2086 157.684 34.0874 156.212 34.6779 154.371C34.6242 154.371 34.5169 154.325 34.4632 154.325C33.819 156.12 31.8328 157.5 29.6319 157.5C24.908 157.5 24.5322 153.451 24.6933 152.853H14.4402C14.4402 152.991 14.4939 153.129 14.4939 153.267C14.5475 153.451 14.6549 153.589 14.7623 153.773C14.7086 153.497 14.6549 153.267 14.6549 152.991Z" fill="#1D2088"/>
<path d="M46.8098 152.991C46.6488 156.994 44.5015 160.537 41.227 162.929C41.388 162.883 41.6028 162.837 41.7638 162.791C44.8773 160.307 46.8635 156.764 46.9709 152.761V142.638L46.7561 142.822V152.991H46.8098Z" fill="#1D2088"/>
<path d="M45.6825 138.267L45.8436 138.083H43.1595L42.9985 138.267H45.6825Z" fill="#1D2088"/>
<path d="M34.839 138.267H41.4417L41.6028 138.083H34.6242V138.773L34.839 139.233V138.267Z" fill="#1D2088"/>
<path d="M42.9985 138.267L43.1595 138.083H41.6564L41.4417 138.267H42.9985Z" fill="#1D2088"/>
<path d="M46.8098 138.267V138.911L47.0246 138.727V138.083H45.8436L45.6825 138.267H46.8098Z" fill="#1D2088"/>
<path d="M46.8098 140.982V142.822L47.0245 142.638V140.844L46.8098 140.982Z" fill="#1D2088"/>
</svg>
