<svg width="230" height="224" viewBox="0 0 230 224" fill="none" xmlns="http://www.w3.org/2000/svg">
<path d="M199.38 126.228C199.38 125.575 199.169 125.085 198.745 124.759C198.322 124.432 197.687 124.269 196.841 124.269H190.667C189.821 124.269 189.186 124.432 188.762 124.759C188.339 125.085 188.127 125.575 188.127 126.228C188.127 126.88 188.339 127.329 188.762 127.655C189.186 127.982 189.821 128.145 190.667 128.145H191.972V139.691C191.972 140.67 192.114 141.404 192.396 141.894C192.678 142.383 193.137 142.628 193.736 142.628C194.336 142.628 194.795 142.383 195.077 141.894C195.359 141.404 195.5 140.67 195.5 139.691V128.104H196.805C197.652 128.104 198.287 127.941 198.71 127.615C199.169 127.329 199.38 126.84 199.38 126.228Z" fill="#231815"/>
<path d="M199.38 126.228C199.38 125.575 199.169 125.085 198.745 124.759C198.322 124.432 197.687 124.269 196.841 124.269H190.667C189.821 124.269 189.186 124.432 188.762 124.759C188.339 125.085 188.127 125.575 188.127 126.228C188.127 126.88 188.339 127.329 188.762 127.655C189.186 127.982 189.821 128.145 190.667 128.145H191.972V139.691C191.972 140.67 192.114 141.404 192.396 141.894C192.678 142.383 193.137 142.628 193.736 142.628C194.336 142.628 194.795 142.383 195.077 141.894C195.359 141.404 195.5 140.67 195.5 139.691V128.104H196.805C197.652 128.104 198.287 127.941 198.71 127.615C199.169 127.329 199.38 126.84 199.38 126.228Z" fill="#231815"/>
<path d="M91.9647 125.534C91.365 125.085 90.6948 124.8 89.954 124.596C89.1779 124.392 88.296 124.269 87.3083 124.269H84.4509C83.5337 124.269 82.8987 124.473 82.546 124.881C82.1579 125.289 81.9816 126.064 81.9816 127.166V139.772C81.9816 140.751 82.1579 141.445 82.5107 141.812C82.8635 142.179 83.4984 142.383 84.4156 142.383H87.661C90.0245 142.383 91.8941 141.567 93.2346 139.895C94.6104 138.222 95.2807 135.978 95.2807 133.163C95.2807 131.572 94.9984 130.103 94.3987 128.757C93.8343 127.37 93.023 126.309 91.9647 125.534ZM90.3773 137.202C89.6718 138.1 88.6135 138.548 87.1672 138.548H85.5445V128.104H87.0966C88.5429 128.104 89.6012 128.512 90.342 129.328C91.0475 130.144 91.4356 131.409 91.4356 133.082C91.4356 134.917 91.0828 136.305 90.3773 137.202Z" fill="#231815"/>
<path d="M91.9647 125.534C91.365 125.085 90.6948 124.8 89.954 124.596C89.1779 124.392 88.296 124.269 87.3083 124.269H84.4509C83.5337 124.269 82.8987 124.473 82.546 124.881C82.1579 125.289 81.9816 126.064 81.9816 127.166V139.772C81.9816 140.751 82.1579 141.445 82.5107 141.812C82.8635 142.179 83.4984 142.383 84.4156 142.383H87.661C90.0245 142.383 91.8941 141.567 93.2346 139.895C94.6104 138.222 95.2807 135.978 95.2807 133.163C95.2807 131.572 94.9984 130.103 94.3987 128.757C93.8343 127.37 93.023 126.309 91.9647 125.534ZM90.3773 137.202C89.6718 138.1 88.6135 138.548 87.1672 138.548H85.5445V128.104H87.0966C88.5429 128.104 89.6012 128.512 90.342 129.328C91.0475 130.144 91.4356 131.409 91.4356 133.082C91.4356 134.917 91.0828 136.305 90.3773 137.202Z" fill="#231815"/>
<path d="M210.281 125.534C209.681 125.085 209.011 124.8 208.27 124.596C207.494 124.392 206.612 124.269 205.624 124.269H202.767C201.85 124.269 201.215 124.473 200.862 124.881C200.509 125.289 200.333 126.064 200.333 127.166V139.772C200.333 140.751 200.509 141.445 200.827 141.812C201.179 142.179 201.814 142.383 202.732 142.383H205.977C208.34 142.383 210.21 141.567 211.551 139.895C212.926 138.222 213.597 135.978 213.597 133.163C213.597 131.572 213.279 130.103 212.715 128.757C212.115 127.37 211.304 126.309 210.281 125.534ZM208.693 137.202C207.988 138.1 206.929 138.548 205.518 138.548H203.896V128.104H205.448C206.894 128.104 207.952 128.512 208.693 129.328C209.399 130.144 209.752 131.409 209.752 133.082C209.752 134.917 209.399 136.305 208.693 137.202Z" fill="#231815"/>
<path d="M210.281 125.534C209.681 125.085 209.011 124.8 208.27 124.596C207.494 124.392 206.612 124.269 205.624 124.269H202.767C201.85 124.269 201.215 124.473 200.862 124.881C200.509 125.289 200.333 126.064 200.333 127.166V139.772C200.333 140.751 200.509 141.445 200.827 141.812C201.179 142.179 201.814 142.383 202.732 142.383H205.977C208.34 142.383 210.21 141.567 211.551 139.895C212.926 138.222 213.597 135.978 213.597 133.163C213.597 131.572 213.279 130.103 212.715 128.757C212.115 127.37 211.304 126.309 210.281 125.534ZM208.693 137.202C207.988 138.1 206.929 138.548 205.518 138.548H203.896V128.104H205.448C206.894 128.104 207.952 128.512 208.693 129.328C209.399 130.144 209.752 131.409 209.752 133.082C209.752 134.917 209.399 136.305 208.693 137.202Z" fill="#231815"/>
<path d="M109.497 139.405L105.546 126.431C105.299 125.656 104.946 125.085 104.523 124.636C104.064 124.228 103.535 124.024 102.936 124.024C102.301 124.024 101.736 124.228 101.313 124.677C100.89 125.126 100.502 125.779 100.219 126.717L96.1626 139.487C96.092 139.65 96.0568 139.813 96.0215 140.017C95.9862 140.221 95.9862 140.425 95.9862 140.67C95.9862 141.241 96.1273 141.731 96.4448 142.098C96.7623 142.465 97.1503 142.669 97.6795 142.669C98.0675 142.669 98.4202 142.506 98.7025 142.179C98.9847 141.853 99.2316 141.404 99.408 140.792L99.9371 138.956H105.722L106.181 140.629C106.357 141.323 106.604 141.812 106.922 142.139C107.239 142.465 107.592 142.628 108.086 142.628C108.615 142.628 109.003 142.465 109.356 142.098C109.673 141.731 109.85 141.282 109.85 140.711C109.85 140.547 109.85 140.343 109.779 140.139C109.603 139.935 109.567 139.691 109.497 139.405ZM100.89 135.162L102.83 128.471L104.629 135.162H100.89Z" fill="#231815"/>
<path d="M109.497 139.405L105.546 126.431C105.299 125.656 104.946 125.085 104.523 124.636C104.064 124.228 103.535 124.024 102.936 124.024C102.301 124.024 101.736 124.228 101.313 124.677C100.89 125.126 100.502 125.779 100.219 126.717L96.1626 139.487C96.092 139.65 96.0568 139.813 96.0215 140.017C95.9862 140.221 95.9862 140.425 95.9862 140.67C95.9862 141.241 96.1273 141.731 96.4448 142.098C96.7623 142.465 97.1503 142.669 97.6795 142.669C98.0675 142.669 98.4202 142.506 98.7025 142.179C98.9847 141.853 99.2316 141.404 99.408 140.792L99.9371 138.956H105.722L106.181 140.629C106.357 141.323 106.604 141.812 106.922 142.139C107.239 142.465 107.592 142.628 108.086 142.628C108.615 142.628 109.003 142.465 109.356 142.098C109.673 141.731 109.85 141.282 109.85 140.711C109.85 140.547 109.85 140.343 109.779 140.139C109.603 139.935 109.567 139.691 109.497 139.405ZM100.89 135.162L102.83 128.471L104.629 135.162H100.89Z" fill="#231815"/>
<path d="M60.9218 142.587C61.5215 142.587 61.9801 142.343 62.2623 141.853C62.5798 141.363 62.7209 140.629 62.7209 139.65V126.962C62.7209 125.983 62.5798 125.248 62.2623 124.759C61.9801 124.269 61.5215 124.024 60.9218 124.024C60.3221 124.024 59.8635 124.269 59.5813 124.759C59.2991 125.248 59.1227 125.983 59.1227 126.962V139.65C59.1227 140.629 59.2638 141.363 59.5813 141.853C59.8635 142.343 60.3221 142.587 60.9218 142.587Z" fill="#231815"/>
<path d="M60.9218 142.587C61.5215 142.587 61.9801 142.343 62.2623 141.853C62.5798 141.363 62.7209 140.629 62.7209 139.65V126.962C62.7209 125.983 62.5798 125.248 62.2623 124.759C61.9801 124.269 61.5215 124.024 60.9218 124.024C60.3221 124.024 59.8635 124.269 59.5813 124.759C59.2991 125.248 59.1227 125.983 59.1227 126.962V139.65C59.1227 140.629 59.2638 141.363 59.5813 141.853C59.8635 142.343 60.3221 142.587 60.9218 142.587Z" fill="#231815"/>
<path d="M54.5368 124.065C53.9371 124.065 53.4785 124.31 53.1963 124.8C52.9141 125.289 52.773 126.024 52.773 127.003V135.57C52.773 136.835 52.6672 137.733 52.4908 138.181C52.3144 138.671 51.9969 138.916 51.6089 138.916C51.362 138.916 51.0092 138.753 50.5506 138.467C50.0567 138.181 49.6687 138.018 49.3512 138.018C48.8573 138.018 48.4693 138.181 48.1518 138.549C47.8696 138.916 47.6932 139.365 47.6932 139.895C47.6932 140.752 48.0813 141.445 48.8573 142.016C49.6334 142.588 50.6212 142.873 51.7853 142.873C53.2669 142.873 54.431 142.343 55.207 141.364C55.9831 140.344 56.3712 138.875 56.3712 136.876V127.003C56.3712 126.024 56.23 125.289 55.9126 124.8C55.5598 124.269 55.1365 124.065 54.5368 124.065Z" fill="#231815"/>
<path d="M54.5368 124.065C53.9371 124.065 53.4785 124.31 53.1963 124.8C52.9141 125.289 52.773 126.024 52.773 127.003V135.57C52.773 136.835 52.6672 137.733 52.4908 138.181C52.3144 138.671 51.9969 138.916 51.6089 138.916C51.362 138.916 51.0092 138.753 50.5506 138.467C50.0567 138.181 49.6687 138.018 49.3512 138.018C48.8573 138.018 48.4693 138.181 48.1518 138.549C47.8696 138.916 47.6932 139.365 47.6932 139.895C47.6932 140.752 48.0813 141.445 48.8573 142.016C49.6334 142.588 50.6212 142.873 51.7853 142.873C53.2669 142.873 54.431 142.343 55.207 141.364C55.9831 140.344 56.3712 138.875 56.3712 136.876V127.003C56.3712 126.024 56.23 125.289 55.9126 124.8C55.5598 124.269 55.1365 124.065 54.5368 124.065Z" fill="#231815"/>
<path d="M117.61 138.548H114.612V126.962C114.612 125.983 114.471 125.248 114.153 124.759C113.871 124.269 113.413 124.024 112.813 124.024C112.213 124.024 111.755 124.269 111.472 124.759C111.19 125.248 111.014 125.983 111.014 126.962V139.772C111.014 140.751 111.19 141.445 111.543 141.812C111.896 142.179 112.531 142.383 113.448 142.383H117.61C118.457 142.383 119.092 142.22 119.515 141.894C119.939 141.567 120.15 141.078 120.15 140.466C120.15 139.813 119.939 139.364 119.515 139.038C119.127 138.712 118.492 138.548 117.61 138.548Z" fill="#231815"/>
<path d="M117.61 138.548H114.612V126.962C114.612 125.983 114.471 125.248 114.153 124.759C113.871 124.269 113.413 124.024 112.813 124.024C112.213 124.024 111.755 124.269 111.472 124.759C111.19 125.248 111.014 125.983 111.014 126.962V139.772C111.014 140.751 111.19 141.445 111.543 141.812C111.896 142.179 112.531 142.383 113.448 142.383H117.61C118.457 142.383 119.092 142.22 119.515 141.894C119.939 141.567 120.15 141.078 120.15 140.466C120.15 139.813 119.939 139.364 119.515 139.038C119.127 138.712 118.492 138.548 117.61 138.548Z" fill="#231815"/>
<path d="M218.183 138.589C217.794 138.141 217.336 137.896 216.771 137.896C216.207 137.896 215.748 138.1 215.36 138.589C214.972 139.038 214.761 139.568 214.761 140.221C214.761 140.874 214.972 141.404 215.325 141.853C215.713 142.302 216.207 142.547 216.771 142.547C217.336 142.547 217.794 142.302 218.183 141.853C218.571 141.404 218.747 140.833 218.747 140.221C218.747 139.609 218.571 139.038 218.183 138.589Z" fill="#231815"/>
<path d="M218.183 138.589C217.794 138.141 217.336 137.896 216.771 137.896C216.207 137.896 215.748 138.1 215.36 138.589C214.972 139.038 214.761 139.568 214.761 140.221C214.761 140.874 214.972 141.404 215.325 141.853C215.713 142.302 216.207 142.547 216.771 142.547C217.336 142.547 217.794 142.302 218.183 141.853C218.571 141.404 218.747 140.833 218.747 140.221C218.747 139.609 218.571 139.038 218.183 138.589Z" fill="#231815"/>
<path d="M189.468 141.894C189.891 141.568 190.103 141.078 190.103 140.466C190.103 139.813 189.891 139.365 189.468 139.038C189.044 138.712 188.41 138.589 187.563 138.589H184.564V127.003C184.564 126.024 184.423 125.289 184.106 124.8C183.824 124.31 183.365 124.065 182.765 124.065C182.166 124.065 181.707 124.31 181.425 124.8C181.143 125.289 180.966 126.024 180.966 127.003V139.813C180.966 140.792 181.143 141.486 181.495 141.853C181.848 142.22 182.483 142.384 183.4 142.384H187.563C188.41 142.343 189.044 142.22 189.468 141.894Z" fill="#231815"/>
<path d="M189.468 141.894C189.891 141.568 190.103 141.078 190.103 140.466C190.103 139.813 189.891 139.365 189.468 139.038C189.044 138.712 188.41 138.589 187.563 138.589H184.564V127.003C184.564 126.024 184.423 125.289 184.106 124.8C183.824 124.31 183.365 124.065 182.765 124.065C182.166 124.065 181.707 124.31 181.425 124.8C181.143 125.289 180.966 126.024 180.966 127.003V139.813C180.966 140.792 181.143 141.486 181.495 141.853C181.848 142.22 182.483 142.384 183.4 142.384H187.563C188.41 142.343 189.044 142.22 189.468 141.894Z" fill="#231815"/>
<path d="M76.5491 142.343C76.8666 142.588 77.2193 142.71 77.6074 142.71C78.1718 142.71 78.5951 142.506 78.842 142.098C79.1242 141.69 79.2301 141.037 79.2301 140.14V127.003C79.2301 126.024 79.089 125.289 78.7715 124.8C78.4893 124.31 78.0307 124.065 77.431 124.065C76.8313 124.065 76.3727 124.31 76.0905 124.8C75.773 125.289 75.6319 126.024 75.6319 127.003V135.448L69.0705 125.412C68.7531 124.922 68.4356 124.596 68.1534 124.392C67.8712 124.188 67.5537 124.065 67.1656 124.065C66.6012 124.065 66.1779 124.269 65.931 124.759C65.6488 125.208 65.5077 125.901 65.5077 126.84V139.691C65.5077 140.67 65.6488 141.404 65.9662 141.894C66.2485 142.384 66.707 142.628 67.3067 142.628C67.9064 142.628 68.365 142.384 68.6472 141.894C68.9294 141.404 69.0705 140.67 69.0705 139.691V131.368L75.5261 141.2C75.9141 141.731 76.2316 142.098 76.5491 142.343Z" fill="#231815"/>
<path d="M76.5491 142.343C76.8666 142.588 77.2193 142.71 77.6074 142.71C78.1718 142.71 78.5951 142.506 78.842 142.098C79.1242 141.69 79.2301 141.037 79.2301 140.14V127.003C79.2301 126.024 79.089 125.289 78.7715 124.8C78.4893 124.31 78.0307 124.065 77.431 124.065C76.8313 124.065 76.3727 124.31 76.0905 124.8C75.773 125.289 75.6319 126.024 75.6319 127.003V135.448L69.0705 125.412C68.7531 124.922 68.4356 124.596 68.1534 124.392C67.8712 124.188 67.5537 124.065 67.1656 124.065C66.6012 124.065 66.1779 124.269 65.931 124.759C65.6488 125.208 65.5077 125.901 65.5077 126.84V139.691C65.5077 140.67 65.6488 141.404 65.9662 141.894C66.2485 142.384 66.707 142.628 67.3067 142.628C67.9064 142.628 68.365 142.384 68.6472 141.894C68.9294 141.404 69.0705 140.67 69.0705 139.691V131.368L75.5261 141.2C75.9141 141.731 76.2316 142.098 76.5491 142.343Z" fill="#231815"/>
<path d="M172.394 126.554C172.429 126.35 172.429 126.146 172.429 125.983C172.429 125.412 172.253 124.963 171.936 124.596C171.618 124.228 171.195 124.065 170.666 124.065C170.137 124.065 169.748 124.228 169.466 124.555C169.184 124.881 168.972 125.412 168.867 126.146L166.997 137.365L164.422 125.86C164.281 125.248 164.069 124.8 163.752 124.514C163.434 124.228 163.011 124.065 162.517 124.065C161.988 124.065 161.564 124.228 161.247 124.473C160.894 124.759 160.683 125.208 160.541 125.779L157.931 137.324L156.061 125.82C155.991 125.248 155.779 124.8 155.497 124.473C155.215 124.147 154.827 124.024 154.368 124.024C153.839 124.024 153.38 124.188 153.063 124.514C152.745 124.881 152.569 125.33 152.569 125.901C152.569 126.146 152.569 126.35 152.569 126.472C152.569 126.595 152.569 126.717 152.604 126.799L155.215 139.854C155.391 140.833 155.709 141.527 156.061 141.975C156.449 142.383 156.979 142.587 157.649 142.587C158.319 142.587 158.883 142.383 159.307 141.935C159.73 141.486 160.048 140.874 160.224 140.058L162.446 129.981L164.775 140.303C164.951 141.119 165.233 141.69 165.621 142.057C166.009 142.424 166.503 142.628 167.173 142.628C167.879 142.628 168.408 142.465 168.761 142.098C169.114 141.731 169.396 140.996 169.643 139.935L172.359 127.247C172.324 126.962 172.359 126.758 172.394 126.554Z" fill="#231815"/>
<path d="M172.394 126.554C172.429 126.35 172.429 126.146 172.429 125.983C172.429 125.412 172.253 124.963 171.936 124.596C171.618 124.228 171.195 124.065 170.666 124.065C170.137 124.065 169.748 124.228 169.466 124.555C169.184 124.881 168.972 125.412 168.867 126.146L166.997 137.365L164.422 125.86C164.281 125.248 164.069 124.8 163.752 124.514C163.434 124.228 163.011 124.065 162.517 124.065C161.988 124.065 161.564 124.228 161.247 124.473C160.894 124.759 160.683 125.208 160.541 125.779L157.931 137.324L156.061 125.82C155.991 125.248 155.779 124.8 155.497 124.473C155.215 124.147 154.827 124.024 154.368 124.024C153.839 124.024 153.38 124.188 153.063 124.514C152.745 124.881 152.569 125.33 152.569 125.901C152.569 126.146 152.569 126.35 152.569 126.472C152.569 126.595 152.569 126.717 152.604 126.799L155.215 139.854C155.391 140.833 155.709 141.527 156.061 141.975C156.449 142.383 156.979 142.587 157.649 142.587C158.319 142.587 158.883 142.383 159.307 141.935C159.73 141.486 160.048 140.874 160.224 140.058L162.446 129.981L164.775 140.303C164.951 141.119 165.233 141.69 165.621 142.057C166.009 142.424 166.503 142.628 167.173 142.628C167.879 142.628 168.408 142.465 168.761 142.098C169.114 141.731 169.396 140.996 169.643 139.935L172.359 127.247C172.324 126.962 172.359 126.758 172.394 126.554Z" fill="#231815"/>
<path d="M152.604 139.405L148.653 126.431C148.406 125.656 148.054 125.085 147.63 124.636C147.172 124.228 146.678 124.024 146.043 124.024C145.408 124.024 144.844 124.228 144.42 124.677C143.997 125.126 143.609 125.779 143.327 126.717L139.27 139.487C139.199 139.65 139.164 139.813 139.129 140.017C139.094 140.221 139.094 140.425 139.094 140.67C139.094 141.241 139.27 141.731 139.587 142.098C139.905 142.465 140.293 142.669 140.787 142.669C141.175 142.669 141.528 142.506 141.81 142.179C142.092 141.853 142.339 141.404 142.515 140.792L143.044 138.956H148.83L149.253 140.629C149.429 141.323 149.676 141.812 149.959 142.139C150.276 142.465 150.629 142.628 151.123 142.628C151.617 142.628 152.075 142.465 152.393 142.098C152.71 141.731 152.887 141.282 152.887 140.711C152.887 140.547 152.887 140.343 152.816 140.139C152.71 139.935 152.675 139.691 152.604 139.405ZM143.997 135.162L145.937 128.471L147.736 135.162H143.997Z" fill="#231815"/>
<path d="M152.604 139.405L148.653 126.431C148.406 125.656 148.054 125.085 147.63 124.636C147.172 124.228 146.678 124.024 146.043 124.024C145.408 124.024 144.844 124.228 144.42 124.677C143.997 125.126 143.609 125.779 143.327 126.717L139.27 139.487C139.199 139.65 139.164 139.813 139.129 140.017C139.094 140.221 139.094 140.425 139.094 140.67C139.094 141.241 139.27 141.731 139.587 142.098C139.905 142.465 140.293 142.669 140.787 142.669C141.175 142.669 141.528 142.506 141.81 142.179C142.092 141.853 142.339 141.404 142.515 140.792L143.044 138.956H148.83L149.253 140.629C149.429 141.323 149.676 141.812 149.959 142.139C150.276 142.465 150.629 142.628 151.123 142.628C151.617 142.628 152.075 142.465 152.393 142.098C152.71 141.731 152.887 141.282 152.887 140.711C152.887 140.547 152.887 140.343 152.816 140.139C152.71 139.935 152.675 139.691 152.604 139.405ZM143.997 135.162L145.937 128.471L147.736 135.162H143.997Z" fill="#231815"/>
<path d="M134.296 131.287C134.12 131.205 133.873 131.123 133.555 131.001C132.179 130.511 131.474 129.899 131.474 129.124C131.474 128.675 131.615 128.267 131.933 127.982C132.25 127.696 132.673 127.574 133.202 127.574C133.52 127.574 134.014 127.656 134.649 127.9C135.284 128.104 135.742 128.227 136.025 128.227C136.518 128.227 136.942 128.064 137.189 127.778C137.471 127.492 137.612 127.044 137.612 126.513C137.612 125.738 137.224 125.126 136.413 124.596C135.601 124.106 134.578 123.821 133.344 123.821C131.65 123.821 130.31 124.351 129.252 125.412C128.193 126.472 127.664 127.86 127.664 129.532C127.664 130.838 127.982 131.898 128.652 132.633C129.322 133.408 130.451 134.061 132.074 134.632C133.202 135.04 133.943 135.407 134.296 135.733C134.649 136.101 134.825 136.549 134.825 137.121C134.825 137.651 134.649 138.1 134.331 138.467C134.014 138.834 133.59 138.997 133.097 138.997C132.497 138.997 131.791 138.834 130.945 138.548C130.098 138.222 129.534 138.1 129.287 138.1C128.758 138.1 128.334 138.263 128.017 138.589C127.699 138.916 127.558 139.364 127.558 139.936C127.558 140.711 128.052 141.404 129.04 141.975C130.028 142.547 131.227 142.832 132.603 142.832C134.437 142.832 135.883 142.261 136.977 141.16C138.106 140.017 138.67 138.548 138.67 136.753C138.67 135.448 138.317 134.346 137.647 133.449C136.871 132.592 135.778 131.858 134.296 131.287Z" fill="#231815"/>
<path d="M134.296 131.287C134.12 131.205 133.873 131.123 133.555 131.001C132.179 130.511 131.474 129.899 131.474 129.124C131.474 128.675 131.615 128.267 131.933 127.982C132.25 127.696 132.673 127.574 133.202 127.574C133.52 127.574 134.014 127.656 134.649 127.9C135.284 128.104 135.742 128.227 136.025 128.227C136.518 128.227 136.942 128.064 137.189 127.778C137.471 127.492 137.612 127.044 137.612 126.513C137.612 125.738 137.224 125.126 136.413 124.596C135.601 124.106 134.578 123.821 133.344 123.821C131.65 123.821 130.31 124.351 129.252 125.412C128.193 126.472 127.664 127.86 127.664 129.532C127.664 130.838 127.982 131.898 128.652 132.633C129.322 133.408 130.451 134.061 132.074 134.632C133.202 135.04 133.943 135.407 134.296 135.733C134.649 136.101 134.825 136.549 134.825 137.121C134.825 137.651 134.649 138.1 134.331 138.467C134.014 138.834 133.59 138.997 133.097 138.997C132.497 138.997 131.791 138.834 130.945 138.548C130.098 138.222 129.534 138.1 129.287 138.1C128.758 138.1 128.334 138.263 128.017 138.589C127.699 138.916 127.558 139.364 127.558 139.936C127.558 140.711 128.052 141.404 129.04 141.975C130.028 142.547 131.227 142.832 132.603 142.832C134.437 142.832 135.883 142.261 136.977 141.16C138.106 140.017 138.67 138.548 138.67 136.753C138.67 135.448 138.317 134.346 137.647 133.449C136.871 132.592 135.778 131.858 134.296 131.287Z" fill="#231815"/>
<path d="M66.954 150.747H69.1764V159.233H70.411V150.747H72.5982V149.482H66.954V150.747Z" fill="#231815"/>
<path d="M66.954 150.747H69.1764V159.233H70.411V150.747H72.5982V149.482H66.954V150.747Z" fill="#231815"/>
<path d="M123.36 154.786H126.218V153.562H123.36V150.706H126.394V149.482H122.126V159.233H126.606V158.009H123.36V154.786Z" fill="#231815"/>
<path d="M123.36 154.786H126.218V153.562H123.36V150.706H126.394V149.482H122.126V159.233H126.606V158.009H123.36V154.786Z" fill="#231815"/>
<path d="M154.156 149.482H152.922V159.233H157.331V158.009H154.156V149.482Z" fill="#231815"/>
<path d="M154.156 149.482H152.922V159.233H157.331V158.009H154.156V149.482Z" fill="#231815"/>
<path d="M78.2776 149.482L75.773 159.233H77.0429L77.7485 156.377H80.2531L80.9939 159.233H82.2991L79.7945 149.482H78.2776ZM77.9601 155.235L78.6304 152.664C78.7715 152.052 78.8773 151.359 79.0184 150.747H79.0537C79.1595 151.359 79.3006 152.052 79.4417 152.664L80.0767 155.235H77.9601Z" fill="#231815"/>
<path d="M78.2776 149.482L75.773 159.233H77.0429L77.7485 156.377H80.2531L80.9939 159.233H82.2991L79.7945 149.482H78.2776ZM77.9601 155.235L78.6304 152.664C78.7715 152.052 78.8773 151.359 79.0184 150.747H79.0537C79.1595 151.359 79.3006 152.052 79.4417 152.664L80.0767 155.235H77.9601Z" fill="#231815"/>
<path d="M165.974 155.398C165.974 157.356 165.339 158.172 164.316 158.172C163.364 158.172 162.693 157.356 162.693 155.398V149.482H161.459V155.316C161.459 158.213 162.587 159.396 164.281 159.396C166.009 159.396 167.244 158.172 167.244 155.275V149.482H166.009V155.398H165.974Z" fill="#231815"/>
<path d="M165.974 155.398C165.974 157.356 165.339 158.172 164.316 158.172C163.363 158.172 162.693 157.356 162.693 155.398V149.482H161.459V155.316C161.459 158.213 162.587 159.396 164.281 159.396C166.009 159.396 167.244 158.172 167.244 155.275V149.482H166.009V155.398H165.974Z" fill="#231815"/>
<path d="M47.3052 150.747H49.4923V159.233H50.7623V150.747H52.9847V149.482H47.3052V150.747Z" fill="#231815"/>
<path d="M47.3052 150.747H49.4924V159.233H50.7623V150.747H52.9847V149.482H47.3052V150.747Z" fill="#231815"/>
<path d="M87.7316 149.482H86.4969V159.233H90.8712V158.009H87.7316V149.482Z" fill="#231815"/>
<path d="M87.7315 149.482H86.4969V159.233H90.8711V158.009H87.7315V149.482Z" fill="#231815"/>
<path d="M171.16 150.747H173.382V159.233H174.617V150.747H176.804V149.482H171.16V150.747Z" fill="#231815"/>
<path d="M171.159 150.747H173.382V159.233H174.617V150.747H176.804V149.482H171.159V150.747Z" fill="#231815"/>
<path d="M60.0399 149.36C57.9586 149.36 56.5123 151.359 56.5123 154.419C56.5123 157.356 57.8528 159.355 59.934 159.355C61.9095 159.355 63.4617 157.642 63.4617 154.256C63.4264 151.481 62.1917 149.36 60.0399 149.36ZM59.9693 158.172C58.5583 158.172 57.8175 156.377 57.8175 154.378C57.8175 152.46 58.4877 150.584 60.0046 150.584C61.4509 150.584 62.1564 152.501 62.1564 154.337C62.1212 156.418 61.3804 158.172 59.9693 158.172Z" fill="#231815"/>
<path d="M60.0399 149.36C57.9586 149.36 56.5123 151.359 56.5123 154.419C56.5123 157.356 57.8528 159.355 59.934 159.355C61.9095 159.355 63.4617 157.642 63.4617 154.256C63.4264 151.481 62.1917 149.36 60.0399 149.36ZM59.9693 158.172C58.5583 158.172 57.8175 156.377 57.8175 154.378C57.8175 152.46 58.4877 150.584 60.0046 150.584C61.4509 150.584 62.1564 152.501 62.1564 154.337C62.1212 156.418 61.3804 158.172 59.9693 158.172Z" fill="#231815"/>
<path d="M114.824 149.441C113.977 149.441 113.342 149.523 112.848 149.645V159.274H114.083V155.439C114.294 155.479 114.506 155.52 114.788 155.52C116.27 155.52 117.857 154.704 117.857 152.338C117.857 151.44 117.575 150.706 117.117 150.257C116.587 149.686 115.811 149.441 114.824 149.441ZM114.753 154.296C114.471 154.296 114.224 154.296 114.048 154.215V150.665C114.224 150.625 114.506 150.584 114.894 150.584C115.882 150.584 116.552 151.196 116.552 152.379C116.552 153.603 115.882 154.296 114.753 154.296Z" fill="#231815"/>
<path d="M114.824 149.441C113.977 149.441 113.342 149.523 112.848 149.645V159.274H114.083V155.439C114.294 155.479 114.506 155.52 114.788 155.52C116.27 155.52 117.857 154.704 117.857 152.338C117.857 151.44 117.575 150.706 117.117 150.257C116.587 149.686 115.811 149.441 114.824 149.441ZM114.753 154.296C114.471 154.296 114.224 154.296 114.048 154.215V150.665C114.224 150.625 114.506 150.584 114.894 150.584C115.882 150.584 116.552 151.196 116.552 152.379C116.552 153.603 115.882 154.296 114.753 154.296Z" fill="#231815"/>
<path d="M202.308 153.072C202.308 154.623 202.344 155.887 202.449 157.193H202.414C202.061 156.173 201.603 155.031 201.074 153.97L198.922 149.441H197.581V159.192H198.71V155.561C198.71 153.848 198.675 152.583 198.64 151.359H198.675C199.063 152.46 199.557 153.603 200.051 154.663L202.202 159.233H203.437V149.482H202.308V153.072Z" fill="#231815"/>
<path d="M202.308 153.072C202.308 154.623 202.344 155.887 202.449 157.193H202.414C202.061 156.173 201.603 155.031 201.074 153.97L198.922 149.441H197.581V159.192H198.71V155.561C198.71 153.848 198.675 152.583 198.64 151.359H198.675C199.063 152.46 199.557 153.603 200.051 154.663L202.203 159.233H203.437V149.482H202.308V153.072Z" fill="#231815"/>
<path d="M182.025 149.482H180.79V159.233H182.025V149.482Z" fill="#231815"/>
<path d="M182.025 149.482H180.79V159.233H182.025V149.482Z" fill="#231815"/>
<path d="M108.086 149.482H106.851V159.233H108.086V149.482Z" fill="#231815"/>
<path d="M108.086 149.482H106.851V159.233H108.086V149.482Z" fill="#231815"/>
<path d="M189.856 149.36C187.775 149.36 186.328 151.359 186.328 154.419C186.328 157.356 187.669 159.355 189.75 159.355C191.725 159.355 193.278 157.642 193.278 154.256C193.278 151.481 192.043 149.36 189.856 149.36ZM189.821 158.172C188.41 158.172 187.669 156.377 187.669 154.378C187.669 152.46 188.339 150.584 189.856 150.584C191.302 150.584 192.008 152.501 192.008 154.337C191.972 156.418 191.232 158.172 189.821 158.172Z" fill="#231815"/>
<path d="M189.856 149.36C187.775 149.36 186.328 151.359 186.328 154.419C186.328 157.356 187.669 159.355 189.75 159.355C191.725 159.355 193.278 157.642 193.278 154.256C193.278 151.481 192.043 149.36 189.856 149.36ZM189.821 158.172C188.409 158.172 187.669 156.377 187.669 154.378C187.669 152.46 188.339 150.584 189.856 150.584C191.302 150.584 192.008 152.501 192.008 154.337C191.972 156.418 191.232 158.172 189.821 158.172Z" fill="#231815"/>
<path d="M210.704 153.644C209.646 153.113 209.222 152.705 209.222 151.889C209.222 151.277 209.61 150.584 210.598 150.584C211.268 150.584 211.798 150.829 212.044 151.033L212.362 149.809C212.009 149.564 211.41 149.36 210.633 149.36C209.011 149.36 207.988 150.502 207.988 152.053C207.988 153.358 208.799 154.256 210.034 154.827C211.021 155.316 211.445 155.806 211.445 156.663C211.445 157.56 210.88 158.131 209.928 158.131C209.258 158.131 208.587 157.887 208.164 157.56L207.882 158.784C208.27 159.11 209.081 159.355 209.857 159.355C211.692 159.355 212.715 158.131 212.715 156.499C212.644 155.194 212.009 154.337 210.704 153.644Z" fill="#231815"/>
<path d="M210.704 153.644C209.646 153.113 209.222 152.705 209.222 151.889C209.222 151.277 209.61 150.584 210.598 150.584C211.268 150.584 211.798 150.829 212.045 151.033L212.362 149.809C212.009 149.564 211.41 149.36 210.633 149.36C209.011 149.36 207.988 150.502 207.988 152.053C207.988 153.358 208.799 154.256 210.034 154.827C211.022 155.316 211.445 155.806 211.445 156.663C211.445 157.56 210.88 158.131 209.928 158.131C209.258 158.131 208.587 157.887 208.164 157.56L207.882 158.784C208.27 159.11 209.081 159.355 209.857 159.355C211.692 159.355 212.715 158.131 212.715 156.499C212.644 155.194 212.009 154.337 210.704 153.644Z" fill="#231815"/>
<path d="M135.778 153.644C134.755 153.113 134.296 152.705 134.296 151.889C134.296 151.277 134.719 150.584 135.672 150.584C136.342 150.584 136.871 150.829 137.118 151.033L137.436 149.809C137.083 149.564 136.483 149.36 135.707 149.36C134.084 149.36 133.061 150.502 133.061 152.053C133.061 153.358 133.873 154.256 135.107 154.827C136.095 155.316 136.483 155.806 136.483 156.663C136.483 157.56 135.954 158.131 134.966 158.131C134.296 158.131 133.626 157.887 133.202 157.56L132.92 158.784C133.308 159.11 134.12 159.355 134.896 159.355C136.73 159.355 137.753 158.131 137.753 156.499C137.718 155.194 137.083 154.337 135.778 153.644Z" fill="#231815"/>
<path d="M135.778 153.644C134.755 153.113 134.296 152.705 134.296 151.889C134.296 151.277 134.719 150.584 135.672 150.584C136.342 150.584 136.871 150.829 137.118 151.033L137.436 149.809C137.083 149.564 136.483 149.36 135.707 149.36C134.084 149.36 133.061 150.502 133.061 152.053C133.061 153.358 133.873 154.256 135.107 154.827C136.095 155.316 136.483 155.806 136.483 156.663C136.483 157.56 135.954 158.131 134.966 158.131C134.296 158.131 133.626 157.887 133.203 157.56L132.92 158.784C133.308 159.11 134.12 159.355 134.896 159.355C136.73 159.355 137.753 158.131 137.753 156.499C137.718 155.194 137.083 154.337 135.778 153.644Z" fill="#231815"/>
<path d="M99.4079 149.441C98.5613 149.441 97.9264 149.523 97.4325 149.645V159.274H98.6672V155.439C98.8788 155.479 99.1257 155.52 99.3727 155.52C100.854 155.52 102.442 154.704 102.442 152.338C102.442 151.44 102.159 150.706 101.701 150.257C101.172 149.686 100.431 149.441 99.4079 149.441ZM99.3374 154.296C99.0552 154.296 98.8083 154.296 98.6319 154.215V150.665C98.8083 150.625 99.0905 150.584 99.4785 150.584C100.466 150.584 101.172 151.196 101.172 152.379C101.172 153.603 100.466 154.296 99.3374 154.296Z" fill="#231815"/>
<path d="M99.4079 149.441C98.5613 149.441 97.9264 149.523 97.4325 149.645V159.274H98.6672V155.439C98.8788 155.479 99.1257 155.52 99.3727 155.52C100.854 155.52 102.442 154.704 102.442 152.338C102.442 151.44 102.159 150.706 101.701 150.257C101.172 149.686 100.431 149.441 99.4079 149.441ZM99.3374 154.296C99.0552 154.296 98.8083 154.296 98.6319 154.215V150.665C98.8083 150.625 99.0905 150.584 99.4785 150.584C100.466 150.584 101.172 151.196 101.172 152.379C101.172 153.603 100.466 154.296 99.3374 154.296Z" fill="#231815"/>
<path d="M145.196 149.36C143.115 149.36 141.669 151.359 141.669 154.419C141.669 157.356 143.009 159.355 145.09 159.355C147.066 159.355 148.618 157.642 148.618 154.256C148.583 151.481 147.348 149.36 145.196 149.36ZM145.126 158.172C143.715 158.172 142.974 156.377 142.974 154.378C142.974 152.46 143.644 150.584 145.161 150.584C146.643 150.584 147.313 152.501 147.313 154.337C147.278 156.418 146.572 158.172 145.126 158.172Z" fill="#231815"/>
<path d="M145.196 149.36C143.115 149.36 141.669 151.359 141.669 154.419C141.669 157.356 143.009 159.355 145.091 159.355C147.066 159.355 148.618 157.642 148.618 154.256C148.583 151.481 147.348 149.36 145.196 149.36ZM145.126 158.172C143.715 158.172 142.974 156.377 142.974 154.378C142.974 152.46 143.644 150.584 145.161 150.584C146.643 150.584 147.313 152.501 147.313 154.337C147.278 156.418 146.572 158.172 145.126 158.172Z" fill="#231815"/>
<path d="M30.9724 117.089C29.9494 117.946 28.7147 118.476 27.3742 118.476C25.1518 118.476 23.1058 116.967 22.0475 114.723H7.09048V149.156H36.5107V114.723H34.5C33.6181 115.906 32.4187 116.763 30.9724 117.089ZM34.5353 132.959C34.3942 138.059 31.6779 142.383 27.8328 144.219C25.8574 146.504 23.1764 147.891 20.1779 147.891C14.0751 147.891 9.41871 142.139 9.24233 135.285V135.244L12.8405 132.959H19.6488V133.163C19.6488 135.081 20.9187 136.59 22.5061 136.835C22.5767 136.509 22.6825 136.223 22.6825 135.897L22.5061 135.489V122.433L26.1043 119.945H34.5353V132.959Z" fill="#E6E6E6"/>
<path d="M30.9724 117.089C29.9494 117.946 28.7147 118.476 27.3743 118.476C25.1519 118.476 23.1059 116.967 22.0476 114.723H7.09052V149.156H36.5108V114.723H34.5C33.6181 115.906 32.4187 116.763 30.9724 117.089ZM34.5353 132.959C34.3942 138.059 31.6779 142.383 27.8328 144.219C25.8574 146.504 23.1764 147.891 20.1779 147.891C14.0752 147.891 9.41874 142.139 9.24236 135.285V135.244L12.8405 132.959H19.6488V133.163C19.6488 135.081 20.9187 136.59 22.5062 136.835C22.5767 136.509 22.6825 136.223 22.6825 135.897L22.5062 135.489V122.433L26.1043 119.945H34.5353V132.959Z" fill="#E6E6E6"/>
<path d="M16.2623 135.856C16.2623 137.733 17.7086 139.405 19.4724 139.405C20.954 139.405 22.1181 138.263 22.5414 136.835C20.9187 136.631 19.6841 135.121 19.6841 133.163V132.959H12.8405L9.24234 135.244V135.285H16.227V135.856H16.2623Z" fill="#1D2088"/>
<path d="M16.2622 135.856C16.2622 137.733 17.7086 139.405 19.4724 139.405C20.954 139.405 22.1181 138.263 22.5414 136.835C20.9187 136.631 19.684 135.121 19.684 133.163V132.959H12.8405L9.24231 135.244V135.285H16.227V135.856H16.2622Z" fill="#1D2088"/>
<path d="M22.5414 122.393H27.4448L29.385 120.149L29.9141 120.72L28.4678 122.393H30.2316L30.8313 121.699L31.4663 122.434L31.1841 122.76V124.8L31.7837 125.493L31.1841 126.187V135.448C31.0782 138.875 29.8436 141.976 27.8681 144.219C31.7132 142.384 34.4294 138.059 34.5706 132.959V119.904H26.1043L22.5414 122.393Z" fill="#1D2088"/>
<path d="M22.5414 122.393H27.4448L29.3849 120.149L29.9141 120.72L28.4678 122.393H30.2316L30.8313 121.699L31.4662 122.434L31.184 122.76V124.8L31.7837 125.493L31.184 126.187V135.448C31.0782 138.875 29.8435 141.976 27.8681 144.219C31.7132 142.384 34.4294 138.059 34.5705 132.959V119.904H26.1043L22.5414 122.393Z" fill="#1D2088"/>
<path d="M8.57208 156.785C8.57208 157.683 8.57208 157.764 8.07822 157.764H7.16104V159.396H8.74846C10.089 159.396 10.089 158.254 10.089 157.397V152.052H8.53681V156.785H8.57208Z" fill="#1D2088"/>
<path d="M8.57211 156.785C8.57211 157.683 8.57211 157.764 8.07825 157.764H7.16107V159.396H8.7485C10.089 159.396 10.089 158.254 10.089 157.397V152.052H8.53684V156.785H8.57211Z" fill="#1D2088"/>
<path d="M17.6028 152.052H14.3221V159.396H16.0859V153.807H16.9325C17.4264 153.807 17.4264 154.133 17.4264 154.786V159.396H19.296V153.807C19.2607 153.807 19.3313 152.052 17.6028 152.052Z" fill="#1D2088"/>
<path d="M17.6028 152.052H14.3221V159.396H16.0859V153.807H16.9325C17.4264 153.807 17.4264 154.133 17.4264 154.786V159.396H19.296V153.807C19.2608 153.807 19.3313 152.052 17.6028 152.052Z" fill="#1D2088"/>
<path d="M23.2469 152.052H20.5307V153.848H22.8236C22.8236 153.848 24.0936 154.011 24.0936 155.683C24.0936 157.397 22.9647 157.723 22.7531 157.723H22.1886V154.827H20.5307V159.437H23.4586C23.4586 159.437 25.681 159.11 25.681 155.806C25.681 153.154 24.3052 152.052 23.2469 152.052Z" fill="#1D2088"/>
<path d="M23.2469 152.052H20.5307V153.848H22.8236C22.8236 153.848 24.0936 154.011 24.0936 155.683C24.0936 157.397 22.9647 157.723 22.7531 157.723H22.1886V154.827H20.5307V159.437H23.4586C23.4586 159.437 25.681 159.11 25.681 155.806C25.681 153.154 24.3052 152.052 23.2469 152.052Z" fill="#1D2088"/>
<path d="M34.2531 152.052H32.7362V159.396H36.3696V157.683H34.2531V152.052Z" fill="#1D2088"/>
<path d="M34.2531 152.052H32.7362V159.396H36.3696V157.683H34.2531V152.052Z" fill="#1D2088"/>
<path d="M13.0169 154.786H11.2531V159.396H13.0169V154.786Z" fill="#1D2088"/>
<path d="M13.0168 154.786H11.253V159.396H13.0168V154.786Z" fill="#1D2088"/>
<path d="M13.0169 152.052H11.2531V153.848H13.0169V152.052Z" fill="#1D2088"/>
<path d="M13.0168 152.052H11.253V153.848H13.0168V152.052Z" fill="#1D2088"/>
<path d="M27.9739 152.052L29.6672 157.683H28.115L28.5383 154.786H27.1626L26.1748 159.396H31.5368L29.6672 152.052H27.9739Z" fill="#1D2088"/>
<path d="M27.9739 152.052L29.6672 157.683H28.115L28.5383 154.786H27.1626L26.1748 159.396H31.5368L29.6672 152.052H27.9739Z" fill="#1D2088"/>
<path d="M30.1258 104.931L31.1135 103.789L31.6074 104.36L30.7255 105.38C31.0782 105.666 31.3957 105.992 31.6779 106.318L31.7485 106.237L32.3835 106.971L32.2423 107.134C32.4893 107.542 32.7362 107.991 32.9126 108.481L33.477 109.133L33.1948 109.46C33.3359 110.072 33.4417 110.684 33.4417 111.377C33.4417 112.601 33.1595 113.703 32.7009 114.682H34.5C35.4172 113.458 35.9463 111.867 35.9463 110.113C35.9463 106.359 33.2654 103.259 29.8436 103.259C28.8206 103.259 27.9034 103.585 27.0568 104.115C27.1626 104.115 27.2331 104.074 27.339 104.074C28.362 104.115 29.2792 104.442 30.1258 104.931Z" fill="#1D2088"/>
<path d="M30.1258 104.931L31.1135 103.789L31.6073 104.36L30.7254 105.38C31.0782 105.666 31.3957 105.992 31.6779 106.318L31.7485 106.237L32.3834 106.971L32.2423 107.134C32.4892 107.542 32.7362 107.991 32.9126 108.481L33.477 109.133L33.1948 109.46C33.3359 110.072 33.4417 110.684 33.4417 111.377C33.4417 112.601 33.1595 113.703 32.7009 114.682H34.5C35.4172 113.458 35.9463 111.867 35.9463 110.113C35.9463 106.359 33.2653 103.259 29.8435 103.259C28.8205 103.259 27.9034 103.585 27.0567 104.115C27.1626 104.115 27.2331 104.074 27.3389 104.074C28.3619 104.115 29.2791 104.442 30.1258 104.931Z" fill="#1D2088"/>
<path d="M30.1258 104.931L31.1135 103.789L31.6074 104.36L30.7255 105.38C31.0782 105.666 31.3957 105.992 31.6779 106.318L31.7485 106.237L32.3835 106.971L32.2423 107.134C32.4893 107.542 32.7362 107.991 32.9126 108.481L33.477 109.133L33.1948 109.46C33.3359 110.072 33.4417 110.684 33.4417 111.377C33.4417 112.601 33.1595 113.703 32.7009 114.682H34.5C35.4172 113.458 35.9463 111.867 35.9463 110.113C35.9463 106.359 33.2654 103.259 29.8436 103.259C28.8206 103.259 27.9034 103.585 27.0568 104.115C27.1626 104.115 27.2331 104.074 27.339 104.074C28.362 104.115 29.2792 104.442 30.1258 104.931Z" stroke="#1D2088" stroke-width="0.2295" stroke-miterlimit="2.613"/>
<path d="M30.1258 104.931L31.1135 103.789L31.6073 104.36L30.7254 105.38C31.0782 105.666 31.3957 105.992 31.6779 106.318L31.7485 106.237L32.3834 106.971L32.2423 107.134C32.4892 107.542 32.7362 107.991 32.9126 108.481L33.477 109.133L33.1948 109.46C33.3359 110.072 33.4417 110.684 33.4417 111.377C33.4417 112.601 33.1595 113.703 32.7009 114.682H34.5C35.4172 113.458 35.9463 111.867 35.9463 110.113C35.9463 106.359 33.2653 103.259 29.8435 103.259C28.8205 103.259 27.9034 103.585 27.0567 104.115C27.1626 104.115 27.2331 104.074 27.3389 104.074C28.3619 104.115 29.2791 104.442 30.1258 104.931Z" stroke="#1D2088" stroke-width="0.2295" stroke-miterlimit="2.613"/>
<path d="M33.089 111.296C33.0537 112.56 32.7715 113.744 32.2423 114.723H32.2776C32.8068 113.744 33.1242 112.601 33.1242 111.418C33.1242 111.336 33.089 111.336 33.089 111.296Z" fill="#1D2088"/>
<path d="M33.0889 111.296C33.0537 112.56 32.7715 113.744 32.2423 114.723H32.2776C32.8067 113.744 33.1242 112.601 33.1242 111.418C33.1242 111.336 33.0889 111.336 33.0889 111.296Z" fill="#1D2088"/>
<path d="M33.089 111.296C33.0537 112.56 32.7715 113.744 32.2423 114.723H32.2776C32.8068 113.744 33.1242 112.601 33.1242 111.418C33.1242 111.336 33.089 111.336 33.089 111.296Z" stroke="#1D2088" stroke-width="0.2295" stroke-miterlimit="2.613"/>
<path d="M33.0889 111.296C33.0537 112.56 32.7715 113.744 32.2423 114.723H32.2776C32.8067 113.744 33.1242 112.601 33.1242 111.418C33.1242 111.336 33.0889 111.336 33.0889 111.296Z" stroke="#1D2088" stroke-width="0.2295" stroke-miterlimit="2.613"/>
<path d="M32.2776 114.723C31.6779 115.824 30.8313 116.681 29.8083 117.211C30.8313 116.64 31.6779 115.783 32.2776 114.723Z" fill="#1D2088"/>
<path d="M32.2776 114.723C31.6779 115.824 30.8313 116.681 29.8083 117.211C30.8313 116.64 31.6779 115.783 32.2776 114.723Z" fill="#1D2088"/>
<path d="M32.2776 114.723C31.6779 115.824 30.8313 116.681 29.8083 117.211C30.8313 116.64 31.6779 115.783 32.2776 114.723Z" stroke="#1D2088" stroke-width="0.2295" stroke-miterlimit="2.613"/>
<path d="M32.2776 114.723C31.6779 115.824 30.8313 116.681 29.8083 117.211C30.8313 116.64 31.6779 115.783 32.2776 114.723Z" stroke="#1D2088" stroke-width="0.2295" stroke-miterlimit="2.613"/>
<path d="M30.9724 117.089C32.3834 116.803 33.6181 115.947 34.5 114.723H32.7009C32.3129 115.661 31.7132 116.436 30.9724 117.089Z" fill="#1D2088"/>
<path d="M30.9724 117.089C32.3835 116.803 33.6181 115.947 34.5 114.723H32.7009C32.3129 115.661 31.7132 116.436 30.9724 117.089Z" fill="#1D2088"/>
<path d="M30.9724 117.089C32.3834 116.803 33.6181 115.947 34.5 114.723H32.7009C32.3129 115.661 31.7132 116.436 30.9724 117.089Z" stroke="#1D2088" stroke-width="0.2295" stroke-miterlimit="2.613"/>
<path d="M30.9724 117.089C32.3835 116.803 33.6181 115.947 34.5 114.723H32.7009C32.3129 115.661 31.7132 116.436 30.9724 117.089Z" stroke="#1D2088" stroke-width="0.2295" stroke-miterlimit="2.613"/>
<path d="M31.6074 104.36L31.1135 103.789L30.1258 104.931C30.3374 105.054 30.5491 105.176 30.7607 105.339L31.6074 104.36Z" fill="#1D2088"/>
<path d="M31.6073 104.36L31.1135 103.789L30.1257 104.931C30.3374 105.054 30.549 105.176 30.7607 105.339L31.6073 104.36Z" fill="#1D2088"/>
<path d="M32.3834 106.971L31.7485 106.237L31.6779 106.318C31.8896 106.563 32.066 106.849 32.2423 107.134L32.3834 106.971Z" fill="#1D2088"/>
<path d="M32.3834 106.971L31.7485 106.237L31.6779 106.318C31.8896 106.563 32.066 106.849 32.2423 107.134L32.3834 106.971Z" fill="#1D2088"/>
<path d="M33.5123 109.133L32.9478 108.481C33.0537 108.807 33.1595 109.133 33.2301 109.501L33.5123 109.133Z" fill="#1D2088"/>
<path d="M33.5122 109.133L32.9478 108.481C33.0536 108.807 33.1595 109.133 33.23 109.501L33.5122 109.133Z" fill="#1D2088"/>
<path d="M26.1043 104.931C23.6702 105.625 21.8006 108.195 21.8006 111.377C21.8006 112.601 22.1181 113.703 22.6472 114.682H25.3988C24.5169 113.458 23.9524 111.867 23.9524 110.113C23.9524 108.073 24.7991 106.196 26.1043 104.931Z" fill="white"/>
<path d="M26.1043 104.931C23.6703 105.625 21.8006 108.195 21.8006 111.377C21.8006 112.601 22.1181 113.703 22.6473 114.682H25.3988C24.5169 113.458 23.9525 111.867 23.9525 110.112C23.9525 108.073 24.7991 106.196 26.1043 104.931Z" fill="white"/>
<path d="M25.3988 114.723H22.6472C23.635 116.559 25.3635 117.823 27.3742 117.823C28.2561 117.823 29.0675 117.578 29.8083 117.211C28.0445 117.17 26.4923 116.191 25.3988 114.723Z" fill="white"/>
<path d="M25.3988 114.723H22.6472C23.6349 116.559 25.3635 117.823 27.3742 117.823C28.2561 117.823 29.0675 117.578 29.8083 117.211C28.0445 117.17 26.4923 116.191 25.3988 114.723Z" fill="white"/>
<path d="M32.9479 109.868L30.2316 113.05L30.1963 113.009L29.4908 112.193L32.5951 108.603C32.4187 108.195 32.2423 107.787 31.9954 107.42L30.5138 109.133L26.8098 113.458L26.1043 112.846L26.2454 112.683L26.2101 112.642L29.8436 108.44L31.431 106.604C31.1488 106.278 30.796 105.992 30.4433 105.747L27.1979 109.501L27.1626 109.46L26.6687 108.889L26.6334 108.848L29.7025 105.258C28.9969 104.891 28.1856 104.687 27.3742 104.687C26.9509 104.687 26.5276 104.768 26.1043 104.891C24.7991 106.155 23.9525 108.032 23.9525 110.113C23.9525 111.867 24.5169 113.458 25.3988 114.682H32.2423C32.7715 113.703 33.089 112.52 33.089 111.255C33.089 110.806 33.0537 110.317 32.9479 109.868Z" fill="white"/>
<path d="M32.9478 109.868L30.2316 113.05L30.1963 113.009L29.4908 112.193L32.5951 108.603C32.4187 108.195 32.2423 107.787 31.9954 107.42L30.5138 109.133L26.8098 113.458L26.1043 112.846L26.2454 112.683L26.2101 112.642L29.8435 108.44L31.4309 106.604C31.1487 106.278 30.796 105.992 30.4432 105.747L27.1978 109.501L27.1625 109.46L26.6687 108.889L26.6334 108.848L29.7024 105.258C28.9969 104.891 28.1856 104.687 27.3742 104.687C26.9509 104.687 26.5276 104.768 26.1043 104.891C24.799 106.155 23.9524 108.032 23.9524 110.113C23.9524 111.867 24.5168 113.458 25.3987 114.682H32.2423C32.7714 113.703 33.0889 112.52 33.0889 111.255C33.0889 110.806 33.0536 110.317 32.9478 109.868Z" fill="white"/>
<path d="M29.8083 117.211C30.8313 116.681 31.6779 115.824 32.2423 114.723H25.3988C26.4923 116.191 28.0445 117.17 29.8083 117.211Z" fill="white"/>
<path d="M29.8083 117.211C30.8313 116.681 31.6779 115.824 32.2423 114.723H25.3988C26.4923 116.191 28.0445 117.17 29.8083 117.211Z" fill="white"/>
<path d="M30.1963 113.009L30.2316 113.05L32.9479 109.868V109.827L30.1963 113.009Z" fill="white"/>
<path d="M30.1964 113.009L30.2316 113.05L32.9479 109.868V109.827L30.1964 113.009Z" fill="white"/>
<path d="M26.2454 112.683L26.1043 112.846L26.8451 113.458L30.5138 109.134L26.8451 113.417L26.2454 112.683Z" fill="white"/>
<path d="M26.2454 112.683L26.1043 112.846L26.8451 113.458L30.5138 109.134L26.8451 113.417L26.2454 112.683Z" fill="white"/>
<path d="M27.1626 109.501L27.1978 109.541L30.4432 105.788L30.408 105.747L27.1626 109.501Z" fill="white"/>
<path d="M27.1626 109.501L27.1978 109.541L30.4432 105.788L30.408 105.747L27.1626 109.501Z" fill="white"/>
<path d="M26.6687 108.93L29.773 105.339C29.7377 105.339 29.7377 105.299 29.7024 105.299L26.6687 108.93Z" fill="white"/>
<path d="M26.6688 108.93L29.7731 105.339C29.7378 105.339 29.7378 105.299 29.7025 105.299L26.6688 108.93Z" fill="white"/>
<path d="M26.6687 108.929L27.1626 109.501L26.6687 108.929Z" fill="#1D2088"/>
<path d="M26.6688 108.929L27.1626 109.501L26.6688 108.929Z" fill="#1D2088"/>
<path d="M27.1626 109.501L30.408 105.747C30.1963 105.584 29.9847 105.462 29.7377 105.339L26.6334 108.93L27.1626 109.501Z" fill="#1D2088"/>
<path d="M27.1626 109.501L30.408 105.747C30.1963 105.584 29.9847 105.462 29.7377 105.339L26.6334 108.93L27.1626 109.501Z" fill="#1D2088"/>
<path d="M26.2101 112.683H26.2454L29.8435 108.481L26.2101 112.683Z" fill="#1D2088"/>
<path d="M26.2101 112.683H26.2454L29.8436 108.481L26.2101 112.683Z" fill="#1D2088"/>
<path d="M31.431 106.645L29.8436 108.481L26.2454 112.683L26.8451 113.376L30.5138 109.133L31.9954 107.42C31.819 107.175 31.6426 106.89 31.431 106.645Z" fill="#1D2088"/>
<path d="M31.4309 106.645L29.8435 108.481L26.2454 112.683L26.8451 113.376L30.5138 109.133L31.9954 107.42C31.819 107.175 31.6426 106.89 31.4309 106.645Z" fill="#1D2088"/>
<path d="M32.5951 108.644L29.4555 112.193L30.161 113.009L29.4908 112.234L32.5951 108.644Z" fill="#1D2088"/>
<path d="M32.5951 108.644L29.4555 112.193L30.161 113.009L29.4908 112.234L32.5951 108.644Z" fill="#1D2088"/>
<path d="M32.5951 108.644L29.5261 112.234L30.1963 113.009L32.9478 109.827C32.842 109.419 32.7362 109.011 32.5951 108.644Z" fill="#1D2088"/>
<path d="M32.5951 108.644L29.5261 112.234L30.1963 113.009L32.9478 109.827C32.842 109.419 32.7362 109.011 32.5951 108.644Z" fill="#1D2088"/>
<path d="M21.6242 111.173C21.6242 108.032 23.7761 105.217 26.3865 104.646C26.5982 104.442 26.8451 104.279 27.092 104.156C23.9877 104.36 21.2715 107.542 21.2715 111.377C21.2715 112.601 21.5537 113.703 22.0476 114.682H22.5414C21.977 113.703 21.6242 112.479 21.6242 111.173Z" fill="#1D2088"/>
<path d="M21.6242 111.173C21.6242 108.032 23.7761 105.217 26.3865 104.646C26.5982 104.442 26.8451 104.279 27.092 104.156C23.9877 104.36 21.2715 107.542 21.2715 111.377C21.2715 112.601 21.5537 113.703 22.0476 114.682H22.5414C21.977 113.703 21.6242 112.479 21.6242 111.173Z" fill="#1D2088"/>
<path d="M27.3742 118.435C28.75 118.435 29.9847 117.905 30.9724 117.048C30.6196 117.13 30.2669 117.171 29.8788 117.171C29.8436 117.171 29.8436 117.171 29.8083 117.171C29.0675 117.579 28.2561 117.783 27.3742 117.783C25.3988 117.783 23.5997 116.559 22.5414 114.682H22.0475C23.1058 116.926 25.1518 118.435 27.3742 118.435Z" fill="#1D2088"/>
<path d="M27.3742 118.435C28.75 118.435 29.9847 117.905 30.9724 117.048C30.6196 117.13 30.2669 117.171 29.8788 117.171C29.8436 117.171 29.8436 117.171 29.8083 117.171C29.0675 117.579 28.2561 117.783 27.3742 117.783C25.3988 117.783 23.5997 116.559 22.5414 114.682H22.0475C23.1058 116.926 25.1518 118.435 27.3742 118.435Z" fill="#1D2088"/>
<path d="M32.6304 108.562L32.842 108.317L32.9479 108.44C32.7715 107.95 32.5598 107.501 32.2776 107.094L32.0659 107.338C32.2776 107.746 32.454 108.154 32.6304 108.562Z" fill="#1D2088"/>
<path d="M32.6303 108.562L32.842 108.317L32.9478 108.44C32.7714 107.95 32.5598 107.501 32.2776 107.094L32.0659 107.338C32.2776 107.746 32.454 108.154 32.6303 108.562Z" fill="#1D2088"/>
<path d="M30.5138 105.666C30.8666 105.951 31.184 106.237 31.4662 106.563L31.6779 106.278C31.3957 105.911 31.0782 105.584 30.7254 105.339L30.5138 105.666Z" fill="#1D2088"/>
<path d="M30.5138 105.666C30.8666 105.951 31.184 106.237 31.4662 106.563L31.6779 106.278C31.3957 105.911 31.0782 105.584 30.7254 105.339L30.5138 105.666Z" fill="#1D2088"/>
<path d="M32.9831 109.827C33.0537 110.276 33.089 110.724 33.089 111.173C33.089 111.214 33.089 111.255 33.089 111.255C33.089 111.296 33.089 111.336 33.089 111.377C33.089 112.601 32.7715 113.703 32.2423 114.682H32.7009C33.1595 113.703 33.4417 112.56 33.4417 111.377C33.4417 110.724 33.3359 110.072 33.1948 109.46L32.9479 109.745C32.9831 109.786 32.9831 109.786 32.9831 109.827Z" fill="#1D2088"/>
<path d="M32.9831 109.827C33.0537 110.276 33.0889 110.725 33.0889 111.173C33.0889 111.214 33.0889 111.255 33.0889 111.255C33.0889 111.296 33.0889 111.337 33.0889 111.377C33.0889 112.601 32.7715 113.703 32.2423 114.682H32.7009C33.1595 113.703 33.4417 112.561 33.4417 111.377C33.4417 110.725 33.3359 110.072 33.1948 109.46L32.9478 109.746C32.9831 109.786 32.9831 109.786 32.9831 109.827Z" fill="#1D2088"/>
<path d="M27.3742 104.564C28.2561 104.564 29.0675 104.809 29.8083 105.217C29.8436 105.217 29.8436 105.258 29.8436 105.258L30.0905 104.972C29.2791 104.483 28.3267 104.156 27.339 104.156C27.2331 104.156 27.1626 104.197 27.0567 104.197C26.8098 104.36 26.5982 104.523 26.3865 104.687C26.704 104.605 27.0215 104.564 27.3742 104.564Z" fill="#1D2088"/>
<path d="M27.3742 104.564C28.2561 104.564 29.0675 104.809 29.8083 105.217C29.8436 105.217 29.8436 105.258 29.8436 105.258L30.0905 104.972C29.2791 104.483 28.3267 104.156 27.339 104.156C27.2331 104.156 27.1626 104.197 27.0567 104.197C26.8098 104.36 26.5982 104.523 26.3865 104.687C26.704 104.605 27.0215 104.564 27.3742 104.564Z" fill="#1D2088"/>
<path d="M32.7362 114.723H32.2776C31.7132 115.783 30.8666 116.681 29.8083 117.211C29.8436 117.211 29.8436 117.211 29.8788 117.211C30.2669 117.211 30.6196 117.171 30.9724 117.089C31.7132 116.436 32.3129 115.661 32.7362 114.723Z" fill="#1D2088"/>
<path d="M32.7362 114.723H32.2776C31.7132 115.783 30.8666 116.681 29.8083 117.211C29.8436 117.211 29.8436 117.211 29.8788 117.211C30.2669 117.211 30.6196 117.171 30.9724 117.089C31.7132 116.436 32.3129 115.661 32.7362 114.723Z" fill="#1D2088"/>
<path d="M29.8788 105.217C29.8788 105.217 29.8436 105.176 29.8083 105.176C29.8083 105.217 29.8436 105.217 29.8788 105.217Z" fill="#1D2088"/>
<path d="M29.8788 105.217C29.8788 105.217 29.8436 105.176 29.8083 105.176C29.8083 105.217 29.8436 105.217 29.8788 105.217Z" fill="#1D2088"/>
<path d="M30.7607 105.38C30.5491 105.217 30.3374 105.095 30.1258 104.972L29.8788 105.258C30.0905 105.38 30.3374 105.543 30.5138 105.666L30.7607 105.38Z" fill="#1D2088"/>
<path d="M30.7607 105.38C30.5491 105.217 30.3374 105.095 30.1257 104.972L29.8788 105.258C30.0905 105.38 30.3374 105.543 30.5138 105.666L30.7607 105.38Z" fill="#1D2088"/>
<path d="M30.5138 105.666C30.3374 105.502 30.0905 105.38 29.8788 105.217C30.0905 105.38 30.3022 105.502 30.5138 105.666Z" fill="#1D2088"/>
<path d="M30.5138 105.666C30.3374 105.502 30.0905 105.38 29.8788 105.217C30.0905 105.38 30.3021 105.502 30.5138 105.666Z" fill="#1D2088"/>
<path d="M32.0307 107.379L32.2423 107.134C32.0659 106.849 31.8896 106.563 31.6779 106.318L31.4662 106.563C31.6779 106.808 31.8543 107.094 32.0307 107.379Z" fill="#1D2088"/>
<path d="M32.0307 107.379L32.2423 107.134C32.0659 106.849 31.8896 106.563 31.6779 106.318L31.4662 106.563C31.6779 106.808 31.8543 107.094 32.0307 107.379Z" fill="#1D2088"/>
<path d="M32.0307 107.379C31.8896 107.094 31.6779 106.808 31.5015 106.604C31.6779 106.849 31.8543 107.094 32.0307 107.379Z" fill="#1D2088"/>
<path d="M32.0307 107.379C31.8896 107.094 31.6779 106.808 31.5016 106.604C31.6779 106.849 31.8543 107.094 32.0307 107.379Z" fill="#1D2088"/>
<path d="M32.6304 108.562C32.6304 108.562 32.6304 108.603 32.6656 108.603L32.6304 108.562C32.6656 108.603 32.6656 108.644 32.6656 108.644C32.7009 108.766 32.7362 108.889 32.7715 109.011C32.842 109.256 32.9126 109.501 32.9831 109.786L33.2301 109.501C33.1595 109.174 33.0537 108.807 32.9479 108.481L32.842 108.358L32.6304 108.562Z" fill="#1D2088"/>
<path d="M32.6304 108.562C32.6304 108.562 32.6304 108.603 32.6656 108.603L32.6304 108.562C32.6656 108.603 32.6656 108.644 32.6656 108.644C32.7009 108.766 32.7362 108.889 32.7715 109.011C32.842 109.256 32.9126 109.501 32.9831 109.786L33.2301 109.501C33.1595 109.174 33.0537 108.807 32.9479 108.481L32.842 108.358L32.6304 108.562Z" fill="#1D2088"/>
<path d="M32.9831 109.786C32.9126 109.541 32.842 109.256 32.7715 109.011C32.842 109.256 32.9126 109.501 32.9831 109.786Z" fill="#1D2088"/>
<path d="M32.9831 109.786C32.9125 109.541 32.842 109.256 32.7714 109.011C32.842 109.256 32.9125 109.501 32.9831 109.786Z" fill="#1D2088"/>
<path d="M32.6304 108.603C32.6304 108.644 32.6656 108.644 32.6304 108.603C32.6656 108.603 32.6656 108.644 32.6304 108.603Z" fill="#1D2088"/>
<path d="M32.6304 108.603C32.6304 108.644 32.6656 108.644 32.6304 108.603C32.6656 108.603 32.6656 108.644 32.6304 108.603Z" fill="#1D2088"/>
<path d="M21.8006 111.377C21.8006 108.154 23.635 105.584 26.1043 104.931C26.2101 104.85 26.2807 104.727 26.3865 104.646C23.7761 105.217 21.6242 108.032 21.6242 111.173C21.6242 112.479 21.977 113.662 22.5414 114.682H22.6472C22.1181 113.744 21.8006 112.601 21.8006 111.377Z" fill="#1D2088"/>
<path d="M21.8006 111.377C21.8006 108.154 23.635 105.584 26.1043 104.931C26.2101 104.85 26.2807 104.727 26.3865 104.646C23.7761 105.217 21.6242 108.032 21.6242 111.173C21.6242 112.479 21.977 113.662 22.5414 114.682H22.6472C22.1181 113.744 21.8006 112.601 21.8006 111.377Z" fill="#1D2088"/>
<path d="M22.6472 114.723H22.5414C23.5644 116.599 25.3988 117.823 27.3742 117.823C25.3635 117.823 23.635 116.559 22.6472 114.723Z" fill="#1D2088"/>
<path d="M22.6472 114.723H22.5414C23.5644 116.599 25.3987 117.823 27.3742 117.823C25.3635 117.823 23.6349 116.559 22.6472 114.723Z" fill="#1D2088"/>
<path d="M31.431 106.645L31.5015 106.563C31.2193 106.237 30.9018 105.91 30.5491 105.666L30.4432 105.788C30.796 106.033 31.1135 106.318 31.431 106.645Z" fill="#1D2088"/>
<path d="M31.431 106.645L31.5016 106.563C31.2193 106.237 30.9019 105.91 30.5491 105.666L30.4433 105.788C30.796 106.033 31.1135 106.318 31.431 106.645Z" fill="#1D2088"/>
<path d="M32.5951 108.603L32.6304 108.562C32.454 108.154 32.2776 107.746 32.0307 107.379L31.9954 107.42C32.207 107.787 32.4187 108.195 32.5951 108.603Z" fill="#1D2088"/>
<path d="M32.5951 108.603L32.6304 108.562C32.454 108.154 32.2776 107.746 32.0307 107.379L31.9954 107.42C32.207 107.787 32.4187 108.195 32.5951 108.603Z" fill="#1D2088"/>
<path d="M33.0889 111.296C33.0889 111.255 33.0889 111.214 33.0889 111.214C33.0889 110.765 33.0537 110.316 32.9478 109.868L32.9126 109.908C33.0537 110.316 33.0889 110.806 33.0889 111.296Z" fill="#1D2088"/>
<path d="M33.089 111.296C33.089 111.255 33.089 111.214 33.089 111.214C33.089 110.765 33.0537 110.317 32.9479 109.868L32.9126 109.909C33.0537 110.317 33.089 110.806 33.089 111.296Z" fill="#1D2088"/>
<path d="M27.3742 104.768C28.2209 104.768 28.9969 104.972 29.7025 105.339L29.8083 105.217C29.0675 104.809 28.2561 104.564 27.3742 104.564C27.0568 104.564 26.704 104.605 26.3865 104.687C26.2807 104.768 26.2101 104.85 26.1043 104.972C26.5276 104.809 26.9157 104.768 27.3742 104.768Z" fill="#1D2088"/>
<path d="M27.3742 104.768C28.2209 104.768 28.9969 104.972 29.7025 105.339L29.8083 105.217C29.0675 104.809 28.2561 104.564 27.3742 104.564C27.0568 104.564 26.704 104.605 26.3865 104.687C26.2807 104.768 26.2101 104.85 26.1043 104.972C26.5276 104.809 26.9157 104.768 27.3742 104.768Z" fill="#1D2088"/>
<path d="M32.9478 109.827C32.9478 109.827 32.9478 109.868 32.9478 109.909L32.9831 109.868C32.9831 109.827 32.9831 109.786 32.9478 109.827Z" fill="#1D2088"/>
<path d="M32.9478 109.827C32.9478 109.827 32.9478 109.868 32.9478 109.909L32.9831 109.868C32.9831 109.827 32.9831 109.786 32.9478 109.827Z" fill="#1D2088"/>
<path d="M30.4432 105.788L30.5138 105.666L30.408 105.747L30.4432 105.788Z" fill="#1D2088"/>
<path d="M30.4432 105.788L30.5138 105.666L30.408 105.747L30.4432 105.788Z" fill="#1D2088"/>
<path d="M29.773 105.339L29.8788 105.217C29.8436 105.217 29.8436 105.176 29.8083 105.176L29.7025 105.298C29.7377 105.339 29.7377 105.339 29.773 105.339Z" fill="#1D2088"/>
<path d="M29.773 105.339L29.8788 105.217C29.8436 105.217 29.8436 105.176 29.8083 105.176L29.7025 105.298C29.7377 105.339 29.7377 105.339 29.773 105.339Z" fill="#1D2088"/>
<path d="M30.5138 105.666C30.3022 105.502 30.0905 105.38 29.8788 105.258L29.773 105.38C30.0199 105.502 30.2316 105.625 30.4433 105.788L30.5138 105.666Z" fill="#1D2088"/>
<path d="M30.5138 105.666C30.3021 105.502 30.0905 105.38 29.8788 105.258L29.773 105.38C30.0199 105.502 30.2316 105.625 30.4432 105.788L30.5138 105.666Z" fill="#1D2088"/>
<path d="M31.431 106.645C31.6426 106.89 31.819 107.134 31.9954 107.42L32.0307 107.379C31.8543 107.094 31.6779 106.849 31.4662 106.604L31.431 106.645Z" fill="#1D2088"/>
<path d="M31.431 106.645C31.6427 106.89 31.8191 107.134 31.9954 107.42L32.0307 107.379C31.8543 107.094 31.678 106.849 31.4663 106.604L31.431 106.645Z" fill="#1D2088"/>
<path d="M32.5951 108.644L32.6304 108.603C32.6304 108.603 32.6304 108.562 32.5951 108.562V108.644Z" fill="#1D2088"/>
<path d="M32.5951 108.644L32.6303 108.603C32.6303 108.603 32.6303 108.562 32.5951 108.562V108.644Z" fill="#1D2088"/>
<path d="M32.9479 109.827C32.9126 109.541 32.842 109.256 32.7715 109.011C32.7362 108.889 32.7009 108.766 32.6656 108.644C32.6656 108.644 32.6656 108.644 32.6656 108.603L32.6304 108.644C32.7362 109.011 32.842 109.419 32.9479 109.827Z" fill="#1D2088"/>
<path d="M32.9479 109.827C32.9126 109.541 32.842 109.256 32.7715 109.011C32.7362 108.889 32.7009 108.766 32.6656 108.644C32.6656 108.644 32.6656 108.644 32.6656 108.603L32.6304 108.644C32.7362 109.011 32.842 109.419 32.9479 109.827Z" fill="#1D2088"/>
<path d="M29.8788 120.72L29.3497 120.149L27.4095 122.393H28.4325L29.8788 120.72Z" fill="#1D2088"/>
<path d="M29.8788 120.72L29.3497 120.149L27.4095 122.393H28.4325L29.8788 120.72Z" fill="#1D2088"/>
<path d="M31.1488 122.76L31.431 122.433L30.796 121.699L30.1963 122.393H31.1488V122.76Z" fill="#1D2088"/>
<path d="M31.1488 122.76L31.431 122.434L30.796 121.699L30.1964 122.393H31.1488V122.76Z" fill="#1D2088"/>
<path d="M31.7485 125.493L31.1488 124.8V126.187L31.7485 125.493Z" fill="#1D2088"/>
<path d="M31.7485 125.493L31.1488 124.8V126.187L31.7485 125.493Z" fill="#1D2088"/>
<path d="M26.1043 133.163V132.959L24.9755 129.614L24.4463 129.002L24.658 128.757L22.8589 123.453V135.448V135.856C22.8589 136.223 22.7884 136.549 22.7178 136.876C22.7531 136.876 22.7884 136.917 22.8589 136.917C24.6933 136.917 26.1043 135.244 26.1043 133.163Z" fill="white"/>
<path d="M26.1043 133.163V132.959L24.9754 129.614L24.4463 129.002L24.658 128.757L22.8589 123.453V135.448V135.856C22.8589 136.223 22.7883 136.549 22.7178 136.876C22.753 136.876 22.7883 136.917 22.8589 136.917C24.6932 136.917 26.1043 135.244 26.1043 133.163Z" fill="white"/>
<path d="M9.70093 136.305C10.1595 142.628 14.6749 147.483 20.2132 147.483C22.8589 147.483 25.2577 146.341 27.1273 144.505C26.0338 144.954 24.8696 145.199 23.635 145.199C18.661 145.199 12.2055 142.71 9.70093 136.305Z" fill="white"/>
<path d="M9.70093 136.305C10.1595 142.628 14.6749 147.483 20.2132 147.483C22.8589 147.483 25.2577 146.341 27.1273 144.505C26.0338 144.954 24.8696 145.199 23.635 145.199C18.661 145.199 12.2055 142.71 9.70093 136.305Z" fill="white"/>
<path d="M30.0199 122.597H28.2561L25.3988 125.86L24.9049 125.289L27.2331 122.597H22.8942V123.453L24.6932 128.757L30.0199 122.597Z" fill="white"/>
<path d="M30.0199 122.597H28.2561L25.3987 125.86L24.9049 125.289L27.2331 122.597H22.8941V123.453L24.6932 128.757L30.0199 122.597Z" fill="white"/>
<path d="M25.0813 129.736L24.9755 129.614L26.1043 132.959V133.163C26.1043 135.244 24.658 136.917 22.8589 136.917C22.8236 136.917 22.7883 136.876 22.7178 136.876C22.3298 138.508 21.0951 139.813 19.4371 139.813C17.4617 139.813 16.0153 138.14 16.0153 135.652H9.63037C9.63037 135.856 9.70092 136.06 9.70092 136.305C12.2055 142.71 18.6963 145.198 23.5997 145.198C24.8344 145.198 25.9985 144.913 27.092 144.464C29.2439 142.302 30.6549 139.201 30.7607 135.652V126.595L28.3972 129.328L27.6917 128.512L30.7607 124.963V123.127L25.0813 129.736Z" fill="white"/>
<path d="M25.0813 129.736L24.9755 129.614L26.1043 132.959V133.163C26.1043 135.244 24.658 136.917 22.8589 136.917C22.8236 136.917 22.7883 136.876 22.7178 136.876C22.3298 138.508 21.0951 139.813 19.4371 139.813C17.4617 139.813 16.0153 138.14 16.0153 135.652H9.63037C9.63037 135.856 9.70092 136.06 9.70092 136.305C12.2055 142.71 18.6963 145.198 23.5997 145.198C24.8344 145.198 25.9985 144.913 27.092 144.464C29.2439 142.302 30.6549 139.201 30.7607 135.652V126.595L28.3972 129.328L27.6917 128.512L30.7607 124.963V123.127L25.0813 129.736Z" fill="white"/>
<path d="M25.3988 125.86L28.2561 122.597H27.2331L24.9049 125.289L25.3988 125.86Z" fill="#1D2088"/>
<path d="M25.3988 125.86L28.2562 122.597H27.2332L24.9049 125.289L25.3988 125.86Z" fill="#1D2088"/>
<path d="M24.4463 129.002L24.9755 129.614L24.6933 128.757L24.4463 129.002Z" fill="#1D2088"/>
<path d="M24.4464 129.002L24.9755 129.614L24.6933 128.757L24.4464 129.002Z" fill="#1D2088"/>
<path d="M24.9754 129.614L25.0813 129.736L30.7607 123.168V122.597H30.0199L24.6932 128.757L24.9754 129.614Z" fill="#1D2088"/>
<path d="M24.9754 129.614L25.0813 129.736L30.7607 123.168V122.597H30.0199L24.6932 128.757L24.9754 129.614Z" fill="#1D2088"/>
<path d="M28.3972 129.369L30.7607 126.636V125.004L27.727 128.553L28.3972 129.369Z" fill="#1D2088"/>
<path d="M28.3973 129.369L30.7608 126.636V125.004L27.727 128.553L28.3973 129.369Z" fill="#1D2088"/>
<path d="M20.1779 147.687C14.3574 147.687 9.84203 142.547 9.48927 135.856C9.41872 135.652 9.31289 135.489 9.24234 135.285C9.41872 142.139 14.0752 147.891 20.1779 147.891C23.1411 147.891 25.8574 146.463 27.8328 144.219C27.727 144.26 27.5859 144.301 27.4801 144.342C25.5752 146.422 23.0353 147.687 20.1779 147.687Z" fill="#1D2088"/>
<path d="M20.1779 147.687C14.3573 147.687 9.842 142.547 9.48924 135.856C9.41869 135.652 9.31286 135.489 9.24231 135.285C9.41869 142.139 14.0751 147.891 20.1779 147.891C23.1411 147.891 25.8573 146.463 27.8328 144.219C27.727 144.26 27.5859 144.301 27.48 144.342C25.5751 146.422 23.0353 147.687 20.1779 147.687Z" fill="#1D2088"/>
<path d="M22.7883 135.693L22.7531 135.448V123.045L22.5414 122.393V135.448L22.7178 135.856C22.7178 136.182 22.612 136.509 22.5414 136.794C22.5767 136.794 22.612 136.794 22.612 136.835C22.7178 136.468 22.7883 136.101 22.7883 135.693Z" fill="#1D2088"/>
<path d="M22.7883 135.693L22.753 135.448V123.045L22.5414 122.393V135.448L22.7178 135.856C22.7178 136.182 22.6119 136.509 22.5414 136.794C22.5767 136.794 22.6119 136.794 22.6119 136.835C22.7178 136.468 22.7883 136.101 22.7883 135.693Z" fill="#1D2088"/>
<path d="M9.48927 135.529H16.227C16.1565 136.06 16.3681 139.65 19.4724 139.65C20.9187 139.65 22.1887 138.385 22.612 136.835C22.5767 136.835 22.5414 136.835 22.5414 136.794C22.1534 138.222 20.954 139.364 19.4724 139.364C17.6733 139.364 16.2623 137.692 16.2623 135.815V135.244H9.27762C9.34817 135.448 9.454 135.611 9.52455 135.815C9.52455 135.774 9.48927 135.652 9.48927 135.529Z" fill="#1D2088"/>
<path d="M9.48927 135.529H16.227C16.1565 136.06 16.3681 139.65 19.4724 139.65C20.9187 139.65 22.1887 138.385 22.612 136.835C22.5767 136.835 22.5414 136.835 22.5414 136.794C22.1534 138.222 20.954 139.364 19.4724 139.364C17.6733 139.364 16.2623 137.692 16.2623 135.815V135.244H9.27762C9.34817 135.448 9.454 135.611 9.52455 135.815C9.52455 135.774 9.48927 135.652 9.48927 135.529Z" fill="#1D2088"/>
<path d="M30.1258 122.433L30.1963 122.393H28.4325L28.362 122.433H30.1258Z" fill="#1D2088"/>
<path d="M30.1257 122.433L30.1963 122.393H28.4325L28.3619 122.433H30.1257Z" fill="#1D2088"/>
<path d="M31.1488 126.187L30.9019 126.472V135.448C30.796 138.997 29.4908 142.139 27.4801 144.342C27.5859 144.301 27.727 144.26 27.8328 144.219C29.8083 141.975 31.043 138.875 31.1488 135.448V126.187Z" fill="#1D2088"/>
<path d="M31.1488 126.187L30.9018 126.472V135.448C30.796 138.997 29.4908 142.139 27.48 144.342C27.5859 144.301 27.727 144.26 27.8328 144.219C29.8083 141.975 31.0429 138.875 31.1488 135.448V126.187Z" fill="#1D2088"/>
<path d="M22.7531 122.433H27.3742L27.4095 122.393H22.5414L22.7531 123.045V122.433Z" fill="#1D2088"/>
<path d="M22.753 122.433H27.3742L27.4095 122.393H22.5414L22.753 123.045V122.433Z" fill="#1D2088"/>
<path d="M30.9018 124.881L31.0429 124.718L31.1488 124.8V122.76L30.9018 123.005V124.881Z" fill="#1D2088"/>
<path d="M30.9019 124.881L31.043 124.718L31.1488 124.8V122.76L30.9019 123.005V124.881Z" fill="#1D2088"/>
<path d="M28.362 122.433L28.4325 122.393H27.4095L27.3742 122.433H28.362Z" fill="#1D2088"/>
<path d="M28.362 122.433L28.4325 122.393H27.4095L27.3743 122.433H28.362Z" fill="#1D2088"/>
<path d="M30.9018 122.433V123.005L31.1488 122.76V122.393H30.1963L30.161 122.433H30.9018Z" fill="#1D2088"/>
<path d="M30.9018 122.433V123.005L31.1488 122.76V122.393H30.1963L30.161 122.433H30.9018Z" fill="#1D2088"/>
<path d="M30.9018 124.881V126.472L31.1488 126.228V124.8L31.0429 124.718L30.9018 124.881Z" fill="#1D2088"/>
<path d="M30.9019 124.881V126.472L31.1488 126.228V124.8L31.043 124.718L30.9019 124.881Z" fill="#1D2088"/>
<path d="M20.1779 147.483C14.6396 147.483 10.1242 142.628 9.66564 136.305C9.59509 136.142 9.52453 136.019 9.48926 135.856C9.80674 142.506 14.3574 147.687 20.1779 147.687C23.0353 147.687 25.5399 146.423 27.4448 144.342C27.339 144.383 27.1978 144.423 27.092 144.464C25.2577 146.341 22.8589 147.483 20.1779 147.483Z" fill="#1D2088"/>
<path d="M20.1779 147.483C14.6395 147.483 10.1242 142.628 9.66561 136.305C9.59506 136.142 9.5245 136.019 9.48923 135.856C9.80671 142.506 14.3573 147.687 20.1779 147.687C23.0352 147.687 25.5398 146.423 27.4447 144.342C27.3389 144.383 27.1978 144.423 27.092 144.464C25.2576 146.341 22.8589 147.483 20.1779 147.483Z" fill="#1D2088"/>
<path d="M22.8942 135.856V135.448V123.453L22.7531 123.086V135.448L22.7883 135.693C22.7883 136.101 22.7178 136.468 22.612 136.835C22.6825 136.835 22.7178 136.876 22.7531 136.876C22.8236 136.549 22.8942 136.223 22.8942 135.856Z" fill="#1D2088"/>
<path d="M22.8942 135.856V135.448V123.453L22.7531 123.086V135.448L22.7884 135.693C22.7884 136.101 22.7178 136.468 22.612 136.835C22.6826 136.835 22.7178 136.876 22.7531 136.876C22.8237 136.549 22.8942 136.223 22.8942 135.856Z" fill="#1D2088"/>
<path d="M30.7607 125.004L30.9018 124.881V123.005L30.7607 123.168V125.004Z" fill="#1D2088"/>
<path d="M30.7607 125.004L30.9018 124.881V123.005L30.7607 123.168V125.004Z" fill="#1D2088"/>
<path d="M9.63036 135.652H16.0859C16.0859 138.141 17.5322 139.813 19.5077 139.813C21.1656 139.813 22.4003 138.508 22.7883 136.876C22.7531 136.876 22.6825 136.835 22.6472 136.835C22.2239 138.426 20.9187 139.65 19.4724 139.65C16.3681 139.65 16.1212 136.06 16.227 135.53H9.48926C9.48926 135.652 9.52453 135.774 9.52453 135.897C9.55981 136.06 9.63036 136.182 9.70091 136.345C9.66564 136.101 9.63036 135.897 9.63036 135.652Z" fill="#1D2088"/>
<path d="M9.63033 135.652H16.0859C16.0859 138.141 17.5322 139.813 19.5076 139.813C21.1656 139.813 22.4003 138.508 22.7883 136.876C22.753 136.876 22.6825 136.835 22.6472 136.835C22.2239 138.426 20.9187 139.65 19.4724 139.65C16.3681 139.65 16.1211 136.06 16.227 135.53H9.48923C9.48923 135.652 9.5245 135.774 9.5245 135.897C9.55978 136.06 9.63033 136.182 9.70088 136.345C9.66561 136.101 9.63033 135.897 9.63033 135.652Z" fill="#1D2088"/>
<path d="M30.7608 135.652C30.6549 139.201 29.2439 142.343 27.092 144.464C27.1979 144.423 27.339 144.383 27.4448 144.342C29.4908 142.139 30.796 138.997 30.8666 135.448V126.472L30.7255 126.636V135.652H30.7608Z" fill="#1D2088"/>
<path d="M30.7608 135.652C30.6549 139.201 29.2439 142.343 27.092 144.464C27.1979 144.423 27.339 144.383 27.4448 144.342C29.4908 142.139 30.796 138.997 30.8666 135.448V126.472L30.7255 126.636V135.652H30.7608Z" fill="#1D2088"/>
<path d="M30.0199 122.597L30.1258 122.433H28.362L28.2561 122.597H30.0199Z" fill="#1D2088"/>
<path d="M30.02 122.597L30.1258 122.434H28.362L28.2562 122.597H30.02Z" fill="#1D2088"/>
<path d="M22.8942 122.597H27.2331L27.3389 122.433H22.7531V123.045L22.8942 123.453V122.597Z" fill="#1D2088"/>
<path d="M22.8942 122.597H27.2331L27.3389 122.434H22.7531V123.046L22.8942 123.454V122.597Z" fill="#1D2088"/>
<path d="M28.2561 122.597L28.362 122.433H27.3742L27.2331 122.597H28.2561Z" fill="#1D2088"/>
<path d="M28.2561 122.597L28.362 122.434H27.3742L27.2331 122.597H28.2561Z" fill="#1D2088"/>
<path d="M30.7607 122.597V123.168L30.9018 123.005V122.433H30.1258L30.0199 122.597H30.7607Z" fill="#1D2088"/>
<path d="M30.7608 122.597V123.168L30.9019 123.005V122.434H30.1258L30.02 122.597H30.7608Z" fill="#1D2088"/>
<path d="M30.7607 125.004V126.636L30.9018 126.472V124.881L30.7607 125.004Z" fill="#1D2088"/>
<path d="M30.7607 125.004V126.636L30.9018 126.472V124.881L30.7607 125.004Z" fill="#1D2088"/>
</svg>
