<svg width="383" height="104" viewBox="0 0 383 104" fill="none" xmlns="http://www.w3.org/2000/svg">
<path fill-rule="evenodd" clip-rule="evenodd" d="M57.3539 20.9816C73.8987 20.9816 87.3163 34.8726 87.3163 52.0001C87.3163 68.9786 74.1301 82.7735 57.7842 83.0126L71.6157 57.1559H81.0332L86.1315 47.6211H76.7159H71.2984H62.4585L57.3606 57.1559H66.1977L52.5744 82.6231C38.3013 80.2524 27.3915 67.4436 27.3915 52.0001C27.3915 37.9946 36.3649 26.1536 48.6821 22.3026L35.1388 47.6211H35.1361L30.0383 57.1559H35.4561H53.7108L58.8091 47.6211H40.5566L54.7439 21.0996C55.6041 21.0226 56.4739 20.9816 57.3539 20.9816ZM57.3539 16.4601C76.3102 16.4601 91.6843 32.3751 91.6843 52.0001C91.6843 71.6245 76.3102 87.5405 57.3539 87.5405C38.3972 87.5405 23.0238 71.6245 23.0238 52.0001C23.0238 32.3751 38.3972 16.4601 57.3539 16.4601Z" fill="#3163B8"/>
<path d="M106.408 61.517H119.283L120.05 57.958H111.775L115.098 42.4792H110.497L106.408 61.517ZM134.013 56.5738L134.46 61.517H139.284L136.76 42.4792H130.85L120.366 61.517H125.26L127.815 56.5738H134.013ZM129.157 53.4667L131.298 49.3712C131.873 48.2697 132.479 46.8007 133.023 45.6427H133.086C133.183 46.8007 133.31 48.3257 133.406 49.3712L133.822 53.4667H129.157ZM141.044 61.517H145.613L147.21 54.0033H148.616C150.437 54.0033 151.331 54.7094 151.523 57.0258C151.747 59.3703 151.97 61.0084 152.162 61.517H156.89C156.506 60.7262 156.315 58.2404 156.06 56.1219C155.836 54.399 155.293 53.1282 154.015 52.6477V52.5347C156.762 51.7437 158.903 49.9922 158.903 47.1677C158.903 45.3882 157.912 44.1737 156.506 43.4392C155.005 42.6202 152.897 42.3377 150.852 42.3377C148.712 42.3377 146.539 42.5357 145.101 42.8462L141.044 61.517ZM149.031 45.6992C149.414 45.6147 149.958 45.5577 150.82 45.5577C152.641 45.5577 154.11 46.2357 154.11 47.7607C154.11 49.6252 152.29 50.9527 149.798 50.9527H147.881L149.031 45.6992ZM158.49 60.4435C159.513 61.1213 161.653 61.776 164.656 61.8322C169.448 61.8322 173.41 59.6246 173.41 55.3875C173.41 53.1282 171.748 51.5742 169.129 50.3597C167.308 49.4557 165.997 48.7782 165.997 47.6762C165.997 46.6307 167.116 45.6707 169.256 45.6707C171.045 45.6427 172.578 46.1792 173.281 46.5182L174.719 43.1572C173.792 42.6767 172.259 42.1682 169.64 42.1682C164.943 42.1682 161.142 44.5127 161.142 48.3542C161.142 50.8402 163.314 52.3087 165.614 53.4102C167.595 54.3142 168.521 55.0203 168.521 56.0937C168.521 57.5908 166.892 58.3252 165.103 58.3252C163.123 58.3252 161.302 57.7885 160.023 57.1103L158.49 60.4435ZM189.545 50.0207H181.878L182.773 45.9532H190.887L191.654 42.4792H178.907L174.818 61.517H188.011L188.747 58.0426H180.152L181.143 53.4387H188.81L189.545 50.0207ZM195.043 61.517L196.449 54.851C197.088 51.8567 197.599 49.1732 197.855 47.3092L197.95 47.2807C198.525 49.6252 199.1 51.3482 200.059 53.9187L203.061 61.517H207.822L211.879 42.4792H207.598L206.128 49.3997C205.521 52.1957 205.234 54.2861 205.138 56.2347H205.042C204.531 54.1447 203.956 52.1677 203.093 49.7382L200.25 42.4792H194.851L190.762 61.517H195.043ZM236.226 61.517C235.012 60.2742 233.925 59.0314 233.094 57.958C235.555 55.9244 237.024 53.4667 238.174 50.5577H233.957C233.286 52.2522 232.36 54.0033 230.986 55.3875C230.124 54.3424 228.942 52.9297 228.111 51.7437V51.6592C231.561 50.2467 233.446 48.6087 233.446 46.4052C233.446 43.8632 231.21 42.1682 227.983 42.1682C224.022 42.1682 221.243 44.5412 221.243 47.6197C221.243 48.7782 221.754 49.8797 222.424 50.8402L222.393 50.9247C219.614 52.0542 217.218 53.8902 217.218 56.8C217.218 59.8789 219.869 61.8322 223.862 61.8322C226.45 61.8322 228.271 61.1213 229.612 60.2178C230.027 60.6695 230.347 61.0931 230.794 61.517H236.226ZM225.14 58.7771C222.999 58.7771 221.881 57.5623 221.881 56.0937C221.881 54.6533 223.032 53.7207 223.99 53.0997C225.236 54.8226 226.706 56.6023 227.791 57.8732C227.153 58.3818 226.322 58.7771 225.172 58.7771H225.14ZM227.6 44.7952C228.813 44.7952 229.357 45.5577 229.357 46.4332C229.357 47.8457 227.983 48.8907 226.322 49.5687C225.747 48.8627 225.364 48.1002 225.364 47.2242C225.364 45.8402 226.354 44.7952 227.568 44.7952H227.6ZM247.857 61.517H252.458L255.748 46.0382H261.499L262.265 42.4792H246.26L245.461 46.0382H251.148L247.857 61.517ZM272.427 42.1682C269.329 42.1682 266.582 43.1852 264.568 44.8802C262.045 47.0267 260.607 50.4442 260.607 53.8902C260.607 58.3252 263.738 61.8322 269.329 61.8322C272.555 61.8322 275.271 60.8107 277.283 59.0879C279.744 56.941 281.117 53.5797 281.117 50.1052C281.117 45.5577 278.114 42.1682 272.427 42.1682ZM271.885 45.5577C275.271 45.5577 276.229 47.8457 276.229 50.2187C276.229 52.4217 275.303 55.557 273.609 57.0543C272.619 57.9013 271.341 58.4379 270 58.4379C266.869 58.4379 265.495 56.4328 265.495 53.7492C265.495 51.4612 266.453 48.5237 268.179 46.9982C269.169 46.1232 270.447 45.5577 271.885 45.5577ZM285.624 42.4792L283.356 53.0997C283.165 54.0033 283.037 54.9355 283.037 55.7547C283.037 59.8222 285.752 61.8607 290.193 61.8322C296.039 61.8322 298.914 59.0594 300.16 53.2972L302.492 42.4792H297.892L295.527 53.4667C294.761 56.9976 293.164 58.4099 290.768 58.4099C288.691 58.4099 287.637 57.2236 287.637 55.698C287.637 54.851 287.701 54.0881 287.86 53.4387L290.225 42.4792H285.624ZM302.016 61.2908C303.07 61.4888 305.019 61.6631 307.447 61.6631C311.025 61.6631 313.74 61.1781 315.561 60.1047C317.254 59.116 318.501 57.6189 318.501 55.5851C318.501 53.4952 317.19 51.9982 315.114 51.4327V51.3482C317.446 50.7552 319.459 49.2302 319.459 46.8292C319.459 45.2187 318.404 44.0042 316.967 43.3547C315.529 42.5922 313.868 42.3377 311.632 42.3377C309.492 42.3377 307.51 42.5357 305.977 42.7897L302.016 61.2908ZM309.938 45.6427C310.29 45.5577 310.929 45.5017 311.727 45.5017C313.485 45.5017 314.762 46.0942 314.762 47.4787C314.762 49.0887 313.038 50.0492 310.514 50.0492H308.981L309.938 45.6427ZM308.277 53.0147H309.715C311.855 53.0147 313.645 53.5797 313.645 55.4722C313.645 57.5908 311.377 58.4666 308.884 58.4666C308.213 58.4666 307.67 58.4379 307.127 58.3818L308.277 53.0147ZM320.004 61.517H324.573L326.17 54.0033H327.576C329.397 54.0033 330.291 54.7094 330.483 57.0258C330.707 59.3703 330.93 61.0084 331.122 61.517H335.85C335.467 60.7262 335.275 58.2404 335.02 56.1219C334.796 54.399 334.253 53.1282 332.975 52.6477V52.5347C335.722 51.7437 337.863 49.9922 337.863 47.1677C337.863 45.3882 336.873 44.1737 335.467 43.4392C333.965 42.6202 331.857 42.3377 329.813 42.3377C327.672 42.3377 325.5 42.5357 324.061 42.8462L320.004 61.517ZM327.991 45.6992C328.375 45.6147 328.918 45.5577 329.78 45.5577C331.601 45.5577 333.07 46.2357 333.07 47.7607C333.07 49.6252 331.25 50.9527 328.758 50.9527H326.841L327.991 45.6992ZM350.804 42.1682C347.706 42.1682 344.958 43.1852 342.946 44.8802C340.421 47.0267 338.983 50.4442 338.983 53.8902C338.983 58.3252 342.114 61.8322 347.706 61.8322C350.932 61.8322 353.647 60.8107 355.66 59.0879C358.12 56.941 359.494 53.5797 359.494 50.1052C359.494 45.5577 356.491 42.1682 350.804 42.1682ZM350.261 45.5577C353.647 45.5577 354.606 47.8457 354.606 50.2187C354.606 52.4217 353.68 55.557 351.987 57.0543C350.996 57.9013 349.718 58.4379 348.376 58.4379C345.245 58.4379 343.872 56.4328 343.872 53.7492C343.872 51.4612 344.829 48.5237 346.556 46.9982C347.545 46.1232 348.824 45.5577 350.261 45.5577Z" fill="#231F20"/>
</svg>
