<svg width="150" height="150" viewBox="0 0 150 150" fill="none" xmlns="http://www.w3.org/2000/svg">
<g clip-path="url(#clip0_102_1678)">
<path d="M114.892 117.423C113.428 118.217 112.461 119.698 111.984 121.262C111.126 123.952 111.288 126.812 111.272 129.597C111.3 131.574 111.195 133.563 111.488 135.527C111.709 137.088 112.148 138.669 113.068 139.973C114.075 141.357 115.686 142.143 117.318 142.526C119.466 143.077 121.699 143.029 123.9 143.031C125.893 143.025 127.909 143.082 129.876 142.695C131.342 142.421 132.813 141.93 133.978 140.97C134.964 140.132 135.587 138.947 135.956 137.723C136.431 136.224 136.562 134.648 136.635 133.086C134.706 133.089 132.777 133.086 130.849 133.088C130.776 134.096 130.845 135.213 130.2 136.063C129.525 136.999 128.307 137.314 127.207 137.319C125.008 137.318 122.811 137.325 120.612 137.314C119.509 137.302 118.303 136.952 117.641 136.009C117.069 135.251 117.048 134.256 117.028 133.347C117.006 130.798 117.002 128.25 117.039 125.702C117.088 124.803 117.09 123.821 117.641 123.058C118.262 122.16 119.397 121.777 120.452 121.766C122.601 121.734 124.751 121.761 126.9 121.749C128.029 121.73 129.307 121.909 130.097 122.807C130.872 123.679 130.826 124.922 130.864 126.015C132.789 126.015 134.713 126.015 136.639 126.015C136.543 123.726 136.278 121.333 135.051 119.343C134.156 117.888 132.57 117.012 130.959 116.576C128.124 115.798 125.153 115.993 122.246 115.976C119.745 116.001 117.123 116.181 114.892 117.423ZM83.115 117.138C81.5773 117.817 80.4 119.192 79.8571 120.773C78.7784 123.636 79.0021 126.746 78.9721 129.747C78.9871 132.073 78.8789 134.433 79.4084 136.718C79.8016 138.564 80.6955 140.427 82.3573 141.444C84.5579 142.748 87.1889 143.001 89.6955 143.021C91.6995 143.001 93.7066 143.074 95.7073 142.941C97.6873 142.755 99.7529 142.378 101.397 141.185C102.789 140.167 103.513 138.501 103.892 136.868C104.553 133.892 104.287 130.826 104.352 127.804C100.498 127.777 96.6434 127.8 92.79 127.794C92.7884 129.712 92.79 131.631 92.79 133.55C94.7055 133.551 96.6195 133.548 98.535 133.551C98.4779 134.43 98.4466 135.399 97.86 136.114C97.185 136.997 96.0179 137.307 94.9529 137.308C92.8516 137.312 90.75 137.308 88.6484 137.31C87.75 137.307 86.7989 137.205 86.0416 136.682C85.2376 136.157 84.8011 135.192 84.7727 134.252C84.6721 131.703 84.7439 129.153 84.7273 126.606C84.8129 125.436 84.63 124.142 85.3034 123.109C85.9216 122.15 87.1126 121.764 88.2061 121.752C90.2566 121.723 92.3084 121.751 94.3589 121.74C95.5471 121.703 96.8984 121.827 97.755 122.754C98.4916 123.506 98.5273 124.62 98.5576 125.607C100.482 125.612 102.408 125.607 104.334 125.61C104.184 123.206 103.852 120.624 102.279 118.691C101.342 117.544 99.9271 116.929 98.535 116.531C95.85 115.817 93.045 115.987 90.2955 115.962C87.8684 115.978 85.3529 116.098 83.115 117.138ZM47.5934 115.998C47.6084 124.903 47.5621 133.811 47.6161 142.714C49.5195 142.68 51.4229 142.708 53.3279 142.701C53.3279 138.081 53.3279 133.462 53.3279 128.844C53.3445 127.989 53.4316 127.125 53.6984 126.311C54.2505 124.537 55.5884 123.041 57.27 122.262C58.7295 121.587 60.3929 121.53 61.965 121.722C63.675 121.927 65.3129 122.988 66.0434 124.572C66.7905 126.086 66.5879 127.813 66.5805 129.444C66.585 133.862 66.5716 138.281 66.5729 142.699C68.4855 142.699 70.3995 142.699 72.3121 142.698C72.3134 137.781 72.3121 132.862 72.3134 127.944C72.3134 125.938 72.4229 123.873 71.7255 121.956C70.9411 119.63 69.15 117.647 66.8834 116.691C65.2305 116.018 63.4139 116.037 61.6605 115.969C60.15 115.918 58.5645 115.971 57.1921 116.676C55.5495 117.555 54.1366 118.832 52.9966 120.297C52.9816 118.862 53.0116 117.426 52.98 115.992C51.1845 116.007 49.3889 115.995 47.5934 115.998ZM23.187 116.082C22.0546 116.196 20.922 116.391 19.845 116.769C18.2985 117.287 16.875 118.307 16.134 119.79C14.766 122.43 14.7975 125.496 14.8065 128.393C14.8515 131.046 14.6444 133.731 15.1651 136.352C15.5369 138.315 16.41 140.362 18.189 141.435C20.547 142.869 23.4104 143.016 26.0985 143.019C29.2665 142.987 32.5589 143.256 35.5755 142.08C37.1221 141.529 38.445 140.342 39.075 138.816C40.3127 136.02 40.1684 132.893 40.1777 129.906C40.1534 127.395 40.3066 124.849 39.7634 122.379C39.3779 120.528 38.5095 118.626 36.855 117.591C34.725 116.274 32.1511 116.028 29.703 115.971C27.531 115.963 25.3545 115.898 23.187 116.082ZM56.9295 41.1584C49.8389 45.0945 44.1166 51.4305 40.905 58.875C38.0789 65.4645 37.1729 72.8895 38.5245 79.9439C38.9445 82.0739 39.4427 84.2084 40.2361 86.2305C40.4595 86.9384 41.2739 86.7239 41.8395 86.73C45.9945 86.6984 50.1495 86.6866 54.3029 86.6505C58.2871 86.6566 62.2711 86.5561 66.2534 86.6279C66.5355 86.4434 66.6421 86.0805 66.7155 85.7684C67.1221 82.62 67.5766 79.4789 68.0027 76.3334C68.8666 70.1774 69.6677 64.0095 70.5989 57.864C70.725 68.3177 70.7761 78.7727 70.8511 89.2273C61.1927 89.2273 51.5355 89.2273 41.8771 89.2261C42.4305 90.0329 43.0111 90.8189 43.5479 91.6366C49.7805 91.6727 56.0145 91.65 62.2484 91.6589C61.9171 91.8977 61.5616 92.1045 61.2511 92.37L61.26 92.5095L61.2134 92.3834C57.3779 95.175 54.2611 98.9773 52.3889 103.343C53.2561 103.691 54.1216 104.038 54.9855 104.392C57.4771 98.7029 62.2711 94.0455 68.0684 91.7955C68.9805 91.5284 69.9479 91.6995 70.8855 91.665C70.8689 92.9266 70.9079 94.1895 70.8929 95.4511C65.3505 96.8773 60.7095 101.359 59.1271 106.864C60.0211 107.121 60.9255 107.344 61.8239 107.593C63.1289 103.302 66.6134 99.6871 70.92 98.3773C70.9127 99.6179 70.9589 100.86 70.9261 102.101C68.3116 103.556 66.6961 106.563 66.8116 109.541C72.2745 109.534 77.7373 109.504 83.2005 109.5C83.3055 106.493 81.6361 103.482 78.9871 102.041C78.9479 100.8 78.9689 99.5595 78.9539 98.3205C83.2605 99.6377 86.8066 103.162 88.161 107.457C89.0534 107.205 89.9505 106.962 90.8445 106.71C89.2066 101.207 84.495 96.7979 78.9405 95.4045C78.9555 94.1445 78.9179 92.8829 78.9361 91.6229C80.19 91.6171 81.5279 91.4279 82.6666 92.0911C88.0529 94.4384 92.5411 98.8079 94.9576 104.172C95.8216 103.813 96.6916 103.466 97.5495 103.092C96.3839 100.509 94.806 98.1134 92.8845 96.0284C91.326 94.3066 89.5066 92.8439 87.5939 91.5361C93.7995 91.5255 100.005 91.5329 106.211 91.5316C106.779 90.7216 107.34 89.9071 107.904 89.0939C98.2426 89.1073 88.5826 89.1345 78.9226 89.1989C78.8879 78.8084 78.8161 68.4179 78.7845 58.0277L78.975 58.4761C80.2755 67.44 81.6584 76.3921 82.9666 85.3545C83.0023 85.7911 83.1421 86.2155 83.4211 86.5589C84.96 86.4284 86.5079 86.5079 88.0516 86.4705C94.956 86.4239 101.859 86.4105 108.763 86.37C109.386 86.4329 109.564 85.7129 109.734 85.26C111.298 80.3205 112.044 75.0795 111.512 69.9073C110.925 63.7245 108.722 57.7095 105.198 52.599C102.334 48.4334 98.6173 44.8561 94.3321 42.174C88.8376 38.7029 82.395 36.7516 75.8984 36.5716C76.0666 42.3779 75.9945 48.1889 76.0366 53.9984C76.1145 69.6916 76.161 85.3861 76.2345 101.081C75.3826 100.986 74.5245 100.997 73.6755 101.093C73.575 87.3466 73.47 73.6005 73.3711 59.8561C73.3411 52.0934 73.1895 44.3324 73.26 36.5716C67.5571 36.795 61.9155 38.3805 56.9295 41.1584ZM39.4079 11.385C39.405 12.5011 39.4066 13.6155 39.4066 14.7316C39.9616 14.7316 40.5166 14.73 41.07 14.7329C41.0745 18.2684 41.07 21.804 41.0729 25.3395C41.07 26.7224 41.4211 28.194 42.4034 29.2184C43.14 30.0118 44.2516 30.345 45.3105 30.3374C48.7829 30.3434 52.2555 30.339 55.7279 30.3405C55.7279 29.2216 55.7295 28.104 55.7266 26.985C53.055 26.9834 50.3821 26.9879 47.7089 26.9834C47.04 26.9534 46.2377 26.955 45.7634 26.4C45.3166 25.8045 45.3479 25.0171 45.315 24.3105C45.3077 21.1168 45.3211 17.9234 45.3077 14.73C46.6573 14.7374 48.0073 14.7179 49.3573 14.7434C50.0023 14.7418 50.5127 15.2384 50.82 15.7618C51.5355 16.9334 51.7739 18.5056 51.075 19.74C50.5079 20.709 49.0784 21.0255 48.1934 20.2934C47.8621 21.5956 47.4466 22.875 47.07 24.165C49.1445 24.9284 51.585 24.5461 53.3477 23.2168C54.6689 22.2361 55.6679 20.724 55.7671 19.0516C55.8916 17.4916 55.2511 15.9811 54.3616 14.7329C60.0945 14.73 65.8277 14.7316 71.5605 14.7316C71.5621 15.72 71.5605 16.71 71.5605 17.7C68.7045 17.7166 65.8484 17.6671 62.9927 17.7271C61.5029 17.7361 59.9505 18.0556 58.7611 19.0018C56.9895 20.3384 56.355 22.8195 56.9116 24.915C57.3929 26.7434 58.8511 28.2434 60.615 28.8868C62.31 29.5305 64.2779 29.4073 65.8771 28.5524C67.3695 27.7679 68.5245 26.3371 68.895 24.684C69.2011 23.4677 68.9655 22.1924 68.5066 21.0466C69.5205 21.0674 70.5345 21.06 71.5484 21.0555C71.5771 24.15 71.5529 27.2445 71.5605 30.339C72.9721 30.3227 74.3821 30.3361 75.7934 30.3316C75.795 25.1311 75.7905 19.9321 75.795 14.7329C76.4084 14.73 77.0221 14.7316 77.6371 14.7316C77.6384 13.6184 77.6384 12.5056 77.6371 11.3923C64.8929 11.3911 52.1505 11.3984 39.4079 11.385ZM25.962 4.93661C25.962 6.02556 25.959 7.11449 25.9635 8.20341C27.2655 8.22449 28.683 8.01736 29.862 8.70003C30.8085 9.26555 31.041 10.4205 31.362 11.3895C28.7564 11.3971 26.151 11.3895 23.5455 11.394C23.544 12.5055 23.544 13.6184 23.5455 14.73C24.0525 14.7316 24.5595 14.7316 25.068 14.7316C25.077 17.724 25.071 20.7179 25.071 23.7121C24.513 23.7134 23.9535 23.7134 23.3955 23.7121C23.2185 22.434 22.6875 21.2084 21.837 20.2334C22.3605 19.3739 22.794 18.42 22.8435 17.4C22.956 15.9329 22.4475 14.439 21.4936 13.3229C20.214 11.7945 18.183 10.9711 16.2045 11.0521C14.2545 11.0879 12.3315 12.0511 11.166 13.6216C10.323 14.7316 9.94497 16.1521 10.044 17.5366C11.3895 17.5411 12.735 17.5322 14.0805 17.5424C14.0175 16.9216 14.127 16.2673 14.502 15.7574C15.252 14.634 16.959 14.4406 17.9655 15.3284C19.029 16.1595 19.0499 17.9189 18.039 18.7995C17.397 19.4234 16.4296 19.1911 15.6225 19.2361C15.6284 20.3521 15.609 21.4679 15.6331 22.5827C16.401 22.6066 17.1975 22.464 17.9415 22.7055C18.9119 23.2366 19.2869 24.519 18.945 25.5377C18.621 26.4989 17.682 27.2161 16.6681 27.2671C15.4365 27.3616 14.2185 26.4345 13.9995 25.2166C13.89 24.7261 14.022 24.2327 14.1165 23.7511C12.6841 23.7705 11.2515 23.754 9.81744 23.76C9.58193 26.16 10.8765 28.5916 12.9465 29.805C14.9326 31.0171 17.535 31.1595 19.632 30.144C21.2235 29.3971 22.5045 28.005 23.0881 26.3445C23.748 26.3145 24.411 26.3355 25.0725 26.3327C25.074 27.6674 25.0695 29.0039 25.074 30.3405C26.4825 30.339 27.8925 30.3405 29.301 30.3405C29.304 25.1384 29.2995 19.935 29.304 14.7329C30.1619 14.73 31.0215 14.7284 31.881 14.7345C31.881 19.9366 31.8795 25.1384 31.881 30.3405C33.2895 30.3405 34.6979 30.3405 36.1066 30.3405C36.1079 25.14 36.1066 19.9379 36.1066 14.7361C36.6345 14.7284 37.1639 14.73 37.6934 14.7316C37.6934 13.6155 37.6934 12.5011 37.6921 11.385C37.0873 11.385 36.4845 11.3866 35.88 11.3834C35.4166 10.3516 34.95 9.32108 34.5077 8.28001C34.2271 7.50896 33.9479 6.69289 33.3405 6.11237C32.5111 5.27235 31.296 4.95161 30.147 4.93661C28.752 4.93214 27.3571 4.93661 25.962 4.93661ZM128.044 5.30556C126.669 5.86055 125.336 6.80714 124.766 8.22736C124.323 9.25949 124.563 10.4595 125.147 11.385C120.656 11.3806 116.164 11.3911 111.673 11.3923C111.671 12.5056 111.671 13.6184 111.673 14.7316C113.546 14.73 115.418 14.73 117.291 14.739C117.606 14.7511 117.951 14.6834 118.238 14.8605C119.672 15.5863 120.308 17.4227 119.886 18.93C119.644 19.7672 118.961 20.5455 118.061 20.6474C117.318 20.754 116.642 20.34 116.068 19.9216C116.068 18.9706 116.051 18.0195 116.057 17.0684C114.648 17.0684 113.239 17.0684 111.831 17.0684C111.834 19.7761 111.823 22.4821 111.837 25.1895C111.864 26.6821 112.196 28.2868 113.243 29.4118C113.888 30.1232 114.861 30.4321 115.8 30.4216C118.609 30.4229 121.419 30.4366 124.228 30.4139C124.211 29.2995 124.224 28.185 124.221 27.0705C121.969 27.0795 119.719 27.0839 117.469 27.0466C117.011 27.0074 116.358 26.9805 116.211 26.4405C115.995 25.5255 116.074 24.5745 116.057 23.6429C118.168 24.9855 121.052 24.2266 122.719 22.5106C124.183 22.5 125.648 22.4971 127.112 22.5C127.121 25.1161 127.098 27.7321 127.123 30.3466C128.523 30.3374 129.924 30.3345 131.323 30.3479C131.358 25.1429 131.322 19.9366 131.342 14.73C132.198 14.7329 133.056 14.7284 133.914 14.7329C133.917 19.935 133.912 25.1368 133.916 30.3405C135.327 30.3405 136.737 30.3405 138.15 30.3405C138.15 25.1368 138.15 19.935 138.15 14.7329C138.729 14.7045 139.329 14.7795 139.899 14.6911C139.917 13.5945 139.905 12.4966 139.899 11.4C139.448 11.3895 138.998 11.3895 138.548 11.394C139.128 10.4668 139.371 9.26715 138.934 8.23341C138.364 6.81735 137.04 5.86949 135.667 5.31161C133.247 4.36502 130.468 4.36343 128.044 5.30556ZM97.3289 5.36684C96 5.93236 94.7205 6.87608 94.1834 8.26341C93.7561 9.29108 94.0079 10.4761 94.5823 11.394C89.6879 11.3911 84.7934 11.3923 79.8989 11.394C79.8977 12.5055 79.8977 13.6184 79.8989 14.7316C85.1789 14.7316 90.4576 14.7316 95.7376 14.73C95.7479 15.5927 95.7421 16.455 95.7421 17.3174C92.2455 17.3218 88.7489 17.319 85.2523 17.319C85.2523 18.4334 85.2539 19.5479 85.2523 20.6627C86.22 20.739 87.2911 20.415 88.1655 20.9745C89.2005 21.7155 89.5516 23.1045 89.3805 24.315C89.2516 25.2977 88.7279 26.3355 87.7605 26.7121C87.0179 27.0211 86.1616 26.6611 85.6889 26.0566C84.9584 25.155 84.8055 23.9205 84.9977 22.8077C83.5111 22.8195 82.0261 22.809 80.5395 22.8134C80.3266 24.0345 80.415 25.3229 80.9055 26.4705C81.7484 28.5479 83.73 30.105 85.9423 30.4545C87.6526 30.7411 89.4766 30.3629 90.8984 29.3624C92.4239 28.32 93.4829 26.6055 93.6795 24.7634C93.8626 23.3371 93.4771 21.8805 92.7495 20.6534C93.7426 20.655 94.7371 20.6384 95.7316 20.6671C95.7345 23.8921 95.73 27.1155 95.7345 30.3405C97.146 30.339 98.5576 30.3405 99.9689 30.3405C99.9705 25.1384 99.9689 19.9366 99.9689 14.7345C100.909 14.7374 101.852 14.7121 102.792 14.7482C102.773 19.9455 102.78 25.1429 102.793 30.3405C104.196 30.339 105.598 30.3405 107.001 30.3405C107.002 25.1384 107.001 19.9366 107.002 14.7345C107.745 14.7284 108.489 14.7284 109.233 14.7418C109.252 13.6232 109.241 12.504 109.242 11.385C108.822 11.3923 108.403 11.394 107.985 11.3956C108.514 10.5195 108.786 9.42288 108.441 8.42842C107.934 6.94948 106.596 5.93556 105.198 5.35342C102.705 4.35289 99.816 4.33949 97.3289 5.36684ZM0 1.52588e-05H150V150H0V1.52588e-05Z" fill="#A01C2B"/>
<path d="M100.258 8.17667C101.156 7.89614 102.18 7.98741 102.987 8.48273C103.438 8.76294 103.83 9.20687 103.89 9.75294C103.947 10.4324 103.473 11.0595 102.883 11.3474C101.993 11.4451 101.093 11.3551 100.197 11.4001C99.1845 11.4795 98.3866 10.2735 98.775 9.3572C99.0434 8.75273 99.6389 8.35954 100.258 8.17667Z" fill="#A01C2B"/>
<path d="M130.723 8.20337C131.938 7.7939 133.517 8.05049 134.263 9.17709C134.757 9.95549 134.231 10.9994 133.452 11.3505C132.572 11.4271 131.683 11.3776 130.8 11.385C129.738 11.535 128.876 10.155 129.407 9.24444C129.677 8.73156 130.185 8.38943 130.723 8.20337Z" fill="#A01C2B"/>
<path d="M123.347 14.7315C124.602 14.7373 125.861 14.7178 127.118 14.7417C127.107 16.2121 127.114 17.6833 127.113 19.1549C126.238 19.1655 125.366 19.1533 124.493 19.1626C124.699 17.6039 124.293 15.9883 123.347 14.7315Z" fill="#A01C2B"/>
<path d="M62.31 21.2328C63.3823 20.913 64.5721 21.6212 64.9127 22.6635C65.4121 23.9385 64.56 25.5917 63.1666 25.7746C61.8871 25.9696 60.6855 24.8117 60.7005 23.5456C60.6705 22.5406 61.3184 21.5117 62.31 21.2328Z" fill="#A01C2B"/>
<path d="M48.3479 51.3373C54.3271 44.1166 63.36 39.4978 72.735 39.0166C69.855 53.355 66.9689 67.6905 64.0995 82.0305C63.9827 82.5794 64.0621 83.526 63.2955 83.5921C56.1555 83.6144 49.0139 83.6055 41.8739 83.6189C40.8211 80.0521 40.215 76.3321 40.3321 72.606C40.4761 64.8794 43.3829 57.2521 48.3479 51.3373Z" fill="#A01C2B"/>
<path d="M76.47 39.0105C82.7895 39.2789 89.01 41.3879 94.2195 44.97C98.5245 47.9116 102.144 51.8444 104.734 56.3684C107.907 61.8989 109.497 68.3278 109.245 74.7C109.134 77.5966 108.617 80.4676 107.831 83.2544C100.736 83.3521 93.6405 83.385 86.5471 83.4705C86.2066 83.5171 85.8689 83.301 85.7821 82.9678C85.2166 80.001 84.5416 77.0505 83.9266 74.091C81.4427 62.3971 78.945 50.706 76.47 39.0105Z" fill="#A01C2B"/>
<path d="M22.875 121.909C23.3865 121.764 23.9235 121.779 24.4501 121.761C26.448 121.725 28.446 121.764 30.4439 121.751C31.35 121.744 32.3071 121.825 33.0871 122.334C33.8027 122.801 34.2539 123.626 34.3171 124.474C34.4295 126.079 34.3995 127.689 34.4027 129.298C34.3979 131.053 34.44 132.812 34.2871 134.562C34.2089 135.405 33.7845 136.238 33.0645 136.708C32.3011 137.226 31.35 137.322 30.4515 137.321C28.401 137.316 26.352 137.323 24.3029 137.316C23.2875 137.31 22.1909 137.094 21.453 136.343C20.91 135.792 20.6325 135.021 20.6009 134.257C20.5155 132.154 20.568 130.05 20.5561 127.947C20.5665 126.6 20.5049 125.238 20.7735 123.911C21.018 122.91 21.9134 122.181 22.875 121.909Z" fill="#A01C2B"/>
<path d="M100.258 8.17665C99.6389 8.35952 99.0434 8.7527 98.775 9.35717C98.3866 10.2734 99.1845 11.4795 100.197 11.4001C101.093 11.3551 101.993 11.445 102.883 11.3474C103.473 11.0595 103.947 10.4324 103.89 9.75291C103.83 9.20685 103.438 8.76292 102.987 8.4827C102.18 7.98739 101.156 7.89611 100.258 8.17665ZM97.3289 5.36686C99.8161 4.33952 102.705 4.35292 105.198 5.35346C106.596 5.93558 107.934 6.94951 108.441 8.42844C108.786 9.42291 108.514 10.5195 107.985 11.3956C108.403 11.394 108.822 11.3924 109.242 11.385C109.241 12.504 109.252 13.6232 109.233 14.7419C108.489 14.7285 107.745 14.7285 107.002 14.7345C107.001 19.9366 107.002 25.1384 107.001 30.3406C105.598 30.3406 104.196 30.339 102.793 30.3406C102.78 25.1429 102.773 19.9456 102.792 14.7482C101.852 14.7122 100.909 14.7374 99.9689 14.7345C99.9689 19.9366 99.9705 25.1384 99.9689 30.3406C98.5577 30.3406 97.1461 30.339 95.7345 30.3406C95.73 27.1156 95.7345 23.8922 95.7316 20.6672C94.7371 20.6385 93.7427 20.655 92.7495 20.6534C93.4771 21.8806 93.8627 23.3372 93.6795 24.7634C93.4829 26.6056 92.4239 28.32 90.8984 29.3624C89.4766 30.3629 87.6527 30.7411 85.9423 30.4545C83.73 30.105 81.7484 28.5479 80.9055 26.4706C80.415 25.3229 80.3266 24.0345 80.5395 22.8135C82.0261 22.809 83.5111 22.8195 84.9977 22.8077C84.8055 23.9206 84.9584 25.155 85.6889 26.0566C86.1616 26.6611 87.0179 27.0211 87.7605 26.7122C88.7279 26.3356 89.2516 25.2977 89.3805 24.315C89.5516 23.1045 89.2005 21.7156 88.1655 20.9745C87.2911 20.415 86.22 20.739 85.2523 20.6627C85.2539 19.5479 85.2523 18.4335 85.2523 17.319C88.7489 17.319 92.2455 17.3218 95.7421 17.3174C95.7421 16.455 95.7479 15.5927 95.7377 14.73C90.4577 14.7316 85.1789 14.7316 79.8989 14.7316C79.8977 13.6184 79.8977 12.5056 79.8989 11.394C84.7934 11.3924 89.6879 11.3911 94.5823 11.394C94.0079 10.4761 93.7561 9.29111 94.1834 8.26345C94.7205 6.87611 96 5.93239 97.3289 5.36686Z" fill="white"/>
<path d="M123.347 14.7315C124.293 15.9883 124.699 17.6038 124.493 19.1625C125.366 19.1533 126.238 19.1654 127.113 19.1549C127.114 17.6833 127.107 16.212 127.118 14.7417C125.861 14.7178 124.602 14.7372 123.347 14.7315ZM130.723 8.20329C130.185 8.38935 129.677 8.73149 129.407 9.24436C128.876 10.1549 129.738 11.5349 130.8 11.3849C131.683 11.3775 132.572 11.427 133.452 11.3504C134.231 10.9993 134.757 9.95541 134.263 9.17701C133.517 8.05041 131.938 7.79382 130.723 8.20329ZM128.044 5.30543C130.468 4.3633 133.247 4.36489 135.667 5.31149C137.04 5.86936 138.364 6.81722 138.934 8.23329C139.371 9.26701 139.128 10.4667 138.548 11.3938C138.998 11.3893 139.448 11.3894 139.899 11.3999C139.905 12.4965 139.917 13.5943 139.899 14.6909C139.329 14.7793 138.729 14.7043 138.15 14.7328C138.15 19.9349 138.15 25.1367 138.15 30.3404C136.737 30.3404 135.327 30.3404 133.916 30.3404C133.912 25.1367 133.917 19.9349 133.914 14.7328C133.056 14.7283 132.198 14.7328 131.342 14.7299C131.322 19.9365 131.358 25.1428 131.323 30.3478C129.924 30.3343 128.523 30.3372 127.123 30.3465C127.098 27.732 127.121 25.1159 127.112 22.4999C125.648 22.497 124.183 22.4999 122.719 22.5104C121.052 24.2265 118.168 24.9854 116.057 23.6428C116.074 24.5744 115.995 25.5254 116.211 26.4404C116.358 26.9804 117.011 27.0072 117.469 27.0465C119.719 27.0838 121.969 27.0794 124.221 27.0704C124.224 28.1849 124.211 29.2994 124.228 30.4138C121.419 30.4365 118.609 30.4228 115.8 30.4215C114.861 30.432 113.888 30.1231 113.243 29.4117C112.196 28.2867 111.864 26.682 111.837 25.1894C111.823 22.482 111.834 19.776 111.831 17.0683C113.239 17.0683 114.648 17.0683 116.057 17.0683C116.051 18.0194 116.068 18.9704 116.068 19.9215C116.642 20.3399 117.318 20.7538 118.061 20.6472C118.961 20.5454 119.644 19.767 119.886 18.9299C120.308 17.4225 119.672 15.5862 118.238 14.8604C117.951 14.6833 117.606 14.7509 117.291 14.7388C115.418 14.7299 113.546 14.7299 111.673 14.7315C111.671 13.6183 111.671 12.5054 111.673 11.3922C116.164 11.3909 120.656 11.3804 125.147 11.3849C124.563 10.4594 124.323 9.25935 124.766 8.22723C125.336 6.80701 126.669 5.86042 128.044 5.30543Z" fill="white"/>
<path d="M25.962 4.93661C27.3571 4.93661 28.752 4.93214 30.147 4.93661C31.296 4.95161 32.5111 5.27235 33.3405 6.11235C33.9479 6.69288 34.2271 7.50894 34.5077 8.28001C34.95 9.32107 35.4166 10.3516 35.88 11.3834C36.4845 11.3866 37.0873 11.385 37.6921 11.385C37.6934 12.5011 37.6934 13.6155 37.6934 14.7316C37.1639 14.73 36.6345 14.7284 36.1066 14.7361C36.1066 19.9379 36.1079 25.14 36.1066 30.3405C34.6979 30.3405 33.2895 30.3405 31.881 30.3405C31.8795 25.1384 31.881 19.9366 31.881 14.7345C31.0215 14.7284 30.1619 14.73 29.304 14.7329C29.2995 19.935 29.304 25.1384 29.301 30.3405C27.8925 30.3405 26.4825 30.3389 25.074 30.3405C25.0695 29.0039 25.074 27.6674 25.0725 26.3327C24.411 26.3355 23.748 26.3145 23.0881 26.3445C22.5045 28.005 21.2235 29.3971 19.632 30.1439C17.535 31.1595 14.9326 31.0171 12.9465 29.805C10.8765 28.5916 9.58193 26.16 9.81743 23.76C11.2515 23.7539 12.6841 23.7705 14.1165 23.7511C14.022 24.2327 13.89 24.7261 13.9995 25.2166C14.2185 26.4345 15.4365 27.3616 16.6681 27.2671C17.682 27.2161 18.621 26.4989 18.945 25.5377C19.2869 24.5189 18.9119 23.2366 17.9415 22.7055C17.1975 22.4639 16.401 22.6066 15.6331 22.5827C15.609 21.4679 15.6284 20.3521 15.6225 19.2361C16.4296 19.1911 17.397 19.4234 18.039 18.7995C19.0499 17.9189 19.029 16.1595 17.9655 15.3284C16.959 14.4405 15.252 14.6339 14.502 15.7573C14.127 16.2673 14.0175 16.9216 14.0805 17.5424C12.735 17.5321 11.3895 17.5411 10.044 17.5366C9.94497 16.1521 10.323 14.7316 11.166 13.6216C12.3315 12.0511 14.2545 11.0879 16.2045 11.0521C18.183 10.9711 20.214 11.7945 21.4936 13.3229C22.4475 14.4389 22.956 15.9329 22.8435 17.4C22.794 18.42 22.3605 19.3739 21.837 20.2334C22.6875 21.2084 23.2185 22.4339 23.3955 23.7121C23.9535 23.7134 24.513 23.7134 25.071 23.7121C25.071 20.7179 25.077 17.7239 25.068 14.7316C24.5595 14.7316 24.0525 14.7316 23.5455 14.73C23.544 13.6184 23.544 12.5055 23.5455 11.3939C26.151 11.3895 28.7564 11.3971 31.362 11.3895C31.041 10.4205 30.8085 9.26554 29.862 8.70001C28.683 8.01735 27.2655 8.22448 25.9635 8.20341C25.959 7.11448 25.962 6.02555 25.962 4.93661Z" fill="white"/>
<path d="M62.31 21.2326C61.3184 21.5115 60.6705 22.5405 60.7005 23.5455C60.6855 24.8115 61.8871 25.9694 63.1666 25.7744C64.56 25.5915 65.4121 23.9383 64.9127 22.6633C64.5721 21.621 63.3823 20.9128 62.31 21.2326ZM39.4079 11.3849C52.1505 11.3983 64.8929 11.391 77.6371 11.3923C77.6384 12.5055 77.6384 13.6183 77.6371 14.7315C77.0221 14.7315 76.4084 14.7299 75.795 14.7328C75.7905 19.9321 75.795 25.131 75.7934 30.3315C74.3821 30.336 72.9721 30.3226 71.5605 30.3389C71.5529 27.2444 71.5771 24.1499 71.5484 21.0555C70.5345 21.0599 69.5205 21.0673 68.5066 21.0465C68.9655 22.1923 69.2011 23.4676 68.895 24.6839C68.5245 26.3371 67.3695 27.7678 65.8771 28.5523C64.2779 29.4073 62.31 29.5305 60.615 28.8867C58.8511 28.2433 57.3929 26.7433 56.9116 24.9149C56.355 22.8194 56.9895 20.3383 58.7611 19.0017C59.9505 18.0555 61.5029 17.736 62.9927 17.7271C65.8484 17.6671 68.7045 17.7165 71.5605 17.6999C71.5605 16.7099 71.5621 15.7199 71.5605 14.7315C65.8277 14.7315 60.0945 14.7299 54.3616 14.7328C55.2511 15.981 55.8916 17.4915 55.7671 19.0515C55.6679 20.7239 54.6689 22.236 53.3477 23.2167C51.585 24.546 49.1445 24.9283 47.07 24.1649C47.4466 22.8749 47.8621 21.5955 48.1934 20.2933C49.0784 21.0255 50.5079 20.7089 51.075 19.7399C51.7739 18.5055 51.5355 16.9333 50.82 15.7617C50.5127 15.2383 50.0023 14.7417 49.3573 14.7433C48.0073 14.7178 46.6573 14.7373 45.3077 14.7299C45.3211 17.9233 45.3077 21.1167 45.315 24.3105C45.3479 25.0171 45.3166 25.8044 45.7634 26.3999C46.2377 26.9549 47.04 26.9533 47.7089 26.9833C50.3821 26.9878 53.055 26.9833 55.7266 26.9849C55.7295 28.1039 55.7279 29.2215 55.7279 30.3405C52.2555 30.3389 48.7829 30.3433 45.3105 30.3373C44.2516 30.3449 43.14 30.0117 42.4034 29.2183C41.4211 28.1939 41.07 26.7223 41.0729 25.3394C41.07 21.8039 41.0745 18.2683 41.07 14.7328C40.5166 14.7299 39.9616 14.7315 39.4066 14.7315C39.4066 13.6155 39.405 12.501 39.4079 11.3849Z" fill="white"/>
<path d="M76.47 39.0105C78.945 50.7061 81.4427 62.3971 83.9266 74.0911C84.5416 77.0505 85.2166 80.0011 85.7821 82.9679C85.8689 83.3011 86.2066 83.5171 86.5471 83.4705C93.6405 83.385 100.736 83.3521 107.831 83.2545C108.617 80.4677 109.134 77.5966 109.245 74.7C109.497 68.3279 107.907 61.8989 104.734 56.3684C102.144 51.8445 98.5245 47.9116 94.2195 44.97C89.01 41.3879 82.7895 39.2789 76.47 39.0105ZM48.3479 51.3373C43.3829 57.2521 40.4761 64.8795 40.3321 72.6061C40.215 76.3321 40.8211 80.0521 41.8739 83.6189C49.0139 83.6055 56.1555 83.6145 63.2955 83.5921C64.0621 83.5261 63.9827 82.5795 64.0995 82.0305C66.9689 67.6905 69.855 53.355 72.735 39.0166C63.36 39.4979 54.3271 44.1166 48.3479 51.3373ZM56.9295 41.1584C61.9155 38.3805 67.5571 36.795 73.26 36.5716C73.1895 44.3323 73.3411 52.0934 73.3711 59.8561C73.47 73.6005 73.575 87.3466 73.6755 101.093C74.5245 100.997 75.3827 100.986 76.2345 101.081C76.1611 85.3861 76.1145 69.6916 76.0366 53.9984C75.9945 48.1889 76.0666 42.3779 75.8984 36.5716C82.395 36.7516 88.8377 38.7029 94.3321 42.1739C98.6173 44.8561 102.334 48.4334 105.198 52.5989C108.722 57.7095 110.925 63.7245 111.512 69.9073C112.044 75.0795 111.298 80.3205 109.734 85.26C109.564 85.7129 109.386 86.4329 108.763 86.37C101.859 86.4105 94.9561 86.4239 88.0516 86.4705C86.5079 86.5079 84.96 86.4284 83.4211 86.5589C83.1421 86.2155 83.0023 85.7911 82.9666 85.3545C81.6584 76.3921 80.2755 67.44 78.975 58.4761L78.7845 58.0277C78.8161 68.4179 78.8879 78.8084 78.9227 89.1989C88.5827 89.1345 98.2427 89.1073 107.904 89.0939C107.34 89.9071 106.779 90.7216 106.211 91.5316C100.005 91.5329 93.7995 91.5255 87.5939 91.5361C89.5066 92.8439 91.3261 94.3066 92.8845 96.0284C94.8061 98.1134 96.3839 100.509 97.5495 103.092C96.6916 103.466 95.8216 103.813 94.9577 104.172C92.5411 98.8079 88.0529 94.4384 82.6666 92.0911C81.5279 91.4279 80.19 91.6171 78.9361 91.6229C78.9179 92.8829 78.9555 94.1445 78.9405 95.4045C84.495 96.7979 89.2066 101.207 90.8445 106.71C89.9505 106.962 89.0534 107.205 88.1611 107.457C86.8066 103.162 83.2605 99.6377 78.9539 98.3205C78.9689 99.5595 78.9479 100.8 78.9871 102.041C81.6361 103.482 83.3055 106.493 83.2005 109.5C77.7373 109.504 72.2745 109.534 66.8116 109.541C66.6961 106.563 68.3116 103.556 70.9261 102.101C70.9589 100.86 70.9127 99.6179 70.92 98.3773C66.6134 99.6871 63.1289 103.302 61.8239 107.593C60.9255 107.344 60.0211 107.121 59.1271 106.864C60.7095 101.359 65.3505 96.8773 70.8929 95.4511C70.9079 94.1895 70.8689 92.9266 70.8855 91.665C69.9479 91.6995 68.9805 91.5284 68.0684 91.7955C62.2711 94.0455 57.4771 98.7029 54.9855 104.392C54.1216 104.038 53.2561 103.691 52.3889 103.343C54.2611 98.9773 57.3779 95.175 61.2134 92.3834L61.26 92.5095L61.2511 92.37C61.5616 92.1045 61.9171 91.8977 62.2484 91.6589C56.0145 91.65 49.7805 91.6727 43.5479 91.6366C43.0111 90.8189 42.4305 90.0329 41.8771 89.2261C51.5355 89.2273 61.1927 89.2273 70.8511 89.2273C70.7761 78.7727 70.725 68.3177 70.5989 57.8639C69.6677 64.0095 68.8666 70.1773 68.0027 76.3334C67.5766 79.4789 67.1221 82.62 66.7155 85.7684C66.6421 86.0805 66.5355 86.4434 66.2534 86.6279C62.2711 86.5561 58.2871 86.6566 54.3029 86.6505C50.1495 86.6866 45.9945 86.6984 41.8395 86.73C41.2739 86.7239 40.4595 86.9384 40.2361 86.2305C39.4427 84.2084 38.9445 82.0739 38.5245 79.9439C37.1729 72.8895 38.0789 65.4645 40.905 58.875C44.1166 51.4305 49.8389 45.0945 56.9295 41.1584Z" fill="white"/>
<path d="M22.875 121.909C21.9134 122.181 21.018 122.91 20.7735 123.91C20.5049 125.238 20.5665 126.6 20.5561 127.947C20.568 130.05 20.5155 132.154 20.6009 134.257C20.6325 135.021 20.91 135.792 21.453 136.343C22.1909 137.094 23.2875 137.31 24.3029 137.316C26.352 137.323 28.401 137.316 30.4515 137.32C31.35 137.322 32.3011 137.226 33.0645 136.708C33.7845 136.238 34.2089 135.405 34.2871 134.562C34.44 132.812 34.3979 131.053 34.4027 129.298C34.3995 127.689 34.4295 126.079 34.3171 124.474C34.2539 123.626 33.8027 122.8 33.0871 122.334C32.3071 121.825 31.35 121.744 30.4439 121.751C28.446 121.764 26.448 121.725 24.4501 121.761C23.9235 121.779 23.3865 121.764 22.875 121.909ZM23.187 116.082C25.3545 115.898 27.531 115.963 29.703 115.971C32.1511 116.028 34.725 116.274 36.855 117.591C38.5095 118.626 39.3779 120.528 39.7634 122.379C40.3066 124.849 40.1534 127.395 40.1777 129.906C40.1684 132.893 40.3127 136.02 39.075 138.816C38.445 140.342 37.1221 141.529 35.5755 142.08C32.5589 143.256 29.2665 142.987 26.0985 143.019C23.4104 143.016 20.547 142.869 18.189 141.435C16.41 140.362 15.5369 138.315 15.1651 136.351C14.6444 133.731 14.8515 131.046 14.8065 128.393C14.7975 125.496 14.766 122.43 16.134 119.79C16.875 118.307 18.2985 117.287 19.845 116.769C20.922 116.391 22.0546 116.196 23.187 116.082Z" fill="white"/>
<path d="M47.5934 115.998C49.3889 115.995 51.1845 116.007 52.98 115.992C53.0116 117.426 52.9816 118.861 52.9966 120.297C54.1366 118.832 55.5495 117.555 57.1921 116.676C58.5645 115.971 60.15 115.918 61.6605 115.969C63.4139 116.037 65.2305 116.018 66.8834 116.691C69.15 117.647 70.941 119.629 71.7255 121.956C72.4229 123.873 72.3134 125.938 72.3134 127.944C72.3121 132.862 72.3134 137.781 72.3121 142.698C70.3995 142.699 68.4855 142.699 66.5729 142.699C66.5716 138.28 66.585 133.861 66.5805 129.444C66.5879 127.813 66.7905 126.085 66.0434 124.572C65.3129 122.988 63.675 121.927 61.965 121.722C60.3929 121.53 58.7295 121.587 57.27 122.262C55.5884 123.04 54.2505 124.537 53.6984 126.31C53.4316 127.125 53.3445 127.989 53.3279 128.844C53.3279 133.462 53.3279 138.081 53.3279 142.701C51.4229 142.708 49.5195 142.68 47.6161 142.714C47.5621 133.81 47.6084 124.903 47.5934 115.998Z" fill="white"/>
<path d="M83.115 117.138C85.3529 116.098 87.8684 115.978 90.2955 115.962C93.045 115.987 95.85 115.816 98.535 116.53C99.9271 116.929 101.342 117.544 102.279 118.69C103.852 120.624 104.184 123.205 104.334 125.61C102.408 125.607 100.482 125.611 98.5577 125.607C98.5273 124.62 98.4916 123.505 97.755 122.754C96.8984 121.827 95.5471 121.703 94.3589 121.74C92.3084 121.75 90.2566 121.723 88.2061 121.752C87.1127 121.764 85.9216 122.149 85.3034 123.109C84.63 124.141 84.8129 125.436 84.7273 126.606C84.7439 129.153 84.6721 131.703 84.7727 134.252C84.8011 135.192 85.2377 136.156 86.0416 136.682C86.7989 137.205 87.75 137.307 88.6484 137.31C90.75 137.308 92.8516 137.311 94.9529 137.308C96.0179 137.307 97.185 136.996 97.86 136.114C98.4466 135.399 98.4779 134.43 98.535 133.551C96.6195 133.548 94.7055 133.551 92.79 133.549C92.79 131.631 92.7884 129.712 92.79 127.794C96.6434 127.8 100.498 127.777 104.352 127.804C104.287 130.825 104.553 133.891 103.892 136.868C103.513 138.501 102.789 140.167 101.397 141.184C99.7529 142.378 97.6874 142.755 95.7073 142.941C93.7066 143.074 91.6995 143.001 89.6955 143.02C87.1889 143.001 84.5579 142.747 82.3573 141.444C80.6955 140.427 79.8016 138.564 79.4084 136.718C78.8789 134.433 78.9871 132.073 78.9721 129.747C79.0021 126.745 78.7784 123.636 79.8571 120.773C80.4 119.192 81.5773 117.817 83.115 117.138Z" fill="white"/>
<path d="M114.892 117.423C117.123 116.181 119.745 116.001 122.246 115.975C125.153 115.993 128.124 115.798 130.959 116.575C132.57 117.012 134.156 117.888 135.051 119.343C136.278 121.333 136.543 123.726 136.639 126.015C134.713 126.015 132.789 126.015 130.864 126.015C130.826 124.922 130.872 123.679 130.097 122.807C129.307 121.909 128.029 121.729 126.9 121.749C124.751 121.761 122.601 121.734 120.452 121.765C119.397 121.777 118.262 122.16 117.641 123.058C117.09 123.821 117.088 124.803 117.039 125.701C117.002 128.25 117.006 130.798 117.028 133.347C117.048 134.256 117.069 135.251 117.641 136.009C118.303 136.951 119.509 137.302 120.612 137.314C122.811 137.325 125.008 137.318 127.207 137.319C128.307 137.314 129.525 136.999 130.2 136.063C130.845 135.213 130.776 134.095 130.849 133.088C132.777 133.086 134.706 133.089 136.635 133.086C136.562 134.648 136.431 136.224 135.956 137.723C135.587 138.947 134.964 140.132 133.978 140.97C132.813 141.93 131.342 142.421 129.876 142.695C127.909 143.082 125.893 143.025 123.9 143.031C121.699 143.029 119.466 143.077 117.318 142.526C115.686 142.143 114.075 141.357 113.068 139.973C112.148 138.669 111.709 137.088 111.488 135.527C111.195 133.563 111.3 131.574 111.272 129.597C111.288 126.812 111.126 123.952 111.984 121.262C112.461 119.698 113.428 118.217 114.892 117.423Z" fill="white"/>
</g>
<defs>
<clipPath id="clip0_102_1678">
<rect width="150" height="150" fill="white"/>
</clipPath>
</defs>
</svg>
