<svg width="300" height="195" viewBox="0 0 300 195" fill="none" xmlns="http://www.w3.org/2000/svg">
<path d="M206.242 175.298L205.811 175.163H205.381V174.218L210.689 173.813L210.976 174.083V176.244H211.119L211.263 175.974L212.698 174.758L213.558 174.218L213.989 174.083L214.276 173.948L214.706 173.813L215.997 173.542H216.858L218.006 173.813L219.01 174.218L219.441 174.623L220.445 175.433L220.875 176.244L221.88 175.298L222.453 174.893L223.888 174.083L224.175 173.948L224.606 173.813L225.897 173.542H226.758L227.475 173.678L227.905 173.813L228.479 173.948L229.196 174.488L229.483 174.623L230.057 175.298L230.344 175.704L230.631 176.379L230.775 177.459L230.918 178.675V186.644V186.779V186.914L231.062 187.184L231.205 187.319V187.454H231.349L231.492 187.589V187.725L231.922 187.86L232.783 187.995H232.927L233.357 188.13V189.075H225.466V188.13L225.897 187.995H226.184H226.614L226.901 187.86H227.044L227.331 187.725V187.589H227.475L227.618 187.454V187.319L227.762 187.184V187.049V186.779V178.675L227.618 177.594V177.324L227.188 176.514L227.044 176.244L226.614 175.839L226.327 175.704L225.897 175.568L225.61 175.433H225.036H224.319L223.171 175.704L223.027 175.839L222.597 176.109L222.023 176.379L221.593 176.784L221.019 177.73V186.374V186.779V187.049L221.162 187.184V187.319L221.306 187.454H221.449L221.593 187.725H221.736L222.023 187.86L222.74 187.995H222.884L223.314 188.13V189.075H215.567V188.13L215.997 187.995H216.284H216.571L217.145 187.86L217.432 187.589H217.576V187.454L217.719 187.049L217.863 186.779V186.644V186.509V178.675L217.719 177.594V177.324L217.432 176.784L217.289 176.514L217.002 176.244L216.571 175.839L216.141 175.568L215.71 175.433H215.137H214.419L213.702 175.704L212.698 176.109L212.124 176.514L211.406 177.189L211.263 177.459L210.976 177.73V186.509V186.644L211.119 186.779V187.049L211.263 187.184V187.319H211.406V187.454L211.693 187.589L212.124 187.86L212.841 187.995H212.985L213.415 188.13V189.075H205.524V188.13L205.955 187.995H206.385H206.672L207.246 187.86L207.533 187.725L207.676 187.454L207.82 187.319V187.184L207.963 187.049V186.779V176.649L207.676 176.244L207.389 175.839L207.102 175.568L206.242 175.298Z" fill="#1F1A17"/>
<path d="M184.004 168.545L182.426 168.68L181.995 168.815L181.565 168.95L181.278 169.085V169.22L181.135 169.355L180.848 169.76V170.166V186.239L180.991 186.779L181.135 187.184L181.422 187.454L181.852 187.724H181.995H182.139H182.282L183.43 187.859H185.582H185.869H186.586L187.16 187.724L188.165 187.454L188.595 187.319L188.882 187.184V187.049L190.317 185.293L191.751 182.592H192.899L192.469 189.075H174.248V187.995L175.683 187.859L176.4 187.724L176.831 187.319H176.974L177.118 187.049L177.261 186.779V186.644V186.374V170.166L177.118 169.625H176.974V169.355H176.831L176.544 169.085L175.683 168.815L174.392 168.545H174.248V167.464H184.004V168.545Z" fill="#1F1A17"/>
<path d="M200.503 166.924V167.194L200.646 167.464L200.79 167.869L200.646 168.275L200.503 168.95L200.072 169.355L199.785 169.625L199.212 169.895L198.781 170.031H198.351L197.777 169.895L197.347 169.76L197.06 169.49L196.773 169.085L196.486 168.545V168.41V168.275V168.005V167.599V167.464L196.773 167.059L196.916 166.654L197.203 166.384L197.633 166.114L197.92 165.979H198.207H198.351H198.781H199.212L199.642 166.114L199.929 166.384L200.072 166.519L200.503 166.924Z" fill="#1F1A17"/>
<path d="M194.334 175.163V174.218L200.216 173.812L200.359 174.083V186.509V186.644L200.503 187.049L200.646 187.319H200.79V187.454L201.22 187.724L201.507 187.859H201.651H201.938L202.368 187.995L202.798 188.13V189.075H194.908V188.13L195.338 187.995H195.768H196.055L196.342 187.859H196.629L196.916 187.589L197.06 187.454L197.203 187.319V187.184V187.049L197.347 186.779V176.919L197.203 176.784V176.649L197.06 176.379L196.916 176.109L196.773 175.974L196.199 175.568L196.055 175.433L195.481 175.298L194.908 175.163H194.334Z" fill="#1F1A17"/>
<path d="M251.721 174.083H256.455V175.568H251.721V184.348L251.864 185.833L252.008 186.104L252.151 186.509L252.295 186.779L252.582 187.049V187.184L252.869 187.319H253.012L253.586 187.454L254.017 187.589H254.16H254.447L256.599 187.319H256.742V188.4L254.447 189.21L253.73 189.345H253.299H253.012H251.864L250.86 189.21L249.999 188.805L249.712 188.67L249.569 188.535L249.426 188.265L249.139 187.859L248.852 186.914L248.708 186.509V175.568H245.839V174.083H248.708V169.355H251.721V174.083Z" fill="#1F1A17"/>
<path d="M266.209 173.543L264.488 173.813L264.057 173.948L263.196 174.489L262.192 175.029L261.331 175.704L260.901 176.245L259.897 177.865L259.466 179.216L259.179 180.702V181.782L259.323 182.998L259.753 184.889L260.184 185.834L260.901 186.78L261.618 187.59L261.905 187.86L262.479 188.266L263.483 188.806L264.057 189.076L265.062 189.346L266.209 189.481H266.353H266.783H267.214L268.218 189.346H268.792L269.509 189.076L270.37 188.671L271.231 188.13L272.091 187.455L272.952 186.375L273.526 185.564L272.378 184.889L272.235 185.294L271.374 186.24L270.657 187.05L270.083 187.32L269.222 187.59L268.505 187.725L267.931 187.86L266.64 187.725L266.209 187.59L265.922 187.455H265.779L265.635 187.32H265.348L265.205 187.185L264.631 186.78L264.201 186.51L263.77 185.834L263.196 185.159L262.766 184.078L262.623 182.863L262.479 181.107H273.239L273.096 179.081L272.809 177.46L272.378 176.38L271.805 175.704L271.231 175.164L270.513 174.489L269.939 174.219L268.935 173.813L267.501 173.678L266.209 173.543ZM265.779 174.759H266.066H266.209H266.496H267.214L267.931 175.029L268.218 175.164L268.505 175.434L268.935 175.839L269.366 176.515L269.653 177.46L269.939 178.406V179.756H262.479V178.946L262.766 177.865L262.91 177.19L263.34 176.65L263.627 176.109L264.344 175.434L265.205 175.029L265.779 174.759Z" fill="#1F1A17"/>
<path d="M241.822 167.329V167.734V168.14V168.545L241.535 168.95L241.391 169.22L241.104 169.625L240.674 169.76L240.387 169.895L239.957 170.031H239.526L238.952 169.895L238.522 169.76L238.378 169.625L238.092 169.22L237.805 168.815L237.661 168.41V168.275V167.869L237.805 167.464V167.194L238.092 166.654L238.378 166.384L238.809 166.114L239.096 165.979H239.239H239.526H240.244H240.387L240.817 166.114L241.104 166.384L241.248 166.519L241.678 166.924V167.194L241.822 167.329Z" fill="#1F1A17"/>
<path d="M235.653 175.163V174.218L241.248 173.812L241.535 174.083V186.644V186.779L241.678 186.914V187.049V187.184L241.822 187.319L241.965 187.454L242.396 187.724L242.826 187.859H243.113L243.543 187.995L243.974 188.13V189.075H236.083V188.13L236.513 187.995H236.8H237.231L237.805 187.859L238.092 187.589L238.235 187.454L238.378 187.184V187.049L238.522 186.914V186.779V186.644V177.189L238.378 176.514L238.092 176.109L237.948 175.974L237.518 175.703L237.231 175.433L236.657 175.298L236.083 175.163H235.653Z" fill="#1F1A17"/>
<path d="M290.886 165.439L284.286 165.709V166.655L286.008 166.925L286.725 167.06L287.012 167.195L287.443 167.465L287.73 167.87L288.016 168.411V168.681V169.356V174.489L286.151 173.813L284.573 173.543H283.569L282.852 173.678L282.134 173.813L280.269 174.489L279.121 175.299L278.548 175.839L278.117 176.38L277.543 177.055L276.826 178.406L276.539 179.081L276.396 179.891L276.252 181.512L276.396 183.268L276.826 184.754L277.543 186.104L278.404 187.32L278.835 187.86L279.408 188.266L280.269 188.806L280.7 188.941L281.56 189.211L282.995 189.481H283.856L284.86 189.346L286.582 188.671L286.725 188.401L288.016 187.455H288.16V188.941L288.303 189.076L294.042 188.806V187.86L292.607 187.725H292.464L292.321 187.59H292.177L291.89 187.455V187.32H291.747L291.603 187.185L291.316 186.915V186.78V186.645L291.173 186.24V165.709L290.886 165.439ZM283.569 174.759H283.856H284.143H284.286H284.43H284.717H285.147L285.721 174.894L286.151 175.164L286.725 175.434L287.299 176.11L287.873 176.785L288.016 177.055V177.325V186.104L287.73 186.51L287.012 187.05L286.151 187.59L285.434 187.86H284.143H283.856H283.712L282.852 187.59L282.278 187.32L282.134 187.185L281.704 186.915L281.417 186.78L280.843 185.969L280.7 185.699L280.269 184.754L279.839 183.268L279.695 180.972L279.839 179.486L280.413 177.865L280.7 177.055L281.704 175.839L282.278 175.299L282.708 175.164L282.995 175.029L283.569 174.759Z" fill="#1F1A17"/>
<path d="M32.9319 173.948L33.5058 174.218L34.0797 174.758L34.797 175.704L35.0839 176.514L35.3709 177.459V186.644L35.5143 186.914L35.6578 187.319V187.454L35.9447 187.589L36.0882 187.725H36.2317L36.6621 187.86L36.8056 187.995H36.949H37.0925H37.3794L37.8098 188.13V189.075H29.7756V188.13L30.206 187.995H30.6364H31.0668L31.6407 187.86L31.7842 187.725L31.9276 187.589L32.0711 187.454V187.319L32.2146 187.184V187.049V186.779V178.405L32.0711 177.324L31.7842 176.784V176.649L31.6407 176.514L31.2103 176.109L30.7799 175.839L30.0625 175.433H29.4887H29.3452H28.4844L28.3409 175.568L27.9105 175.704L27.6236 175.839L27.1932 175.974L26.6193 176.244L26.1889 176.649L25.615 177.189L25.3281 177.73V186.644V186.779V186.914L25.4716 187.184L25.615 187.319L25.7585 187.454L26.1889 187.725L26.3324 187.86L27.1932 187.995H27.3367L27.7671 188.13V189.075H19.8763V188.13L20.1632 187.995H20.5936H21.024L21.5979 187.86L21.8849 187.589V187.454H22.0283L22.1718 187.049L22.3153 186.779V176.919L22.1718 176.514L22.0283 176.244L21.7414 175.839L21.311 175.568L21.1675 175.433L20.7371 175.298H20.5936L19.7328 175.163V174.218L25.0412 173.813L25.3281 174.083V176.109L25.902 175.839L26.9062 174.758L27.4801 174.488L28.3409 174.083L28.9148 173.813L30.3495 173.542H31.0668L31.9276 173.678L32.358 173.813L32.9319 173.948Z" fill="#1F1A17"/>
<path d="M55.1675 165.439L48.5679 165.709V166.655L50.2896 166.925H50.72L51.2938 167.195L51.5808 167.33L51.8677 167.6L52.0112 167.87L52.2981 168.411V168.546V168.681L52.4416 169.356V174.489L51.7242 174.219L50.433 173.813L48.8549 173.543H47.8506L47.1333 173.678L46.4159 173.813L44.5508 174.489L43.69 175.164L42.8292 175.839L41.6815 177.325L40.9641 179.081L40.6772 179.891L40.5337 181.107V181.917L40.6772 183.268L40.8207 183.538L41.2511 185.159L41.8249 186.104L42.2553 186.78L42.9727 187.59L43.69 188.266L44.5508 188.806L44.8378 188.941L45.842 189.211L46.5594 189.481H47.2767H48.281L49.1418 189.346L50.1461 188.941L51.1504 188.401L51.8677 187.86L52.2981 187.455H52.4416V188.941L52.5851 189.076L58.3238 188.806V187.86L57.0326 187.725H56.7456L56.6022 187.59H56.4587L56.3152 187.455L56.1718 187.32H56.0283L55.7414 186.915L55.5979 186.645L55.4544 186.24V165.709L55.1675 165.439ZM47.8506 174.759H48.281H48.4245H48.7114H48.8549H48.9983H49.4288L50.0026 174.894L51.0069 175.434L51.5808 176.11L52.1546 176.785L52.4416 177.325V186.104L51.2938 187.05L50.433 187.59L50.2896 187.725L49.7157 187.86H48.4245H48.281H47.9941L47.1333 187.59L46.9898 187.455L46.5594 187.32L46.129 187.05L45.9855 186.915L45.842 186.78L45.1247 185.969L44.8378 185.564L44.4074 184.484L43.977 182.863V182.323V180.567L44.4074 178.811L44.8378 177.595L45.2682 176.65L46.129 175.704L46.4159 175.434L46.5594 175.299L46.9898 175.164L47.7071 174.894L47.8506 174.759Z" fill="#1F1A17"/>
<path d="M14.7114 168.68L13.8506 168.95L13.4202 169.22L13.2768 169.355L13.1333 169.625V169.896L12.9898 170.301V186.104L13.1333 186.509V186.779L13.4202 187.049V187.184H13.5637L13.8506 187.454L14.1376 187.589L14.568 187.724L15.5723 187.859L16.5765 187.995V189.075H5.95988V187.995H6.24682L8.25538 187.724H8.54231H8.68578V187.589H8.82925L8.97272 187.454L9.25965 187.319V187.184L9.40312 187.049V186.914L9.54659 186.779V186.239V170.301L9.40312 169.625L9.11618 169.355L8.82925 169.085H8.68578L8.54231 168.95H8.25538L6.96416 168.545H5.95988V167.464H16.5765V168.545H16.2896L14.7114 168.68Z" fill="#1F1A17"/>
<path d="M75.542 174.083V185.969L75.6855 186.104V186.239V186.509L75.8289 186.914L75.9724 187.049L76.4028 187.454L76.8332 187.724H76.9767H77.1201L78.1244 187.859V188.805L72.8161 189.075L72.5292 188.94V187.049L71.3814 187.995L70.8075 188.4L69.8033 188.94L69.3729 189.075L68.512 189.345H68.2251L66.7904 189.48L66.0731 189.345L65.6427 189.21L65.2123 189.075L64.3515 188.805L63.9211 188.265L63.4907 187.859L63.0603 187.049L62.9168 186.509L62.6298 185.158V184.618V177.054V176.919V176.784V176.649L62.4864 176.379V176.244L62.1994 175.839L62.056 175.703L61.6256 175.433L61.3386 175.298H61.0517L60.1909 175.163V174.218L65.4992 173.812L65.7861 174.083V185.293L65.9296 185.969L66.2166 186.509L66.5035 187.049L67.2208 187.454L67.6512 187.724H67.9382L68.512 187.859L68.6555 187.724H68.9425H69.3729L70.0902 187.454L70.6641 187.319L71.2379 186.914L71.3814 186.779L71.6683 186.644L72.0988 186.239L72.5292 185.563V177.054V176.919V176.784V176.514L72.3857 176.109L72.2422 175.974L72.0988 175.839L71.6683 175.433H71.5249L71.3814 175.298H71.0945H70.951H70.8075H70.5206L69.5163 175.163V174.218L75.3985 173.812L75.542 174.083Z" fill="#1F1A17"/>
<path d="M81.8546 176.109L82.1415 175.704V175.568L82.285 175.433L82.7154 175.028L83.0023 174.758L83.8631 174.218L84.724 173.813L85.5848 173.678L86.4456 173.542H87.3064L88.1672 173.678L89.1715 173.948L90.3192 174.353L90.7496 173.542H91.8974L92.1843 178.405H91.0366L90.8931 178L90.4627 176.919L90.0323 176.379L89.3149 175.568L88.5976 175.163L87.8803 174.893H87.7368L87.5933 174.758H87.1629H87.0194H86.7325H85.8717L85.2978 175.028L84.8674 175.298L84.437 175.568L84.2935 175.704L84.0066 176.109V176.244L83.8631 176.919V177.459L84.1501 178L84.2935 178.27L84.724 178.675L85.1544 178.945L85.4413 179.08L90.0323 180.701L90.3192 180.836L90.4627 180.971L91.3235 181.376L91.8974 181.917L92.1843 182.322L92.6147 182.997L92.9016 183.402L93.0451 183.943V185.023L92.9016 185.699L92.7582 186.374L92.3278 187.049L91.8974 187.589L91.6104 187.995L90.7496 188.535L90.1757 188.805L89.4584 189.075L89.1715 189.21L87.8803 189.48H86.589H85.8717L85.2978 189.345L83.8631 188.805L83.1458 188.4L82.7154 188.13L82.285 189.075H81.1372L80.8503 183.808H82.1415V184.213V184.348L82.8589 185.699L83.7197 186.644L84.0066 187.049L84.724 187.589L85.4413 187.995L85.8717 188.13L86.589 188.265H87.1629H88.3107L88.8845 187.995L89.4584 187.86L89.8888 187.454L90.1757 187.049L90.3192 186.509L90.4627 185.969V185.428L90.3192 184.888V184.753L90.1757 184.483L90.0323 184.348L89.4584 183.808L89.1715 183.673L88.8845 183.402L87.3064 182.862L86.3021 182.592L83.7197 181.647L83.2893 181.376L83.0023 181.106L82.285 180.566L81.8546 179.891L81.7111 179.621L81.4242 178.54V177.594L81.5677 176.919L81.7111 176.514L81.8546 176.109Z" fill="#1F1A17"/>
<path d="M125.039 167.464L125.325 166.924L125.469 166.654L125.756 166.384L126.043 166.114L126.473 165.979H126.617H126.76H127.191H127.621L128.051 166.114L128.338 166.384L128.625 166.654L128.912 166.924V167.194L129.056 167.464V167.734V168.14V168.275L128.912 168.68L128.625 169.22L128.482 169.355L128.195 169.625L127.764 169.895L127.191 170.031H126.76L126.186 169.895L125.899 169.76L125.612 169.49L125.325 169.085L125.039 168.545V168.41L124.895 168.275V167.869L125.039 167.464Z" fill="#1F1A17"/>
<path d="M118.726 173.677H119.3H119.587L120.161 173.948L120.591 174.488L121.021 175.028L121.165 175.703V176.109L121.021 176.514V176.919L120.734 177.324L120.448 177.594L120.161 177.73L119.874 177.865L119.443 178L118.869 177.865H118.582L118.152 177.594L118.009 177.459L117.865 177.324L117.722 177.189L117.578 176.919V176.784V176.649V176.514V176.379V176.244V176.109V175.974V175.839L117.722 175.703V175.433V175.298L117.291 175.433L116.574 175.568L116.144 175.839L115.426 176.244L114.709 176.919L114.135 177.594V186.509L114.278 187.049L114.422 187.319H114.565V187.454L115.139 187.724L115.283 187.86L116.43 187.995L117.291 188.13V189.075H108.683V188.13L109.114 187.995H109.544H109.831L110.405 187.86L110.692 187.589L110.835 187.454L110.979 187.319V187.184L111.122 187.049V186.779V176.919L110.979 176.514V176.379L110.548 175.839L109.974 175.433L109.687 175.298H109.4L108.827 175.163H108.54V174.218L113.991 173.813L114.135 174.083V176.109H114.278L115.57 174.758L116.144 174.488L117.148 173.948L118.009 173.677H118.296H118.726Z" fill="#1F1A17"/>
<path d="M124.752 175.568L124.465 175.433H124.178L123.317 175.163H122.887V174.218L128.482 173.812L128.769 174.083V186.644L128.912 186.779V186.914V187.049V187.184L129.056 187.319H129.199V187.454H129.343L129.773 187.724L130.06 187.859H130.49L130.777 187.995L131.208 188.13V189.075H123.317V188.13L123.747 187.995H124.178H124.465L125.039 187.859L125.325 187.589H125.469V187.454L125.756 187.049V186.914V186.779V176.919V176.784L125.325 176.109L125.039 175.839L124.752 175.568Z" fill="#1F1A17"/>
<path d="M140.675 173.678L139.24 173.813L138.953 173.948L137.949 174.489L137.375 174.759L136.801 175.299L135.797 176.244L135.079 177.19L134.505 178.541L134.218 179.216L134.075 180.297V181.377V182.998L134.505 184.484L135.079 185.834L136.084 187.32L136.657 187.86L137.375 188.265L138.379 188.806L138.953 189.076L139.957 189.346L141.105 189.481H141.248H141.535L143.114 189.346H143.544L144.261 189.076L145.122 188.806L145.266 188.671L145.552 188.536L146.844 187.455L147.561 186.78L148.422 185.564L147.274 184.889L146.557 185.969L146.27 186.239L145.552 187.05L144.979 187.32L144.118 187.59L143.4 187.725L142.683 187.86L141.392 187.725L140.531 187.455L139.67 187.05L139.096 186.51L138.523 185.834L138.092 185.159L137.518 183.403L137.375 182.458L137.231 181.107H147.991V178.676L147.705 177.865L147.561 177.19L147.274 176.38L146.7 175.704L146.126 175.164L145.409 174.489L144.835 174.218L143.831 173.813L143.114 173.678H142.253H140.675ZM140.675 174.759H141.105H141.392H142.109L142.54 174.894L143.257 175.299L143.687 175.704L143.974 175.974L144.118 176.244L144.405 177.055L144.548 177.46L144.835 179.351V179.756H137.231L137.518 178.406L137.805 177.19L138.236 176.38L138.379 176.244L138.523 176.109L138.953 175.704L139.096 175.569L139.383 175.299L139.67 175.164L139.957 175.029L140.675 174.759Z" fill="#1F1A17"/>
<path d="M95.3406 175.568V174.083H98.3534V169.355H101.366V174.083H105.957V175.568H101.366V184.888L101.51 186.104L101.653 186.509L101.797 186.779L101.94 186.914L102.227 187.184L102.514 187.319L103.088 187.454L103.518 187.589H103.805H103.949L106.101 187.319H106.244V188.4L105.814 188.67L103.805 189.21L103.231 189.345H102.944H102.657H101.366H100.936L100.505 189.21H100.362L99.7881 189.075L99.3577 188.805L99.2142 188.535L98.9273 188.13L98.4969 187.589L98.3534 186.914L98.21 186.239V175.568H95.3406Z" fill="#1F1A17"/>
<path d="M160.475 174.353L160.906 173.542H162.053L162.34 178.405H161.193L161.049 178L160.762 177.324L160.188 176.379L159.758 175.839L159.184 175.298L158.467 175.028L158.323 174.893H158.036L157.749 174.758H157.319H157.175H156.888H156.028L155.454 175.028L155.023 175.298L154.593 175.568L154.306 175.839L154.163 176.109L154.019 176.649V177.189L154.163 177.73L154.306 178.135L154.593 178.405L154.736 178.54V178.675H154.88L155.023 178.81L155.597 179.08L157.032 179.621L160.188 180.701L160.332 180.836L160.619 180.971L161.479 181.376L162.053 181.917L162.34 182.322L162.771 182.862L162.914 183.132L163.058 183.943L163.201 184.483V185.023L163.058 185.428L162.914 186.239V186.374L162.771 186.644L162.34 187.184L161.766 187.995L161.049 188.4L160.762 188.535L160.332 188.805L159.901 189.075L158.036 189.48H156.745H156.028L155.454 189.345L154.88 189.075L153.302 188.4L152.728 188.13L152.441 189.075H151.15L151.006 183.808H152.297V184.078L152.441 184.483L153.015 185.699L153.158 185.834L153.589 186.374L154.306 187.184L154.88 187.589L155.597 187.995L156.028 188.13L156.888 188.265H157.462H158.467L158.754 188.13L159.614 187.86L160.045 187.454L160.332 187.049L160.475 186.779L160.619 186.239V185.969V185.428V185.158V185.023L160.475 184.753L160.188 184.348L160.045 184.213L159.614 183.808L159.327 183.673L159.041 183.402L157.893 182.997L156.458 182.592L154.306 181.782L153.732 181.511L153.158 181.106L153.015 180.971L152.728 180.836L152.297 180.431L152.011 179.891L151.724 179.485V179.215L151.58 178.81L151.437 178L151.58 177.594V177.324L151.724 176.514L152.011 176.109L152.297 175.568L152.441 175.433L152.728 175.163L153.015 174.893L153.158 174.758L153.302 174.623L154.019 174.218L155.167 173.813L155.454 173.678L156.602 173.542H157.462L158.897 173.813L159.758 174.083L160.475 174.353Z" fill="#1F1A17"/>
<path d="M250.43 121.677L251.864 122.487L253.156 123.432L254.447 124.918L255.164 126.134L255.451 126.944L255.738 127.89V128.97V129.916L255.595 131.131L255.164 132.212L254.734 132.752L254.447 133.022L254.303 133.157L254.16 133.292L253.73 133.563L253.012 133.833L251.864 133.968L251.291 133.833H250.286L249.712 133.563L248.852 133.157L248.708 133.022H248.565L248.134 132.617L247.56 131.942V131.672L247.417 131.537L247.273 131.266V131.131V130.996V130.861V130.591L247.13 130.456L247.273 128.97L248.134 125.053V124.783L247.991 124.513L247.847 124.243L247.273 123.838L246.413 123.432L245.408 123.162L244.404 123.027H242.826H241.965L240.674 123.432L239.383 123.838L238.092 124.783L236.944 125.864L236.226 126.809L235.939 127.349L235.079 128.97L234.361 131.131L233.501 135.318V139.1L234.218 144.233L234.935 146.124L235.796 147.88L236.513 148.825L237.805 150.311L239.383 151.526L240.244 152.067L241.535 152.607L244.117 153.012H246.126L247.417 152.742L249.282 152.202L249.999 151.932L250.86 151.391L252.151 150.446L254.447 148.015L255.595 146.394L258.034 147.88L256.886 149.365L254.59 152.067L252.295 153.823L249.282 155.578L247.13 156.254L245.121 156.794L242.969 156.929H241.391L239.526 156.659L237.805 156.254L236.513 155.984L234.505 155.173L233.501 154.498L232.066 153.552L231.062 152.742L229.627 151.256L228.479 149.5L227.475 147.745L226.471 145.178L226.327 144.368L226.04 143.017L225.753 140.046L225.897 135.453L226.471 132.887L227.188 130.861L228.192 128.97L230.201 126.269L231.635 124.783L233.357 123.432L235.222 122.217L236.944 121.542L239.526 120.731L241.535 120.461L244.691 120.326L247.273 120.731L248.995 121.136L250.43 121.677Z" fill="#1F1A17"/>
<path d="M277.256 120.327L273.813 120.867L271.805 121.407L269.653 122.488L268.505 123.163C268.074 123.568 267.501 123.838 267.501 123.838L265.635 125.594L264.631 126.945L263.196 128.971L262.336 130.997L261.762 132.618L261.188 135.049L260.901 136.67V139.371L261.331 143.423L262.479 147.205L263.483 149.096L265.492 151.797L266.353 152.608L267.357 153.418L268.361 154.229L270.37 155.309L272.235 155.984L274.961 156.66L278.691 156.93L282.421 156.525L284.573 155.984L286.151 155.309L288.303 154.093L290.025 152.743L291.747 151.122L292.751 149.771L294.042 147.88L291.316 146.26L290.025 148.421L288.16 150.447L287.299 151.122L286.725 151.662L286.008 151.932L285.004 152.338L283.569 152.743L281.273 153.013L278.835 152.878L276.969 152.608L275.535 152.067L274.53 151.527L274.1 151.257L273.239 150.717L272.809 150.312L271.518 148.961L269.939 146.395L269.222 144.504L268.648 141.532L268.361 137.615H293.038L292.894 132.213L292.321 129.511L291.173 126.945L290.168 125.324L289.021 124.109L287.586 122.893L286.582 122.353L284.86 121.542L282.134 120.732L279.839 120.462L277.256 120.327ZM276.969 123.028H278.404H279.265L279.982 123.163L281.13 123.703L281.704 123.973L282.421 124.514L282.852 124.784L283.712 125.864L284.286 127.08L284.86 128.296L285.578 132.078L285.721 134.644H268.361L268.505 133.968L269.222 129.781L270.083 127.755L270.657 126.81L271.805 125.459L272.809 124.514L273.813 123.973L274.674 123.568L275.391 123.298L275.822 123.163L276.969 123.028Z" fill="#1F1A17"/>
<path d="M211.55 122.082L212.411 122.757L213.128 123.432L213.989 124.783L214.706 126.134L214.993 127.079L215.567 129.375V130.456L215.71 150.446L215.854 151.121L215.997 151.662L216.141 151.797L216.428 152.202L216.571 152.337L216.858 152.607L217.432 152.877L218.867 153.417L219.584 153.552L221.019 153.688V155.984H202.798V153.688L205.668 153.417L206.672 153.147L206.959 153.012L207.389 152.742L207.676 152.472L208.107 151.932L208.25 151.526L208.537 150.446L208.394 130.456L208.25 129.781L207.963 128.97L207.389 127.62L206.672 126.539L205.955 125.864L205.094 125.323L204.233 124.918L203.372 124.648H202.798L202.081 124.513L200.216 124.648L198.351 125.188L196.773 125.729L195.481 126.539L194.334 127.349L193.616 128.025L192.612 129.51L192.325 129.781V150.041L192.469 150.851L192.612 151.121L193.042 151.932L193.329 152.202L193.616 152.337L194.19 152.742L195.338 153.147L197.203 153.552L198.064 153.688V155.984H179.843V153.688L182.569 153.417L183.574 153.147L183.717 153.012L184.147 152.742L184.578 152.472L185.008 151.932V151.662L185.295 150.986V150.446V128.295L185.152 127.484L185.008 126.944L184.434 125.999L184.147 125.594L183.717 125.188L183.287 124.783L182.426 124.513L181.708 124.243L179.987 123.973H179.413V121.677L191.895 120.866L192.325 121.406V126.269H192.612L194.19 124.783L196.773 122.757L197.777 122.082L198.925 121.542L200.216 121.136L201.22 120.866L202.798 120.461L204.52 120.326L206.959 120.461L208.681 120.866L210.259 121.406L211.55 122.082Z" fill="#1F1A17"/>
<path d="M125.325 103.442L125.899 103.307L126.473 103.172H126.904L127.477 103.307L128.195 103.442L128.625 103.578L129.199 103.848L130.203 104.523L130.634 105.063L130.921 105.469L131.064 105.874L131.208 106.009V106.279L131.495 106.819V107.495V107.9V108.575L131.208 109.385L131.064 109.791L130.921 110.196L130.203 111.141L129.63 111.682L128.769 112.087L128.051 112.492L127.334 112.627H127.191H126.617H125.899L125.325 112.492L124.895 112.222L124.034 111.817L123.46 111.411L122.887 110.736L122.743 110.466L122.6 110.331L122.313 109.656L122.169 109.25L122.026 108.845L121.882 108.035L122.026 107.224L122.169 106.549L122.313 106.144L122.887 105.198L123.46 104.523L123.747 104.253L124.034 103.983L124.608 103.713L125.325 103.442Z" fill="#1F1A17"/>
<path d="M75.8269 120.327L72.2402 120.867L70.3751 121.407L68.0796 122.488L67.0754 123.163L65.0668 124.784L64.206 125.594L63.0582 126.945L61.767 128.971L60.4758 131.807L59.9019 134.239L59.4715 137.075L59.615 142.072L60.1889 144.639L60.7627 146.395L61.6236 148.286L62.054 149.096L64.0625 151.797L64.9233 152.608L65.9276 153.418L67.6492 154.634L68.9404 155.309L70.8055 155.984L72.6706 156.525H73.101L73.388 156.66L77.2616 156.93L80.8483 156.525L83.1438 155.984L84.7219 155.309L86.7305 154.093L88.5956 152.743L89.8868 151.527L91.3215 149.771L92.6127 147.88L89.8868 146.26L87.8783 149.231L86.4436 150.717L85.1524 151.662L84.5785 151.932L83.5742 152.338L82.8569 152.608L82.1395 152.743L79.844 153.013H77.8355L76.8312 152.878L74.1053 152.067L73.101 151.527L72.5271 151.257L71.8098 150.717L71.2359 150.312L70.0882 148.961L69.6578 148.421L68.797 146.935L67.9362 145.044L67.2188 141.532L66.9319 137.615H91.6084L91.465 132.213L90.7476 129.106L90.0303 127.485L89.026 125.864L87.7348 124.244L86.1566 122.893L85.1524 122.353L83.4307 121.542L82.283 121.137L80.7048 120.732L78.4093 120.462L75.8269 120.327ZM75.54 123.028H76.9747H77.8355L78.5528 123.163L79.7006 123.703L80.131 123.838L81.4222 124.784L82.283 125.864L82.7134 126.675L83.2873 127.89L84.0046 132.078L84.1481 133.563V134.644H66.9319L67.0754 132.618L67.7927 129.781L68.6535 127.755L69.0839 126.81L70.0882 125.729L71.0925 124.784L72.0967 124.109L73.101 123.568L73.9618 123.298L74.2488 123.163L75.54 123.028Z" fill="#1F1A17"/>
<path d="M5.95788 106.145V108.576L9.97499 109.251L11.4097 109.657L12.127 110.197L12.7009 110.737L12.9878 111.412L13.1313 112.358V112.898V149.501L12.9878 150.447L12.7009 151.392L12.127 152.068L11.5531 152.473L10.9793 152.743L10.8358 152.878L10.1185 153.013L5.95788 153.418V155.985H28.6259V153.418L24.0349 153.013L23.1741 152.608L22.6002 152.338L22.0263 152.068L21.7394 151.662L21.5959 151.392L21.4524 150.852L21.309 149.771V133.428H26.7608L33.7907 142.208L43.8335 155.985H58.3238V153.418L56.6022 153.283L54.4501 152.878L53.5893 152.608L52.4416 152.068L51.0069 151.122L50.0026 150.312L48.5679 148.826L34.6515 131.402L38.0948 130.322L40.5337 129.241L42.1119 128.296L43.5466 127.35L45.2682 125.594L46.2725 124.109L46.8463 122.893L47.5637 120.057L47.7071 117.625L47.5637 115.735L47.1333 114.114L46.4159 112.493L45.9855 111.953L44.9812 110.737L43.69 109.657L43.1162 109.251L41.9684 108.576L39.9599 107.631L37.234 106.82L33.2168 106.28L5.95788 106.145ZM21.309 108.981L29.3432 109.116L30.6344 109.251L32.356 109.657L33.7907 110.332L34.6515 110.872L35.6558 111.683L36.2297 112.358L37.0905 113.438L37.234 113.844L37.8078 115.194L38.2382 116.68L38.3817 118.301L38.0948 121.272L37.5209 123.568L36.8035 125.054L35.6558 126.405L34.3646 127.756L33.2168 128.566L31.9256 129.241L30.9214 129.646L29.7736 129.917L28.052 130.322H21.309V108.981Z" fill="#1F1A17"/>
<path d="M155.308 120.327L152.582 120.732L152.009 120.867L149.713 121.542L147.848 122.488L146.413 123.298L144.835 124.649L143.831 125.729L143.4 126.405L143.257 126.81L142.97 127.755V128.025V128.161V129.241L143.114 129.916L143.544 130.862L143.974 131.402L144.261 131.672L144.979 132.213H145.122L145.409 132.348H145.696L146.126 132.483H147.131H147.418H147.561L148.565 132.213L149.139 131.942L149.57 131.672L150.143 131.132L150.717 130.322L150.861 130.187L151.004 129.781V129.511V128.566V127.62L150.861 126.945L150.43 125.054L150.287 124.649L150.574 124.514L150.861 124.109L151.435 123.838L152.439 123.433L153.587 123.163L154.878 122.893H155.308L157.03 123.028L157.747 123.163H158.178L158.895 123.433L159.182 123.703L159.899 124.109L160.76 124.919L161.621 125.864L161.908 126.405L162.482 128.025L162.625 128.296L162.912 130.322V133.833L159.182 135.184L147.131 139.371L145.266 140.317L143.974 141.262L143.257 142.072L142.683 142.748L142.109 143.828L141.679 144.639L141.248 146.26L141.105 147.745V148.691L141.392 150.447L141.535 150.852L141.966 152.067L142.396 152.878L143.114 153.823L144.835 155.309L146.413 156.119L147.274 156.39L148.709 156.66L151.435 156.93L154.017 156.66L154.591 156.525L156.6 155.849L158.178 155.174L159.612 154.364L161.477 152.878L162.769 151.662H163.056V152.203L163.343 153.013L163.773 153.823L164.49 154.634L165.208 155.444L165.638 155.714L166.212 155.984L167.073 156.255L168.507 156.66H169.942H171.52L172.668 156.39L176.111 155.309V153.148L172.525 153.013L172.381 152.878H172.094L171.951 152.743L171.377 152.473L170.946 152.067L170.516 151.797L170.086 151.122L169.799 150.177V149.771L169.942 130.051L169.368 127.215L168.938 125.999L168.22 124.784L167.503 123.838L166.929 123.163L166.499 122.893L164.49 121.542L162.912 121.002L161.764 120.732L157.747 120.327H155.308ZM162.912 136.805L162.625 148.961L161.191 150.447L159.756 151.527L158.465 152.203L157.173 152.608L155.452 153.013H153.874H153.587L152.152 152.608L151.435 152.338L151.004 152.067L150.143 151.392L149.426 150.582L148.996 149.636V149.366L148.852 148.421L148.709 146.8L148.996 145.179L149.426 144.098L149.713 143.693L150.43 142.613L151.435 141.532L153.443 140.182L155.021 139.371L158.608 138.156L162.912 136.805Z" fill="#1F1A17"/>
<path d="M117.148 124.243V121.947L130.203 121.136L130.777 121.676V150.041L130.921 150.851L131.208 151.526L131.351 151.932L131.782 152.337L132.068 152.607L132.786 152.877L134.938 153.552L136.229 153.687V155.984H118.296V153.687L119.73 153.552H120.161L121.308 153.417L122.026 153.147L122.456 153.012L122.887 152.742L123.173 152.337L123.317 152.202L123.46 151.796L123.604 151.256L123.747 150.176V128.97V128.295L123.46 127.349L123.317 127.079L123.03 126.674L122.6 125.999L122.026 125.458L121.595 125.188L120.878 124.918L119.587 124.648L117.148 124.243Z" fill="#1F1A17"/>
<path d="M108.253 106.684V150.176L108.396 150.716L108.54 151.121L108.827 151.796L108.97 152.202L109.544 152.607L109.831 152.742L110.261 153.012L110.692 153.147L111.839 153.552L112.7 153.687H113.705V155.984H96.0579V153.687H96.4884L99.5012 153.417L99.9316 153.147L100.362 152.877L100.505 152.742L100.936 152.472V152.202L101.223 151.796L101.366 151.121L101.51 150.581L100.936 112.897L100.505 110.871L100.362 110.331L100.219 110.196L100.075 110.061V109.791L99.7881 109.656L99.6447 109.52H99.5012L99.3577 109.385L99.2143 109.25V109.115H98.9273L98.21 108.98L94.6233 109.25L94.4798 106.819L107.679 106.144L108.253 106.684Z" fill="#1F1A17"/>
<path d="M186.299 38.205L187.447 42.5272L188.308 48.2L188.165 55.3586L186.873 62.3821L185.152 67.6497L182.713 72.7822L179.7 77.3745L177.978 79.6707L173.1 84.8032L168.222 88.7202L166.788 89.3955L165.497 89.9358L163.201 90.476H162.484H161.766H160.332L158.897 90.2059L157.175 89.6656L156.315 89.1254L156.028 88.9903L155.31 88.3149L135.512 67.3795H135.368L138.811 67.5146L140.964 67.2445L143.689 66.5691L145.698 65.6237L147.276 64.6782L149.285 63.0574L150.432 61.8418L150.863 61.4366L152.297 59.1405L153.015 57.2495L153.445 55.2235L153.589 52.6572V52.117L153.015 49.0104L152.154 47.1195L151.437 45.7688L150.002 44.0129L149.572 43.6077L148.28 42.5272L146.272 41.3116L145.124 40.9064L141.681 39.8259L139.816 39.4207L136.229 39.2856L132.929 39.6908L131.925 39.8259L128.195 41.0415L124.895 42.7973L121.739 44.9584L119.156 47.6597L117.865 49.1455L115.857 52.117L114.278 55.4936L113.131 58.8703L112.413 62.7873L111.983 67.6497L112.413 74.268L113.418 79.8057L115.857 87.9098L117.435 91.0163L119.874 94.528L115.713 92.6371L109.687 89.1254L102.657 83.3175L98.7838 79.1304L94.9102 73.3225L92.3278 67.9198L90.4627 61.8418L89.4584 55.6287L89.3149 49.1455L90.3192 41.4467L92.3278 35.0985L94.6233 30.3712L98.0665 25.1035L98.7838 24.2931L104.666 17.945L109.114 14.4332L113.991 11.4618L119.156 9.03054L123.747 7.54481L127.477 6.46427L133.934 5.5188H142.111L146.128 5.924L151.437 6.86947L157.749 8.76041L165.21 12.2722L169.083 14.7034L173.818 18.7554L174.965 19.8359L179.987 25.9139L183.287 31.1816L186.299 38.205Z" fill="#C0A062"/>
<path d="M127.621 56.3042L128.195 59.4107L128.912 61.842L134.794 75.7539L135.225 77.5097L135.368 80.6163V81.8319L134.794 84.2631L133.79 86.8294L131.925 89.8009L129.773 92.6373L127.764 94.7983L125.899 92.7723L123.173 89.3957L121.021 85.6138L120.161 83.0475L119.874 81.8319L119.587 79.8059L119.73 78.4552L120.017 76.4292L120.878 74.2681L123.03 69.946L126.473 61.0315L127.621 56.3042Z" fill="#C0A062"/>
</svg>
