<svg width="304" height="195" viewBox="0 0 304 195" fill="none" xmlns="http://www.w3.org/2000/svg">
<path d="M208.991 175.298L208.555 175.163H208.119V174.218L213.498 173.813L213.789 174.083V176.244H213.934L214.08 175.974L215.534 174.758L216.406 174.218L216.842 174.083L217.133 173.948L217.569 173.813L218.877 173.542H219.75L220.913 173.813L221.93 174.218L222.367 174.623L223.384 175.433L223.82 176.244L224.838 175.298L225.42 174.893L226.873 174.083L227.164 173.948L227.6 173.813L228.909 173.542H229.781L230.508 173.678L230.944 173.813L231.526 173.948L232.252 174.488L232.543 174.623L233.125 175.298L233.415 175.704L233.706 176.379L233.852 177.459L233.997 178.675V186.644V186.779V186.914L234.142 187.184L234.288 187.319V187.454H234.433L234.579 187.589V187.725L235.015 187.86L235.887 187.995H236.032L236.468 188.13V189.075H228.473V188.13L228.909 187.995H229.199H229.636L229.926 187.86H230.072L230.362 187.725V187.589H230.508L230.653 187.454V187.319L230.799 187.184V187.049V186.779V178.675L230.653 177.594V177.324L230.217 176.514L230.072 176.244L229.636 175.839L229.345 175.704L228.909 175.568L228.618 175.433H228.036H227.309L226.146 175.704L226.001 175.839L225.565 176.109L224.983 176.379L224.547 176.784L223.966 177.73V186.374V186.779V187.049L224.111 187.184V187.319L224.256 187.454H224.402L224.547 187.725H224.693L224.983 187.86L225.71 187.995H225.856L226.292 188.13V189.075H218.441V188.13L218.877 187.995H219.168H219.459L220.04 187.86L220.331 187.589H220.477V187.454L220.622 187.049L220.767 186.779V186.644V186.509V178.675L220.622 177.594V177.324L220.331 176.784L220.186 176.514L219.895 176.244L219.459 175.839L219.023 175.568L218.587 175.433H218.005H217.278L216.551 175.704L215.534 176.109L214.952 176.514L214.225 177.189L214.08 177.459L213.789 177.73V186.509V186.644L213.934 186.779V187.049L214.08 187.184V187.319H214.225V187.454L214.516 187.589L214.952 187.86L215.679 187.995H215.824L216.261 188.13V189.075H208.265V188.13L208.701 187.995H209.137H209.428L210.009 187.86L210.3 187.725L210.445 187.454L210.591 187.319V187.184L210.736 187.049V186.779V176.649L210.445 176.244L210.155 175.839L209.864 175.568L208.991 175.298Z" fill="#1F1A17"/>
<path d="M186.457 168.545L184.858 168.68L184.422 168.815L183.986 168.95L183.695 169.085V169.22L183.55 169.355L183.259 169.76V170.166V186.239L183.404 186.779L183.55 187.184L183.841 187.454L184.277 187.724H184.422H184.567H184.713L185.876 187.859H188.057H188.347H189.074L189.656 187.724L190.673 187.454L191.11 187.319L191.4 187.184V187.049L192.854 185.293L194.308 182.592H195.471L195.035 189.075H176.571V187.995L178.025 187.859L178.752 187.724L179.188 187.319H179.334L179.479 187.049L179.624 186.779V186.644V186.374V170.166L179.479 169.625H179.334V169.355H179.188L178.898 169.085L178.025 168.815L176.717 168.545H176.571V167.464H186.457V168.545Z" fill="#1F1A17"/>
<path d="M203.176 166.924V167.194L203.322 167.464L203.467 167.869L203.322 168.275L203.176 168.95L202.74 169.355L202.449 169.625L201.868 169.895L201.432 170.031H200.995L200.414 169.895L199.978 169.76L199.687 169.49L199.396 169.085L199.106 168.545V168.41V168.275V168.005V167.599V167.464L199.396 167.059L199.542 166.654L199.832 166.384L200.269 166.114L200.559 165.979H200.85H200.995H201.432H201.868L202.304 166.114L202.595 166.384L202.74 166.519L203.176 166.924Z" fill="#1F1A17"/>
<path d="M196.925 175.163V174.218L202.885 173.812L203.031 174.083V186.509V186.644L203.176 187.049L203.322 187.319H203.467V187.454L203.903 187.724L204.194 187.859H204.339H204.63L205.066 187.995L205.502 188.13V189.075H197.506V188.13L197.942 187.995H198.379H198.669L198.96 187.859H199.251L199.542 187.589L199.687 187.454L199.832 187.319V187.184V187.049L199.978 186.779V176.919L199.832 176.784V176.649L199.687 176.379L199.542 176.109L199.396 175.974L198.815 175.568L198.669 175.433L198.088 175.298L197.506 175.163H196.925Z" fill="#1F1A17"/>
<path d="M255.077 174.083H259.875V175.568H255.077V184.348L255.223 185.833L255.368 186.104L255.513 186.509L255.659 186.779L255.95 187.049V187.184L256.24 187.319H256.386L256.967 187.454L257.403 187.589H257.549H257.84L260.02 187.319H260.166V188.4L257.84 189.21L257.113 189.345H256.676H256.386H255.223L254.205 189.21L253.333 188.805L253.042 188.67L252.897 188.535L252.751 188.265L252.46 187.859L252.17 186.914L252.024 186.509V175.568H249.117V174.083H252.024V169.355H255.077V174.083Z" fill="#1F1A17"/>
<path d="M269.759 173.543L268.014 173.813L267.578 173.948L266.706 174.489L265.688 175.029L264.816 175.704L264.38 176.245L263.362 177.865L262.926 179.216L262.635 180.702V181.782L262.78 182.998L263.217 184.889L263.653 185.834L264.38 186.78L265.107 187.59L265.397 187.86L265.979 188.266L266.997 188.806L267.578 189.076L268.596 189.346L269.759 189.481H269.904H270.34H270.776L271.794 189.346H272.376L273.103 189.076L273.975 188.671L274.847 188.13L275.719 187.455L276.592 186.375L277.173 185.564L276.01 184.889L275.865 185.294L274.992 186.24L274.266 187.05L273.684 187.32L272.812 187.59L272.085 187.725L271.503 187.86L270.195 187.725L269.759 187.59L269.468 187.455H269.323L269.177 187.32H268.886L268.741 187.185L268.16 186.78L267.723 186.51L267.287 185.834L266.706 185.159L266.27 184.078L266.124 182.863L265.979 181.107H276.882L276.737 179.081L276.446 177.46L276.01 176.38L275.429 175.704L274.847 175.164L274.12 174.489L273.539 174.219L272.521 173.813L271.067 173.678L269.759 173.543ZM269.323 174.759H269.613H269.759H270.05H270.776L271.503 175.029L271.794 175.164L272.085 175.434L272.521 175.839L272.957 176.515L273.248 177.46L273.539 178.406V179.756H265.979V178.946L266.27 177.865L266.415 177.19L266.851 176.65L267.142 176.109L267.869 175.434L268.741 175.029L269.323 174.759Z" fill="#1F1A17"/>
<path d="M245.046 167.329V167.734V168.14V168.545L244.755 168.95L244.61 169.22L244.319 169.625L243.883 169.76L243.592 169.895L243.156 170.031H242.72L242.138 169.895L241.702 169.76L241.557 169.625L241.266 169.22L240.975 168.815L240.83 168.41V168.275V167.869L240.975 167.464V167.194L241.266 166.654L241.557 166.384L241.993 166.114L242.284 165.979H242.429H242.72H243.447H243.592L244.028 166.114L244.319 166.384L244.464 166.519L244.901 166.924V167.194L245.046 167.329Z" fill="#1F1A17"/>
<path d="M238.795 175.163V174.218L244.464 173.812L244.755 174.083V186.644V186.779L244.901 186.914V187.049V187.184L245.046 187.319L245.191 187.454L245.628 187.724L246.064 187.859H246.354L246.791 187.995L247.227 188.13V189.075H239.231V188.13L239.667 187.995H239.958H240.394L240.975 187.859L241.266 187.589L241.411 187.454L241.557 187.184V187.049L241.702 186.914V186.779V186.644V177.189L241.557 176.514L241.266 176.109L241.121 175.974L240.685 175.703L240.394 175.433L239.812 175.298L239.231 175.163H238.795Z" fill="#1F1A17"/>
<path d="M294.764 165.439L288.077 165.709V166.655L289.821 166.925L290.548 167.06L290.839 167.195L291.275 167.465L291.566 167.87L291.857 168.411V168.681V169.356V174.489L289.967 173.813L288.368 173.543H287.35L286.623 173.678L285.896 173.813L284.006 174.489L282.843 175.299L282.262 175.839L281.825 176.38L281.244 177.055L280.517 178.406L280.226 179.081L280.081 179.891L279.935 181.512L280.081 183.268L280.517 184.754L281.244 186.104L282.116 187.32L282.552 187.86L283.134 188.266L284.006 188.806L284.442 188.941L285.315 189.211L286.768 189.481H287.641L288.658 189.346L290.403 188.671L290.548 188.401L291.857 187.455H292.002V188.941L292.147 189.076L297.963 188.806V187.86L296.509 187.725H296.363L296.218 187.59H296.073L295.782 187.455V187.32H295.637L295.491 187.185L295.2 186.915V186.78V186.645L295.055 186.24V165.709L294.764 165.439ZM287.35 174.759H287.641H287.931H288.077H288.222H288.513H288.949L289.531 174.894L289.967 175.164L290.548 175.434L291.13 176.11L291.711 176.785L291.857 177.055V177.325V186.104L291.566 186.51L290.839 187.05L289.967 187.59L289.24 187.86H287.931H287.641H287.495L286.623 187.59L286.041 187.32L285.896 187.185L285.46 186.915L285.169 186.78L284.588 185.969L284.442 185.699L284.006 184.754L283.57 183.268L283.425 180.972L283.57 179.486L284.151 177.865L284.442 177.055L285.46 175.839L286.041 175.299L286.478 175.164L286.768 175.029L287.35 174.759Z" fill="#1F1A17"/>
<path d="M33.371 173.948L33.9525 174.218L34.5341 174.758L35.261 175.704L35.5517 176.514L35.8425 177.459V186.644L35.9879 186.914L36.1333 187.319V187.454L36.424 187.589L36.5694 187.725H36.7148L37.1509 187.86L37.2963 187.995H37.4417H37.5871H37.8778L38.314 188.13V189.075H30.1726V188.13L30.6088 187.995H31.0449H31.4811L32.0626 187.86L32.208 187.725L32.3533 187.589L32.4987 187.454V187.319L32.6441 187.184V187.049V186.779V178.405L32.4987 177.324L32.208 176.784V176.649L32.0626 176.514L31.6264 176.109L31.1903 175.839L30.4634 175.433H29.8819H29.7365H28.8642L28.7188 175.568L28.2827 175.704L27.9919 175.839L27.5558 175.974L26.9742 176.244L26.5381 176.649L25.9566 177.189L25.6658 177.73V186.644V186.779V186.914L25.8112 187.184L25.9566 187.319L26.102 187.454L26.5381 187.725L26.6835 187.86L27.5558 187.995H27.7011L28.1373 188.13V189.075H20.1413V188.13L20.4321 187.995H20.8682H21.3044L21.8859 187.86L22.1767 187.589V187.454H22.322L22.4674 187.049L22.6128 186.779V176.919L22.4674 176.514L22.322 176.244L22.0313 175.839L21.5951 175.568L21.4498 175.433L21.0136 175.298H20.8682L19.9959 175.163V174.218L25.375 173.813L25.6658 174.083V176.109L26.2473 175.839L27.265 174.758L27.8465 174.488L28.7188 174.083L29.3003 173.813L30.7541 173.542H31.4811L32.3533 173.678L32.7895 173.813L33.371 173.948Z" fill="#1F1A17"/>
<path d="M55.903 165.439L49.2155 165.709V166.655L50.9601 166.925H51.3962L51.9777 167.195L52.2685 167.33L52.5593 167.6L52.7046 167.87L52.9954 168.411V168.546V168.681L53.1408 169.356V174.489L52.4139 174.219L51.1055 173.813L49.5063 173.543H48.4886L47.7617 173.678L47.0348 173.813L45.1448 174.489L44.2725 175.164L43.4003 175.839L42.2372 177.325L41.5103 179.081L41.2195 179.891L41.0742 181.107V181.917L41.2195 183.268L41.3649 183.538L41.8011 185.159L42.3826 186.104L42.8187 186.78L43.5456 187.59L44.2725 188.266L45.1448 188.806L45.4356 188.941L46.4533 189.211L47.1802 189.481H47.9071H48.9247L49.797 189.346L50.8147 188.941L51.8324 188.401L52.5593 187.86L52.9954 187.455H53.1408V188.941L53.2862 189.076L59.1014 188.806V187.86L57.793 187.725H57.5022L57.3568 187.59H57.2115L57.0661 187.455L56.9207 187.32H56.7753L56.4846 186.915L56.3392 186.645L56.1938 186.24V165.709L55.903 165.439ZM48.4886 174.759H48.9247H49.0701H49.3609H49.5063H49.6516H50.0878L50.6693 174.894L51.687 175.434L52.2685 176.11L52.85 176.785L53.1408 177.325V186.104L51.9777 187.05L51.1055 187.59L50.9601 187.725L50.3786 187.86H49.0701H48.9247H48.634L47.7617 187.59L47.6163 187.455L47.1802 187.32L46.744 187.05L46.5986 186.915L46.4533 186.78L45.7264 185.969L45.4356 185.564L44.9994 184.484L44.5633 182.863V182.323V180.567L44.9994 178.811L45.4356 177.595L45.8717 176.65L46.744 175.704L47.0348 175.434L47.1802 175.299L47.6163 175.164L48.3432 174.894L48.4886 174.759Z" fill="#1F1A17"/>
<path d="M14.9076 168.68L14.0353 168.95L13.5992 169.22L13.4538 169.355L13.3084 169.625V169.896L13.163 170.301V186.104L13.3084 186.509V186.779L13.5992 187.049V187.184H13.7445L14.0353 187.454L14.3261 187.589L14.7622 187.724L15.7799 187.859L16.7975 187.995V189.075H6.03934V187.995H6.3301L8.36544 187.724H8.6562H8.80158V187.589H8.94696L9.09234 187.454L9.3831 187.319V187.184L9.52848 187.049V186.914L9.67387 186.779V186.239V170.301L9.52848 169.625L9.23772 169.355L8.94696 169.085H8.80158L8.6562 168.95H8.36544L7.05701 168.545H6.03934V167.464H16.7975V168.545H16.5068L14.9076 168.68Z" fill="#1F1A17"/>
<path d="M76.5492 174.083V185.969L76.6946 186.104V186.239V186.509L76.84 186.914L76.9854 187.049L77.4215 187.454L77.8577 187.724H78.003H78.1484L79.1661 187.859V188.805L73.787 189.075L73.4962 188.94V187.049L72.3332 187.995L71.7516 188.4L70.734 188.94L70.2978 189.075L69.4255 189.345H69.1348L67.681 189.48L66.9541 189.345L66.5179 189.21L66.0818 189.075L65.2095 188.805L64.7733 188.265L64.3372 187.859L63.9011 187.049L63.7557 186.509L63.4649 185.158V184.618V177.054V176.919V176.784V176.649L63.3195 176.379V176.244L63.0288 175.839L62.8834 175.703L62.4473 175.433L62.1565 175.298H61.8657L60.9934 175.163V174.218L66.3725 173.812L66.6633 174.083V185.293L66.8087 185.969L67.0994 186.509L67.3902 187.049L68.1171 187.454L68.5533 187.724H68.844L69.4255 187.859L69.5709 187.724H69.8617H70.2978L71.0247 187.454L71.6063 187.319L72.1878 186.914L72.3332 186.779L72.6239 186.644L73.0601 186.239L73.4962 185.563V177.054V176.919V176.784V176.514L73.3508 176.109L73.2055 175.974L73.0601 175.839L72.6239 175.433H72.4786L72.3332 175.298H72.0424H71.897H71.7516H71.4609L70.4432 175.163V174.218L76.4038 173.812L76.5492 174.083Z" fill="#1F1A17"/>
<path d="M82.946 176.109L83.2367 175.704V175.568L83.3821 175.433L83.8183 175.028L84.109 174.758L84.9813 174.218L85.8536 173.813L86.7259 173.678L87.5982 173.542H88.4705L89.3428 173.678L90.3604 173.948L91.5235 174.353L91.9596 173.542H93.1227L93.4134 178.405H92.2504L92.105 178L91.6689 176.919L91.2327 176.379L90.5058 175.568L89.7789 175.163L89.052 174.893H88.9066L88.7612 174.758H88.3251H88.1797H87.8889H87.0167L86.4351 175.028L85.999 175.298L85.5628 175.568L85.4175 175.704L85.1267 176.109V176.244L84.9813 176.919V177.459L85.2721 178L85.4175 178.27L85.8536 178.675L86.2897 178.945L86.5805 179.08L91.2327 180.701L91.5235 180.836L91.6689 180.971L92.5411 181.376L93.1227 181.917L93.4134 182.322L93.8496 182.997L94.1403 183.402L94.2857 183.943V185.023L94.1403 185.699L93.995 186.374L93.5588 187.049L93.1227 187.589L92.8319 187.995L91.9596 188.535L91.3781 188.805L90.6512 189.075L90.3604 189.21L89.052 189.48H87.7436H87.0167L86.4351 189.345L84.9813 188.805L84.2544 188.4L83.8183 188.13L83.3821 189.075H82.2191L81.9283 183.808H83.2367V184.213V184.348L83.9637 185.699L84.8359 186.644L85.1267 187.049L85.8536 187.589L86.5805 187.995L87.0167 188.13L87.7436 188.265H88.3251H89.4881L90.0697 187.995L90.6512 187.86L91.0873 187.454L91.3781 187.049L91.5235 186.509L91.6689 185.969V185.428L91.5235 184.888V184.753L91.3781 184.483L91.2327 184.348L90.6512 183.808L90.3604 183.673L90.0697 183.402L88.4705 182.862L87.4528 182.592L84.8359 181.647L84.3998 181.376L84.109 181.106L83.3821 180.566L82.946 179.891L82.8006 179.621L82.5098 178.54V177.594L82.6552 176.919L82.8006 176.514L82.946 176.109Z" fill="#1F1A17"/>
<path d="M126.706 167.464L126.996 166.924L127.142 166.654L127.433 166.384L127.723 166.114L128.16 165.979H128.305H128.45H128.886H129.323L129.759 166.114L130.049 166.384L130.34 166.654L130.631 166.924V167.194L130.776 167.464V167.734V168.14V168.275L130.631 168.68L130.34 169.22L130.195 169.355L129.904 169.625L129.468 169.895L128.886 170.031H128.45L127.869 169.895L127.578 169.76L127.287 169.49L126.996 169.085L126.706 168.545V168.41L126.56 168.275V167.869L126.706 167.464Z" fill="#1F1A17"/>
<path d="M120.309 173.677H120.89H121.181L121.763 173.948L122.199 174.488L122.635 175.028L122.78 175.703V176.109L122.635 176.514V176.919L122.344 177.324L122.054 177.594L121.763 177.73L121.472 177.865L121.036 178L120.454 177.865H120.164L119.727 177.594L119.582 177.459L119.437 177.324L119.291 177.189L119.146 176.919V176.784V176.649V176.514V176.379V176.244V176.109V175.974V175.839L119.291 175.703V175.433V175.298L118.855 175.433L118.128 175.568L117.692 175.839L116.965 176.244L116.238 176.919L115.657 177.594V186.509L115.802 187.049L115.948 187.319H116.093V187.454L116.674 187.724L116.82 187.86L117.983 187.995L118.855 188.13V189.075H110.132V188.13L110.568 187.995H111.005H111.295L111.877 187.86L112.168 187.589L112.313 187.454L112.458 187.319V187.184L112.604 187.049V186.779V176.919L112.458 176.514V176.379L112.022 175.839L111.441 175.433L111.15 175.298H110.859L110.278 175.163H109.987V174.218L115.511 173.813L115.657 174.083V176.109H115.802L117.111 174.758L117.692 174.488L118.71 173.948L119.582 173.677H119.873H120.309Z" fill="#1F1A17"/>
<path d="M126.415 175.568L126.124 175.433H125.833L124.961 175.163H124.525V174.218L130.195 173.812L130.486 174.083V186.644L130.631 186.779V186.914V187.049V187.184L130.776 187.319H130.922V187.454H131.067L131.503 187.724L131.794 187.859H132.23L132.521 187.995L132.957 188.13V189.075H124.961V188.13L125.397 187.995H125.833H126.124L126.706 187.859L126.996 187.589H127.142V187.454L127.433 187.049V186.914V186.779V176.919V176.784L126.996 176.109L126.706 175.839L126.415 175.568Z" fill="#1F1A17"/>
<path d="M142.55 173.678L141.096 173.813L140.806 173.948L139.788 174.489L139.206 174.759L138.625 175.299L137.607 176.244L136.88 177.19L136.299 178.541L136.008 179.216L135.863 180.297V181.377V182.998L136.299 184.484L136.88 185.834L137.898 187.32L138.48 187.86L139.206 188.265L140.224 188.806L140.806 189.076L141.823 189.346L142.986 189.481H143.132H143.423L145.022 189.346H145.458L146.185 189.076L147.057 188.806L147.202 188.671L147.493 188.536L148.802 187.455L149.529 186.78L150.401 185.564L149.238 184.889L148.511 185.969L148.22 186.239L147.493 187.05L146.912 187.32L146.039 187.59L145.312 187.725L144.586 187.86L143.277 187.725L142.405 187.455L141.533 187.05L140.951 186.51L140.37 185.834L139.933 185.159L139.352 183.403L139.206 182.458L139.061 181.107H149.965V178.676L149.674 177.865L149.529 177.19L149.238 176.38L148.656 175.704L148.075 175.164L147.348 174.489L146.766 174.218L145.749 173.813L145.022 173.678H144.149H142.55ZM142.55 174.759H142.986H143.277H144.004L144.44 174.894L145.167 175.299L145.603 175.704L145.894 175.974L146.039 176.244L146.33 177.055L146.476 177.46L146.766 179.351V179.756H139.061L139.352 178.406L139.643 177.19L140.079 176.38L140.224 176.244L140.37 176.109L140.806 175.704L140.951 175.569L141.242 175.299L141.533 175.164L141.823 175.029L142.55 174.759Z" fill="#1F1A17"/>
<path d="M96.6118 175.568V174.083H99.6648V169.355H102.718V174.083H107.37V175.568H102.718V184.888L102.863 186.104L103.009 186.509L103.154 186.779L103.299 186.914L103.59 187.184L103.881 187.319L104.462 187.454L104.899 187.589H105.189H105.335L107.515 187.319H107.661V188.4L107.225 188.67L105.189 189.21L104.608 189.345H104.317H104.026H102.718H102.282L101.846 189.21H101.7L101.119 189.075L100.682 188.805L100.537 188.535L100.246 188.13L99.8102 187.589L99.6648 186.914L99.5194 186.239V175.568H96.6118Z" fill="#1F1A17"/>
<path d="M162.615 174.353L163.051 173.542H164.214L164.505 178.405H163.342L163.196 178L162.906 177.324L162.324 176.379L161.888 175.839L161.306 175.298L160.58 175.028L160.434 174.893H160.143L159.853 174.758H159.416H159.271H158.98H158.108L157.527 175.028L157.09 175.298L156.654 175.568L156.363 175.839L156.218 176.109L156.073 176.649V177.189L156.218 177.73L156.363 178.135L156.654 178.405L156.8 178.54V178.675H156.945L157.09 178.81L157.672 179.08L159.126 179.621L162.324 180.701L162.469 180.836L162.76 180.971L163.633 181.376L164.214 181.917L164.505 182.322L164.941 182.862L165.086 183.132L165.232 183.943L165.377 184.483V185.023L165.232 185.428L165.086 186.239V186.374L164.941 186.644L164.505 187.184L163.923 187.995L163.196 188.4L162.906 188.535L162.469 188.805L162.033 189.075L160.143 189.48H158.835H158.108L157.527 189.345L156.945 189.075L155.346 188.4L154.764 188.13L154.473 189.075H153.165L153.02 183.808H154.328V184.078L154.473 184.483L155.055 185.699L155.2 185.834L155.637 186.374L156.363 187.184L156.945 187.589L157.672 187.995L158.108 188.13L158.98 188.265H159.562H160.58L160.87 188.13L161.743 187.86L162.179 187.454L162.469 187.049L162.615 186.779L162.76 186.239V185.969V185.428V185.158V185.023L162.615 184.753L162.324 184.348L162.179 184.213L161.743 183.808L161.452 183.673L161.161 183.402L159.998 182.997L158.544 182.592L156.363 181.782L155.782 181.511L155.2 181.106L155.055 180.971L154.764 180.836L154.328 180.431L154.037 179.891L153.747 179.485V179.215L153.601 178.81L153.456 178L153.601 177.594V177.324L153.747 176.514L154.037 176.109L154.328 175.568L154.473 175.433L154.764 175.163L155.055 174.893L155.2 174.758L155.346 174.623L156.073 174.218L157.236 173.813L157.527 173.678L158.69 173.542H159.562L161.016 173.813L161.888 174.083L162.615 174.353Z" fill="#1F1A17"/>
<path d="M253.769 121.677L255.223 122.487L256.531 123.432L257.84 124.918L258.566 126.134L258.857 126.944L259.148 127.89V128.97V129.916L259.003 131.131L258.566 132.212L258.13 132.752L257.84 133.022L257.694 133.157L257.549 133.292L257.113 133.563L256.386 133.833L255.223 133.968L254.641 133.833H253.623L253.042 133.563L252.17 133.157L252.024 133.022H251.879L251.443 132.617L250.861 131.942V131.672L250.716 131.537L250.57 131.266V131.131V130.996V130.861V130.591L250.425 130.456L250.57 128.97L251.443 125.053V124.783L251.297 124.513L251.152 124.243L250.57 123.838L249.698 123.432L248.681 123.162L247.663 123.027H246.064H245.191L243.883 123.432L242.575 123.838L241.266 124.783L240.103 125.864L239.376 126.809L239.085 127.349L238.213 128.97L237.486 131.131L236.614 135.318V139.1L237.341 144.233L238.068 146.124L238.94 147.88L239.667 148.825L240.975 150.311L242.575 151.526L243.447 152.067L244.755 152.607L247.372 153.012H249.407L250.716 152.742L252.606 152.202L253.333 151.932L254.205 151.391L255.513 150.446L257.84 148.015L259.003 146.394L261.474 147.88L260.311 149.365L257.985 152.067L255.659 153.823L252.606 155.578L250.425 156.254L248.39 156.794L246.209 156.929H244.61L242.72 156.659L240.975 156.254L239.667 155.984L237.632 155.173L236.614 154.498L235.16 153.552L234.142 152.742L232.689 151.256L231.526 149.5L230.508 147.745L229.49 145.178L229.345 144.368L229.054 143.017L228.763 140.046L228.909 135.453L229.49 132.887L230.217 130.861L231.235 128.97L233.27 126.269L234.724 124.783L236.468 123.432L238.358 122.217L240.103 121.542L242.72 120.731L244.755 120.461L247.954 120.326L250.57 120.731L252.315 121.136L253.769 121.677Z" fill="#1F1A17"/>
<path d="M280.953 120.327L277.464 120.867L275.429 121.407L273.248 122.488L272.085 123.163C271.649 123.568 271.067 123.838 271.067 123.838L269.177 125.594L268.16 126.945L266.706 128.971L265.833 130.997L265.252 132.618L264.67 135.049L264.38 136.67V139.371L264.816 143.423L265.979 147.205L266.996 149.096L269.032 151.797L269.904 152.608L270.922 153.418L271.939 154.229L273.975 155.309L275.865 155.984L278.627 156.66L282.407 156.93L286.187 156.525L288.368 155.984L289.967 155.309L292.147 154.093L293.892 152.743L295.637 151.122L296.654 149.771L297.963 147.88L295.2 146.26L293.892 148.421L292.002 150.447L291.13 151.122L290.548 151.662L289.821 151.932L288.804 152.338L287.35 152.743L285.024 153.013L282.552 152.878L280.662 152.608L279.209 152.067L278.191 151.527L277.755 151.257L276.882 150.717L276.446 150.312L275.138 148.961L273.539 146.395L272.812 144.504L272.23 141.532L271.939 137.615H296.945L296.8 132.213L296.218 129.511L295.055 126.945L294.037 125.324L292.874 124.109L291.421 122.893L290.403 122.353L288.658 121.542L285.896 120.732L283.57 120.462L280.953 120.327ZM280.662 123.028H282.116H282.988L283.715 123.163L284.878 123.703L285.46 123.973L286.187 124.514L286.623 124.784L287.495 125.864L288.077 127.08L288.658 128.296L289.385 132.078L289.531 134.644H271.939L272.085 133.968L272.812 129.781L273.684 127.755L274.266 126.81L275.429 125.459L276.446 124.514L277.464 123.973L278.336 123.568L279.063 123.298L279.499 123.163L280.662 123.028Z" fill="#1F1A17"/>
<path d="M214.371 122.082L215.243 122.757L215.97 123.432L216.842 124.783L217.569 126.134L217.86 127.079L218.441 129.375V130.456L218.587 150.446L218.732 151.121L218.877 151.662L219.023 151.797L219.314 152.202L219.459 152.337L219.75 152.607L220.331 152.877L221.785 153.417L222.512 153.552L223.966 153.688V155.984H205.502V153.688L208.41 153.417L209.428 153.147L209.718 153.012L210.155 152.742L210.445 152.472L210.881 151.932L211.027 151.526L211.318 150.446L211.172 130.456L211.027 129.781L210.736 128.97L210.155 127.62L209.428 126.539L208.701 125.864L207.828 125.323L206.956 124.918L206.084 124.648H205.502L204.775 124.513L202.885 124.648L200.995 125.188L199.396 125.729L198.088 126.539L196.925 127.349L196.198 128.025L195.18 129.51L194.889 129.781V150.041L195.035 150.851L195.18 151.121L195.616 151.932L195.907 152.202L196.198 152.337L196.779 152.742L197.942 153.147L199.832 153.552L200.705 153.688V155.984H182.241V153.688L185.004 153.417L186.021 153.147L186.167 153.012L186.603 152.742L187.039 152.472L187.475 151.932V151.662L187.766 150.986V150.446V128.295L187.62 127.484L187.475 126.944L186.894 125.999L186.603 125.594L186.167 125.188L185.73 124.783L184.858 124.513L184.131 124.243L182.387 123.973H181.805V121.677L194.453 120.866L194.889 121.406V126.269H195.18L196.779 124.783L199.396 122.757L200.414 122.082L201.577 121.542L202.885 121.136L203.903 120.866L205.502 120.461L207.247 120.326L209.718 120.461L211.463 120.866L213.062 121.406L214.371 122.082Z" fill="#1F1A17"/>
<path d="M126.996 103.442L127.578 103.307L128.16 103.172H128.596L129.177 103.307L129.904 103.442L130.34 103.578L130.922 103.848L131.939 104.523L132.376 105.063L132.666 105.469L132.812 105.874L132.957 106.009V106.279L133.248 106.819V107.495V107.9V108.575L132.957 109.385L132.812 109.791L132.666 110.196L131.939 111.141L131.358 111.682L130.486 112.087L129.759 112.492L129.032 112.627H128.886H128.305H127.578L126.996 112.492L126.56 112.222L125.688 111.817L125.107 111.411L124.525 110.736L124.38 110.466L124.234 110.331L123.943 109.656L123.798 109.25L123.653 108.845L123.507 108.035L123.653 107.224L123.798 106.549L123.943 106.144L124.525 105.198L125.107 104.523L125.397 104.253L125.688 103.983L126.27 103.713L126.996 103.442Z" fill="#1F1A17"/>
<path d="M76.8379 120.327L73.2034 120.867L71.3135 121.407L68.9874 122.488L67.9697 123.163L65.9344 124.784L65.0621 125.594L63.899 126.945L62.5906 128.971L61.2822 131.807L60.7006 134.239L60.2645 137.075L60.4099 142.072L60.9914 144.639L61.5729 146.395L62.4452 148.286L62.8814 149.096L64.9167 151.797L65.789 152.608L66.8066 153.418L68.5512 154.634L69.8597 155.309L71.7496 155.984L73.6396 156.525H74.0757L74.3665 156.66L78.2918 156.93L81.9263 156.525L84.2524 155.984L85.8516 155.309L87.8869 154.093L89.7769 152.743L91.0853 151.527L92.5391 149.771L93.8475 147.88L91.0853 146.26L89.05 149.231L87.5962 150.717L86.2877 151.662L85.7062 151.932L84.6885 152.338L83.9616 152.608L83.2347 152.743L80.9086 153.013H78.8733L77.8556 152.878L75.0934 152.067L74.0757 151.527L73.4942 151.257L72.7673 150.717L72.1858 150.312L71.0227 148.961L70.5866 148.421L69.7143 146.935L68.842 145.044L68.1151 141.532L67.8243 137.615H92.8299L92.6845 132.213L91.9576 129.106L91.2307 127.485L90.213 125.864L88.9046 124.244L87.3054 122.893L86.2877 122.353L84.5431 121.542L83.3801 121.137L81.7809 120.732L79.4548 120.462L76.8379 120.327ZM76.5472 123.028H78.001H78.8733L79.6002 123.163L80.7632 123.703L81.1994 123.838L82.5078 124.784L83.3801 125.864L83.8162 126.675L84.3978 127.89L85.1247 132.078L85.2701 133.563V134.644H67.8243L67.9697 132.618L68.6966 129.781L69.5689 127.755L70.005 126.81L71.0227 125.729L72.0404 124.784L73.058 124.109L74.0757 123.568L74.948 123.298L75.2388 123.163L76.5472 123.028Z" fill="#1F1A17"/>
<path d="M6.03732 106.145V108.576L10.108 109.251L11.5618 109.657L12.2887 110.197L12.8702 110.737L13.161 111.412L13.3064 112.358V112.898V149.501L13.161 150.447L12.8702 151.392L12.2887 152.068L11.7072 152.473L11.1257 152.743L10.9803 152.878L10.2534 153.013L6.03732 153.418V155.985H29.0075V153.418L24.3553 153.013L23.4831 152.608L22.9015 152.338L22.32 152.068L22.0293 151.662L21.8839 151.392L21.7385 150.852L21.5931 149.771V133.428H27.1176L34.2413 142.208L44.4179 155.985H59.1014V153.418L57.3569 153.283L55.1762 152.878L54.3039 152.608L53.1408 152.068L51.687 151.122L50.6693 150.312L49.2155 148.826L35.1136 131.402L38.6027 130.322L41.0742 129.241L42.6734 128.296L44.1272 127.35L45.8718 125.594L46.8894 124.109L47.471 122.893L48.1979 120.057L48.3432 117.625L48.1979 115.735L47.7617 114.114L47.0348 112.493L46.5987 111.953L45.581 110.737L44.2726 109.657L43.691 109.251L42.528 108.576L40.4927 107.631L37.7304 106.82L33.6597 106.28L6.03732 106.145ZM21.5931 108.981L29.7345 109.116L31.0429 109.251L32.7875 109.657L34.2413 110.332L35.1136 110.872L36.1312 111.683L36.7127 112.358L37.585 113.438L37.7304 113.844L38.3119 115.194L38.7481 116.68L38.8935 118.301L38.6027 121.272L38.0212 123.568L37.2943 125.054L36.1312 126.405L34.8228 127.756L33.6597 128.566L32.3513 129.241L31.3336 129.646L30.1706 129.917L28.426 130.322H21.5931V108.981Z" fill="#1F1A17"/>
<path d="M157.379 120.327L154.617 120.732L154.035 120.867L151.709 121.542L149.819 122.488L148.365 123.298L146.766 124.649L145.749 125.729L145.312 126.405L145.167 126.81L144.876 127.755V128.025V128.161V129.241L145.022 129.916L145.458 130.862L145.894 131.402L146.185 131.672L146.912 132.213H147.057L147.348 132.348H147.639L148.075 132.483H149.092H149.383H149.529L150.546 132.213L151.128 131.942L151.564 131.672L152.145 131.132L152.727 130.322L152.872 130.187L153.018 129.781V129.511V128.566V127.62L152.872 126.945L152.436 125.054L152.291 124.649L152.582 124.514L152.872 124.109L153.454 123.838L154.472 123.433L155.635 123.163L156.943 122.893H157.379L159.124 123.028L159.851 123.163H160.287L161.014 123.433L161.304 123.703L162.031 124.109L162.904 124.919L163.776 125.864L164.067 126.405L164.648 128.025L164.794 128.296L165.084 130.322V133.833L161.304 135.184L149.092 139.371L147.202 140.317L145.894 141.262L145.167 142.072L144.586 142.748L144.004 143.828L143.568 144.639L143.132 146.26L142.986 147.745V148.691L143.277 150.447L143.423 150.852L143.859 152.067L144.295 152.878L145.022 153.823L146.766 155.309L148.365 156.119L149.238 156.39L150.692 156.66L153.454 156.93L156.071 156.66L156.652 156.525L158.688 155.849L160.287 155.174L161.741 154.364L163.631 152.878L164.939 151.662H165.23V152.203L165.52 153.013L165.957 153.823L166.684 154.634L167.41 155.444L167.847 155.714L168.428 155.984L169.3 156.255L170.754 156.66H172.208H173.807L174.97 156.39L178.459 155.309V153.148L174.825 153.013L174.679 152.878H174.389L174.243 152.743L173.662 152.473L173.226 152.067L172.79 151.797L172.353 151.122L172.063 150.177V149.771L172.208 130.051L171.626 127.215L171.19 125.999L170.463 124.784L169.737 123.838L169.155 123.163L168.719 122.893L166.684 121.542L165.084 121.002L163.921 120.732L159.851 120.327H157.379ZM165.084 136.805L164.794 148.961L163.34 150.447L161.886 151.527L160.578 152.203L159.269 152.608L157.525 153.013H155.925H155.635L154.181 152.608L153.454 152.338L153.018 152.067L152.145 151.392L151.418 150.582L150.982 149.636V149.366L150.837 148.421L150.692 146.8L150.982 145.179L151.418 144.098L151.709 143.693L152.436 142.613L153.454 141.532L155.489 140.182L157.088 139.371L160.723 138.156L165.084 136.805Z" fill="#1F1A17"/>
<path d="M118.71 124.243V121.947L131.939 121.136L132.521 121.676V150.041L132.666 150.851L132.957 151.526L133.102 151.932L133.539 152.337L133.829 152.607L134.556 152.877L136.737 153.552L138.045 153.687V155.984H119.873V153.687L121.327 153.552H121.763L122.926 153.417L123.653 153.147L124.089 153.012L124.525 152.742L124.816 152.337L124.961 152.202L125.107 151.796L125.252 151.256L125.397 150.176V128.97V128.295L125.107 127.349L124.961 127.079L124.67 126.674L124.234 125.999L123.653 125.458L123.217 125.188L122.49 124.918L121.181 124.648L118.71 124.243Z" fill="#1F1A17"/>
<path d="M109.696 106.684V150.176L109.842 150.716L109.987 151.121L110.278 151.796L110.423 152.202L111.005 152.607L111.295 152.742L111.731 153.012L112.168 153.147L113.331 153.552L114.203 153.687H115.221V155.984H97.3387V153.687H97.7749L100.828 153.417L101.264 153.147L101.7 152.877L101.846 152.742L102.282 152.472V152.202L102.572 151.796L102.718 151.121L102.863 150.581L102.282 112.897L101.846 110.871L101.7 110.331L101.555 110.196L101.409 110.061V109.791L101.119 109.656L100.973 109.52H100.828L100.682 109.385L100.537 109.25V109.115H100.246L99.5194 108.98L95.8849 109.25L95.7395 106.819L109.115 106.144L109.696 106.684Z" fill="#1F1A17"/>
<path d="M188.783 38.2052L189.947 42.5273L190.819 48.2001L190.673 55.3587L189.365 62.3822L187.62 67.6498L185.149 72.7824L182.096 77.3746L180.351 79.6708L175.408 84.8033L170.465 88.7203L169.012 89.3956L167.703 89.9359L165.377 90.4762H164.65H163.923H162.469L161.016 90.206L159.271 89.6657L158.399 89.1255L158.108 88.9904L157.381 88.3151L137.319 67.3797H137.173L140.662 67.5147L142.843 67.2446L145.605 66.5693L147.641 65.6238L149.24 64.6783L151.275 63.0575L152.438 61.8419L152.874 61.4367L154.328 59.1406L155.055 57.2496L155.491 55.2236L155.637 52.6574V52.1171L155.055 49.0105L154.183 47.1196L153.456 45.7689L152.002 44.0131L151.566 43.6079L150.257 42.5273L148.222 41.3117L147.059 40.9065L143.57 39.826L141.68 39.4208L138.045 39.2857L134.702 39.6909L133.684 39.826L129.904 41.0416L126.56 42.7975L123.362 44.9585L120.745 47.6599L119.437 49.1456L117.401 52.1171L115.802 55.4938L114.639 58.8704L113.912 62.7874L113.476 67.6498L113.912 74.2681L114.93 79.8058L117.401 87.9099L119.001 91.0164L121.472 94.5282L117.256 92.6372L111.15 89.1255L104.026 83.3176L100.101 79.1305L96.1757 73.3226L93.5588 67.9199L91.6688 61.8419L90.6512 55.6288L90.5058 49.1456L91.5235 41.4468L93.5588 35.0986L95.8849 30.3713L99.374 25.1037L100.101 24.2933L106.062 17.9451L110.568 14.4334L115.511 11.4619L120.745 9.03067L125.397 7.54493L129.177 6.46439L135.719 5.51892H144.006L148.077 5.92412L153.456 6.86959L159.853 8.76053L167.412 12.2723L171.338 14.7035L176.135 18.7555L177.298 19.836L182.387 25.9141L185.73 31.1817L188.783 38.2052Z" fill="#C0A062"/>
<path d="M129.323 56.3042L129.904 59.4107L130.631 61.842L136.592 75.7539L137.028 77.5097L137.173 80.6163V81.8319L136.592 84.2631L135.574 86.8294L133.684 89.8009L131.503 92.6373L129.468 94.7983L127.578 92.7723L124.816 89.3957L122.635 85.6138L121.763 83.0475L121.472 81.8319L121.181 79.8059L121.327 78.4552L121.617 76.4292L122.49 74.2681L124.67 69.946L128.16 61.0315L129.323 56.3042Z" fill="#C0A062"/>
</svg>
