<svg width="150" height="150" viewBox="0 0 150 150" fill="none" xmlns="http://www.w3.org/2000/svg">
<path fill-rule="evenodd" clip-rule="evenodd" d="M0 0.189651H149.81V150H0V0.189651Z" fill="white"/>
<path fill-rule="evenodd" clip-rule="evenodd" d="M126.062 80.2026C137.659 74.5279 144.055 68.0688 143.109 62.7201C141.12 51.4764 107.045 49.6655 71.8775 55.9087C55.784 58.7665 40.392 63.0559 29.9721 67.3095C30.5255 67.2753 30.9123 67.3002 30.9123 67.3002C35.4164 67.4245 35.141 70.2248 35.141 70.2248L35.1483 71.9354H31.558V70.7743C31.558 69.9512 30.5553 69.8953 30.5553 69.8953C29.7866 69.8953 29.6074 70.4175 29.6074 70.4175C29.1821 71.2134 29.9101 71.9004 29.9101 71.9004C30.2805 72.3128 32.1483 73.1775 32.1483 73.1775C32.7524 73.4113 33.7275 74.0147 33.7275 74.0147C35.554 75.1132 35.3885 77.2003 35.3885 77.2003V78.5738C35.169 81.9796 30.4733 81.8824 30.4733 81.8824C25.5569 81.8824 25.6644 78.6564 25.6644 78.6564V76.9705H29.49V78.1324C29.49 79.1212 30.4451 79.1646 30.4451 79.1646C31.4894 79.2056 31.5772 78.1962 31.5772 78.1962C31.7195 77.2146 30.6378 76.5965 30.6378 76.5965C29.5665 76.0476 27.7816 75.0861 27.7816 75.0861C26.9027 74.5096 26.5454 73.9878 26.5454 73.9878C25.9139 73.1914 25.9555 71.9556 25.9555 71.9556V70.8839C25.9555 69.4017 26.3538 68.9758 26.3538 68.9758C26.3715 68.9432 26.3872 68.9137 26.4064 68.881C13.5604 74.8174 5.69725 81.6987 6.69334 87.3557C8.71406 98.8312 40.851 100.337 78.6489 94.5156C96.052 91.8358 111.199 86.9024 122.662 81.7925C122.58 81.7965 122.493 81.7965 122.409 81.7965C122.409 81.7965 117.776 82.1714 117.667 78.4363V71.2134C117.667 71.2134 117.09 67.2318 122.281 67.2318C122.281 67.2318 125.659 67.1222 126.551 69.1266C126.551 69.1266 126.992 69.6637 126.875 71.8802H123.277V70.744C123.277 70.744 123.27 69.8276 122.335 69.8276C122.335 69.8276 121.361 69.8688 121.361 70.6375V78.1072C121.361 78.1072 121.319 79.11 122.418 79.11C122.418 79.11 123.319 79.0893 123.319 78.0353V75.8752H122.339V73.8636H126.961V78.1072C126.961 78.1072 126.95 78.9992 126.578 79.5211C126.578 79.5211 126.204 80.0949 126.062 80.2026ZM112.883 81.4134H108.644L104.862 73.0715H104.703L104.915 81.4125H101.359V67.7727H105.727L109.381 76.0471H109.537L109.28 67.7712H112.883V81.4134ZM90.5883 78.0259C90.5883 79.1817 91.6865 79.1234 91.6865 79.1234C92.7295 79.1234 92.6774 77.997 92.6774 77.997V67.7137H96.4904V78.1212C96.4904 81.8715 91.7409 81.815 91.7409 81.815C86.2764 81.815 86.6759 77.9423 86.6759 77.9423V67.7129H90.5767L90.5883 78.0259ZM78.6046 71.9354V70.7743C78.6046 69.9504 77.6027 69.8953 77.6027 69.8953C76.8334 69.8953 76.6552 70.4175 76.6552 70.4175C76.2298 71.2134 76.9576 71.9004 76.9576 71.9004C77.3282 72.3119 79.1953 73.1775 79.1953 73.1775C79.7992 73.4103 80.7746 74.0147 80.7746 74.0147C82.601 75.1132 82.4363 77.2003 82.4363 77.2003V78.5738C82.2171 81.9796 77.5208 81.8833 77.5208 81.8833C72.6043 81.8833 72.7112 78.6564 72.7112 78.6564V76.9705H76.5377V78.1324C76.5377 79.1212 77.4928 79.1646 77.4928 79.1646C78.5362 79.2056 78.6241 78.1962 78.6241 78.1962C78.7671 77.2146 77.6856 76.5965 77.6856 76.5965C76.6142 76.0471 74.8294 75.0861 74.8294 75.0861C73.9495 74.5096 73.5931 73.9878 73.5931 73.9878C72.9616 73.1908 73.002 71.9549 73.002 71.9549V70.8839C73.002 69.401 73.401 68.9751 73.401 68.9751C74.4171 67.0662 77.9596 67.2994 77.9596 67.2994C82.4642 67.4238 82.1891 70.2248 82.1891 70.2248L82.1961 71.9354H78.6046ZM59.7641 67.7688L60.9135 75.2349H61.1943L62.3969 67.7696H68.3349L68.7189 81.4109H65.1486L65.0636 71.1357H64.8171L62.9576 81.4085H59.2228L57.3396 71.1326H57.0606L57.0178 81.4118H53.4672L53.7672 67.7688H59.7641ZM45.8321 81.3967L44.4332 70.8209H44.1199L42.7203 81.3967H38.8983L41.2597 67.758H47.2927L49.655 81.3967H45.8321Z" fill="#1A5DAD"/>
</svg>
