<svg width="41" height="42" viewBox="0 0 41 42" fill="none" xmlns="http://www.w3.org/2000/svg">
<path d="M21 29.5002C25.4182 29.5002 29 25.9184 29 21.5002C29 17.082 25.4182 13.5002 21 13.5002C16.5817 13.5002 13 17.082 13 21.5002C13 25.9184 16.5817 29.5002 21 29.5002Z" stroke="white" stroke-width="3" stroke-linecap="round" stroke-linejoin="round"/>
<path d="M3 29.5V13.5C3 7.97716 7.47716 3.5 13 3.5H29C34.5228 3.5 39 7.97716 39 13.5V29.5C39 35.0228 34.5228 39.5 29 39.5H13C7.47716 39.5 3 35.0228 3 29.5Z" stroke="white" stroke-width="3"/>
<path d="M32 10.5198L32.02 10.4976" stroke="white" stroke-width="3" stroke-linecap="round" stroke-linejoin="round"/>
</svg>
