<svg width="285" height="128" viewBox="0 0 285 128" fill="none" xmlns="http://www.w3.org/2000/svg">
<path d="M262.699 70.0161V59.8401C262.271 59.3281 261.63 58.8161 260.846 58.4321C260.062 58.0481 259.136 57.8561 257.996 57.8561C256.357 57.8561 255.004 58.3681 253.935 59.4561C252.866 60.5441 252.367 62.2721 252.367 64.7681C252.367 66.6881 252.866 68.2881 253.864 69.4401C254.861 70.6561 256.215 71.2321 258.067 71.2321C259.065 71.2321 259.991 71.1041 260.917 70.7841C261.844 70.5281 262.414 70.2721 262.699 70.0161ZM272.959 73.2161L267.116 77.5681C266.261 77.3121 265.477 76.9281 264.836 76.3521C264.124 75.7761 263.696 75.1361 263.482 74.3681L258.922 76.7361C258.78 76.8001 258.495 76.8641 258.067 76.9921C257.64 77.0561 257.284 77.1201 256.927 77.1201C253.436 77.1201 250.586 76.0321 248.306 73.9201C246.026 71.7441 244.886 68.7361 244.886 64.8961C244.886 61.2481 246.026 58.3041 248.449 55.9361C250.8 53.5681 253.792 52.3521 257.497 52.3521C258.922 52.3521 260.276 52.6081 261.559 53.1201C262.841 53.6321 263.696 54.0801 264.124 54.5281L268.327 53.1201L269.824 53.5041V68.3521C269.824 69.6961 270.037 70.7201 270.536 71.4881C271.035 72.2561 271.819 72.8321 272.959 73.2161Z" fill="#005484"/>
<path d="M41.61 50.5601C40.9688 46.2721 35.7675 42.3041 26.505 40.3201C24.5813 41.4721 22.8 42.8161 21.1613 44.2881C29.4975 45.0561 39.2588 47.8721 40.6838 53.7601C41.2538 56.0001 41.3963 67.0081 72.96 55.4241C72.39 53.8241 71.6775 52.3521 70.8938 50.8801C59.4225 55.4881 42.8925 59.5841 41.61 50.5601Z" fill="#005484"/>
<path d="M41.61 58.56C40.8262 53.12 32.7037 48.192 18.4537 47.168C17.1712 48.704 16.1025 50.304 15.2475 51.968C24.0112 51.84 38.8312 54.272 40.6837 61.696C41.2537 64 41.3962 75.264 74.3137 62.848C74.3137 61.12 74.0287 59.392 73.6012 57.728C62.3437 62.656 43.035 68.288 41.61 58.56Z" fill="#005484"/>
<path d="M41.61 66.624C40.755 60.672 30.9937 55.296 13.8937 55.104C13.3237 56.768 12.825 58.496 12.6112 60.224C20.5912 59.456 38.6175 61.568 40.6837 69.824C41.2537 72.064 41.3962 83.072 73.1737 71.424C73.7437 69.504 74.1712 67.52 74.3137 65.472C63.1275 70.528 43.035 76.608 41.61 66.624Z" fill="#005484"/>
<path d="M41.61 74.7522C40.6837 68.6082 30.4237 63.1042 12.3975 63.2322C12.3975 63.3602 12.3975 63.5522 12.3975 63.7442C12.3975 65.2802 12.54 66.8162 12.7537 68.2882C20.8762 67.5842 38.6887 69.7602 40.6837 77.8882C41.1825 80.0002 41.3962 89.7282 67.1887 81.5362C69.1125 79.4882 70.68 77.1202 71.8912 74.6242C60.4912 79.3602 42.9637 83.9682 41.61 74.7522Z" fill="#A8CF45"/>
<path d="M41.61 82.688C40.6837 76.672 30.8512 71.296 13.4662 71.168C14.0362 72.896 14.7487 74.56 15.6037 76.16C24.4387 76.032 38.9025 78.528 40.6837 85.888C40.8975 86.912 41.1112 89.856 44.46 91.584C50.9437 91.328 56.9287 89.344 61.7737 86.144C52.2262 88.832 42.6075 89.472 41.61 82.688Z" fill="#A8CF45"/>
<path d="M17.7412 79.4241C19.2375 81.3441 20.9475 83.1361 22.9425 84.6721C29.4975 85.5041 36.4087 87.5521 39.4012 91.3281C40.185 91.4561 40.9687 91.5201 41.7525 91.5201C41.6812 91.3281 41.61 91.0721 41.61 90.8161C40.755 85.2481 32.49 80.3201 17.7412 79.4241Z" fill="#A8CF45"/>
<path d="M40.6837 45.824C41.1825 47.936 41.3962 58.176 69.4687 48.704C68.4712 47.296 67.3312 45.952 66.0487 44.736C55.29 48.384 42.75 50.432 41.61 42.624C41.2537 40.384 39.7575 38.272 37.05 36.48C34.9125 36.864 32.9175 37.44 30.9225 38.208C35.8387 39.744 39.7575 42.176 40.6837 45.824Z" fill="#A8CF45"/>
<path d="M63.4125 42.4961C61.6312 41.1521 59.7075 39.9361 57.6412 38.9761C50.3025 40.5121 43.6762 40.3841 41.9662 35.9041C41.325 35.9681 40.6837 35.9681 40.0425 36.0321C40.3275 36.5441 40.5412 37.1201 40.6837 37.6961C41.1825 39.6801 41.325 48.5761 63.4125 42.4961Z" fill="#A8CF45"/>
<path d="M66.0487 44.7361C67.3312 45.9521 68.4712 47.2961 69.4687 48.7041L66.0487 44.7361Z" fill="#F8A060"/>
<path d="M57.6412 38.9761C59.7075 39.9361 61.6312 41.1521 63.4125 42.4961L57.6412 38.9761Z" fill="#F8A060"/>
<path d="M113.002 55.4242L100.747 76.8642H94.905L83.3625 55.4242L90.06 52.6082L98.1112 68.5442L106.732 52.6082L113.002 55.4242Z" fill="#005484"/>
<path d="M133.665 63.0401C133.309 61.3121 132.525 59.9681 131.385 59.0721C130.316 58.1761 128.891 57.7281 127.252 57.7281C125.329 57.7281 123.904 58.1761 122.906 59.2001C121.909 60.1601 121.339 61.4401 121.125 63.0401H133.665ZM140.434 66.1761H121.196C121.624 68.0961 122.479 69.4401 123.69 70.2721C124.972 71.1041 126.469 71.5521 128.321 71.5521C129.746 71.5521 131.314 71.3601 133.095 70.9761C134.805 70.5921 136.23 70.0801 137.227 69.5041V75.3921C136.301 75.9681 134.805 76.4801 132.952 76.8001C131.029 77.1841 129.461 77.3761 128.321 77.3761C123.761 77.3761 120.199 76.2241 117.562 73.9841C114.997 71.7441 113.715 68.7361 113.715 64.9601C113.715 61.1201 115.069 58.0481 117.705 55.7441C120.341 53.3761 123.619 52.2241 127.537 52.2241C131.456 52.2241 134.591 53.4401 136.942 55.9361C139.294 58.4321 140.434 61.8881 140.434 66.1761Z" fill="#005484"/>
<path d="M160.811 69.696V59.392C160.384 58.944 159.743 58.56 158.816 58.24C157.89 57.856 156.821 57.728 155.753 57.728C153.758 57.728 152.261 58.24 151.264 59.328C150.266 60.352 149.768 62.08 149.768 64.384C149.768 66.752 150.338 68.544 151.406 69.696C152.404 70.912 153.829 71.488 155.61 71.488C156.75 71.488 157.819 71.296 158.674 70.976C159.529 70.592 160.241 70.208 160.811 69.696ZM168.079 76.864H162.379L160.883 74.752L156.964 76.672C156.679 76.8 156.18 76.928 155.539 76.992C154.969 77.056 154.399 77.12 153.971 77.12C150.195 77.12 147.274 75.968 145.279 73.664C143.355 71.36 142.358 68.48 142.286 65.024C142.286 61.248 143.498 58.24 145.849 56C148.271 53.76 151.406 52.672 155.325 52.672C156.465 52.672 157.463 52.736 158.318 52.928C159.173 53.056 159.956 53.376 160.811 53.76V43.52H168.079V76.864Z" fill="#005484"/>
<path d="M189.311 70.0161V59.8401C188.884 59.3281 188.243 58.8161 187.459 58.4321C186.675 58.0481 185.749 57.8561 184.609 57.8561C182.97 57.8561 181.616 58.3681 180.548 59.4561C179.479 60.5441 178.98 62.2721 178.98 64.7681C178.98 66.6881 179.479 68.2881 180.476 69.4401C181.474 70.6561 182.828 71.2321 184.609 71.2321C185.678 71.2321 186.604 71.1041 187.53 70.7841C188.456 70.5281 189.026 70.2721 189.311 70.0161ZM199.571 73.2161L193.729 77.5681C192.874 77.3121 192.09 76.9281 191.449 76.3521C190.736 75.7761 190.309 75.1361 190.095 74.3681L185.535 76.7361C185.393 76.8001 185.108 76.8641 184.68 76.9921C184.253 77.0561 183.825 77.1201 183.54 77.1201C180.049 77.1201 177.199 76.0321 174.919 73.9201C172.639 71.7441 171.499 68.7361 171.499 64.8961C171.499 61.2481 172.639 58.3041 174.99 55.9361C177.413 53.5681 180.405 52.3521 184.11 52.3521C185.535 52.3521 186.889 52.6081 188.171 53.1201C189.454 53.6321 190.309 54.0801 190.736 54.5281L194.94 53.1201L196.436 53.5041V68.3521C196.436 69.6961 196.65 70.7201 197.149 71.4881C197.648 72.2561 198.431 72.8321 199.571 73.2161Z" fill="#005484"/>
<path d="M227.145 76.864H219.735V62.272C219.735 61.44 219.379 60.672 218.737 59.968C218.025 59.328 217.027 59.008 215.602 59.008C214.249 59.008 213.18 59.264 212.254 59.776C211.399 60.224 210.686 60.736 210.116 61.12V76.864H202.706V53.504L210.116 53.056V55.36L213.18 53.76C214.106 53.312 215.032 52.928 216.03 52.736C216.956 52.544 217.954 52.416 218.88 52.416C221.445 52.416 223.44 53.12 224.936 54.592C226.432 56 227.145 57.856 227.145 60.224V76.864Z" fill="#005484"/>
<path d="M243.96 72.832L238.545 77.376C236.336 76.544 234.697 75.328 233.557 73.728C232.417 72.128 231.919 70.208 231.919 68.032V57.792H229.425V53.504H231.919V45.888L239.329 45.376V53.504H243.105V57.792H239.329V66.176C239.329 67.84 239.685 69.248 240.54 70.336C241.395 71.424 242.535 72.256 243.96 72.832Z" fill="#005484"/>
</svg>
