<svg width="384" height="192" viewBox="0 0 384 192" fill="none" xmlns="http://www.w3.org/2000/svg">
<path d="M353.952 105.024V89.7601C353.376 88.9921 352.512 88.2241 351.456 87.6481C350.4 87.0721 349.152 86.7841 347.616 86.7841C345.408 86.7841 343.584 87.5521 342.144 89.1841C340.704 90.8161 340.032 93.4081 340.032 97.1521C340.032 100.032 340.704 102.432 342.048 104.16C343.392 105.984 345.216 106.848 347.712 106.848C349.056 106.848 350.304 106.656 351.552 106.176C352.8 105.792 353.568 105.408 353.952 105.024ZM367.776 109.824L359.904 116.352C358.752 115.968 357.696 115.392 356.832 114.528C355.872 113.664 355.296 112.704 355.008 111.552L348.864 115.104C348.672 115.2 348.288 115.296 347.712 115.488C347.136 115.584 346.656 115.68 346.176 115.68C341.472 115.68 337.632 114.048 334.56 110.88C331.488 107.616 329.952 103.104 329.952 97.3441C329.952 91.8721 331.488 87.4561 334.752 83.9041C337.92 80.3521 341.952 78.5281 346.944 78.5281C348.864 78.5281 350.688 78.9121 352.416 79.6801C354.144 80.4481 355.296 81.1201 355.872 81.7921L361.536 79.6801L363.552 80.2561V102.528C363.552 104.544 363.84 106.08 364.512 107.232C365.184 108.384 366.24 109.248 367.776 109.824Z" fill="#005484"/>
<path d="M56.064 75.84C55.2 69.408 48.192 63.456 35.712 60.48C33.12 62.208 30.72 64.224 28.512 66.432C39.744 67.584 52.896 71.808 54.816 80.64C55.584 84 55.776 100.512 98.304 83.136C97.536 80.736 96.576 78.528 95.52 76.32C80.064 83.232 57.792 89.376 56.064 75.84Z" fill="#005484"/>
<path d="M56.064 87.84C55.008 79.68 44.064 72.288 24.864 70.752C23.136 73.056 21.696 75.456 20.544 77.952C32.352 77.76 52.32 81.408 54.816 92.544C55.584 96 55.776 112.896 100.128 94.272C100.128 91.68 99.744 89.088 99.168 86.592C84 93.984 57.984 102.432 56.064 87.84Z" fill="#005484"/>
<path d="M56.064 99.936C54.912 91.008 41.76 82.944 18.72 82.656C17.952 85.152 17.28 87.744 16.992 90.336C27.744 89.184 52.032 92.352 54.816 104.736C55.584 108.096 55.776 124.608 98.592 107.136C99.36 104.256 99.936 101.28 100.128 98.208C85.056 105.792 57.984 114.912 56.064 99.936Z" fill="#005484"/>
<path d="M56.064 112.128C54.816 102.912 40.992 94.656 16.704 94.848C16.704 95.04 16.704 95.328 16.704 95.616C16.704 97.92 16.896 100.224 17.184 102.432C28.128 101.376 52.128 104.64 54.816 116.832C55.488 120 55.776 134.592 90.528 122.304C93.12 119.232 95.232 115.68 96.864 111.936C81.504 119.04 57.888 125.952 56.064 112.128Z" fill="#A8CF45"/>
<path d="M56.064 124.032C54.816 115.008 41.568 106.944 18.144 106.752C18.912 109.344 19.872 111.84 21.024 114.24C32.928 114.048 52.416 117.792 54.816 128.832C55.104 130.368 55.392 134.784 59.904 137.376C68.64 136.992 76.704 134.016 83.232 129.216C70.368 133.248 57.408 134.208 56.064 124.032Z" fill="#A8CF45"/>
<path d="M23.904 119.136C25.92 122.016 28.224 124.704 30.912 127.008C39.744 128.256 49.056 131.328 53.088 136.992C54.144 137.184 55.2 137.28 56.256 137.28C56.16 136.992 56.064 136.608 56.064 136.224C54.912 127.872 43.776 120.48 23.904 119.136Z" fill="#A8CF45"/>
<path d="M54.816 68.736C55.488 71.904 55.776 87.264 93.6 73.056C92.256 70.944 90.72 68.928 88.992 67.104C74.496 72.576 57.6 75.648 56.064 63.936C55.584 60.576 53.568 57.408 49.92 54.72C47.04 55.296 44.352 56.16 41.664 57.312C48.288 59.616 53.568 63.264 54.816 68.736Z" fill="#A8CF45"/>
<path d="M85.44 63.744C83.04 61.728 80.448 59.904 77.664 58.464C67.776 60.768 58.848 60.576 56.544 53.856C55.68 53.952 54.816 53.952 53.952 54.048C54.336 54.816 54.624 55.68 54.816 56.544C55.488 59.52 55.68 72.864 85.44 63.744Z" fill="#A8CF45"/>
<path d="M88.992 67.104C90.72 68.928 92.256 70.944 93.6 73.056L88.992 67.104Z" fill="#F8A060"/>
<path d="M77.664 58.4639C80.448 59.9039 83.04 61.7279 85.44 63.7439L77.664 58.4639Z" fill="#F8A060"/>
<path d="M152.256 83.1359L135.744 115.296H127.872L112.32 83.1359L121.344 78.9119L132.192 102.816L143.808 78.9119L152.256 83.1359Z" fill="#005484"/>
<path d="M180.096 94.5599C179.616 91.9679 178.56 89.9519 177.024 88.6079C175.584 87.2639 173.664 86.5919 171.456 86.5919C168.864 86.5919 166.944 87.2639 165.6 88.7999C164.256 90.2399 163.488 92.1599 163.2 94.5599H180.096ZM189.216 99.2639H163.296C163.872 102.144 165.024 104.16 166.656 105.408C168.384 106.656 170.4 107.328 172.896 107.328C174.816 107.328 176.928 107.04 179.328 106.464C181.632 105.888 183.552 105.12 184.896 104.256V113.088C183.648 113.952 181.632 114.72 179.136 115.2C176.544 115.776 174.432 116.064 172.896 116.064C166.752 116.064 161.952 114.336 158.4 110.976C154.944 107.616 153.216 103.104 153.216 97.4399C153.216 91.6799 155.04 87.0719 158.592 83.6159C162.144 80.0639 166.56 78.3359 171.84 78.3359C177.12 78.3359 181.344 80.1599 184.512 83.9039C187.68 87.6479 189.216 92.8319 189.216 99.2639Z" fill="#005484"/>
<path d="M216.672 104.544V89.088C216.096 88.416 215.232 87.84 213.984 87.36C212.736 86.784 211.296 86.592 209.856 86.592C207.168 86.592 205.152 87.36 203.808 88.992C202.464 90.528 201.792 93.12 201.792 96.576C201.792 100.128 202.56 102.816 204 104.544C205.344 106.368 207.264 107.232 209.664 107.232C211.2 107.232 212.64 106.944 213.792 106.464C214.944 105.888 215.904 105.312 216.672 104.544ZM226.464 115.296H218.784L216.768 112.128L211.488 115.008C211.104 115.2 210.432 115.392 209.568 115.488C208.8 115.584 208.032 115.68 207.456 115.68C202.368 115.68 198.432 113.952 195.744 110.496C193.152 107.04 191.808 102.72 191.712 97.536C191.712 91.872 193.344 87.36 196.512 84C199.776 80.64 204 79.008 209.28 79.008C210.816 79.008 212.16 79.104 213.312 79.392C214.464 79.584 215.52 80.064 216.672 80.64V65.28H226.464V115.296Z" fill="#005484"/>
<path d="M255.072 105.024V89.7601C254.496 88.9921 253.632 88.2241 252.576 87.6481C251.52 87.0721 250.272 86.7841 248.736 86.7841C246.528 86.7841 244.704 87.5521 243.264 89.1841C241.824 90.8161 241.152 93.4081 241.152 97.1521C241.152 100.032 241.824 102.432 243.168 104.16C244.512 105.984 246.336 106.848 248.736 106.848C250.176 106.848 251.424 106.656 252.672 106.176C253.92 105.792 254.688 105.408 255.072 105.024ZM268.896 109.824L261.024 116.352C259.872 115.968 258.816 115.392 257.952 114.528C256.992 113.664 256.416 112.704 256.128 111.552L249.984 115.104C249.792 115.2 249.408 115.296 248.832 115.488C248.256 115.584 247.68 115.68 247.296 115.68C242.592 115.68 238.752 114.048 235.68 110.88C232.608 107.616 231.072 103.104 231.072 97.3441C231.072 91.8721 232.608 87.4561 235.776 83.9041C239.04 80.3521 243.072 78.5281 248.064 78.5281C249.984 78.5281 251.808 78.9121 253.536 79.6801C255.264 80.4481 256.416 81.1201 256.992 81.7921L262.656 79.6801L264.672 80.2561V102.528C264.672 104.544 264.96 106.08 265.632 107.232C266.304 108.384 267.36 109.248 268.896 109.824Z" fill="#005484"/>
<path d="M306.048 115.296H296.064V93.408C296.064 92.16 295.584 91.008 294.72 89.952C293.76 88.992 292.416 88.512 290.496 88.512C288.672 88.512 287.232 88.896 285.984 89.664C284.832 90.336 283.872 91.104 283.104 91.68V115.296H273.12V80.256L283.104 79.584V83.04L287.232 80.64C288.48 79.968 289.728 79.392 291.072 79.104C292.32 78.816 293.664 78.624 294.912 78.624C298.368 78.624 301.056 79.68 303.072 81.888C305.088 84 306.048 86.784 306.048 90.336V115.296Z" fill="#005484"/>
<path d="M328.704 109.248L321.408 116.064C318.432 114.816 316.224 112.992 314.688 110.592C313.152 108.192 312.48 105.312 312.48 102.048V86.688H309.12V80.256H312.48V68.832L322.464 68.064V80.256H327.552V86.688H322.464V99.264C322.464 101.76 322.944 103.872 324.096 105.504C325.248 107.136 326.784 108.384 328.704 109.248Z" fill="#005484"/>
</svg>
